<?xml version="1.0" encoding="utf-8"?>
<svg viewBox="0 0 62.25 19.5" stroke-width="0.501" stroke-linejoin="bevel" fill-rule="evenodd" overflow="visible" xmlns="http://www.w3.org/2000/svg">
  <g id="Document" fill="none" stroke="black" font-family="Times New Roman" font-size="16" transform="matrix(1, 0, 0, -1, 0, 0)">
    <g id="Spread" transform="translate(0 -19.5)">
      <g id="Layer 1">
        <g id="Group" stroke-linecap="round">
          <path d="M 3.118,16.566 L 3.194,16.851 C 3.805,16.91 4.329,16.994 4.762,17.103 C 4.658,16.809 4.543,16.423 4.421,15.946 L 3.953,14.169 L 4.535,14.13 C 4.805,14.117 5.099,14.185 5.418,14.333 C 5.736,14.481 6.021,14.74 6.272,15.111 C 6.523,15.482 6.648,15.882 6.648,16.313 C 6.648,16.738 6.495,17.076 6.19,17.325 C 5.884,17.573 5.417,17.698 4.788,17.698 C 4.071,17.698 3.369,17.519 2.682,17.164 C 1.995,16.807 1.464,16.351 1.091,15.798 C 0.718,15.243 0.531,14.695 0.531,14.156 C 0.531,13.89 0.579,13.659 0.677,13.463 C 0.774,13.267 0.946,13.075 1.195,12.885 C 1.401,12.732 1.505,12.585 1.505,12.441 C 1.505,12.349 1.472,12.27 1.404,12.207 C 1.337,12.145 1.256,12.113 1.163,12.113 C 0.915,12.113 0.674,12.283 0.442,12.624 C 0.211,12.967 0.095,13.398 0.095,13.921 C 0.095,14.878 0.461,15.752 1.195,16.54 C 2.157,17.578 3.447,18.096 5.066,18.096 C 5.682,18.096 6.187,18.017 6.581,17.856 C 6.975,17.695 7.271,17.477 7.467,17.198 C 7.663,16.92 7.761,16.619 7.761,16.294 C 7.761,15.881 7.623,15.474 7.347,15.077 C 7.07,14.678 6.663,14.357 6.126,14.111 C 5.588,13.867 4.991,13.744 4.333,13.744 C 4.231,13.744 4.073,13.751 3.858,13.763 L 3.359,11.796 C 3.274,11.463 3.179,11.134 3.074,10.809 C 3.403,10.729 3.689,10.689 3.934,10.689 C 4.242,10.689 4.574,10.748 4.928,10.867 L 4.852,10.512 C 4.522,10.423 4.244,10.38 4.017,10.38 C 3.797,10.38 3.477,10.402 3.055,10.449 C 2.717,10.491 2.444,10.512 2.233,10.512 C 1.824,10.512 1.404,10.463 0.973,10.367 L 1.05,10.702 C 1.488,10.774 1.787,10.877 1.948,11.012 C 2.175,11.202 2.361,11.583 2.505,12.157 L 3.46,15.946 C 3.502,16.123 3.523,16.247 3.523,16.318 C 3.523,16.386 3.496,16.446 3.441,16.499 C 3.386,16.552 3.321,16.579 3.245,16.579 C 3.216,16.579 3.173,16.574 3.118,16.566 Z" fill-rule="nonzero" stroke-linejoin="round" stroke="none" stroke-width="0.231" fill="#000000" marker-start="none" marker-end="none" stroke-miterlimit="79.8403193612775"/>
          <path d="M 10.564,12.1 L 10.773,11.821 C 9.739,10.84 8.854,10.348 8.116,10.348 C 7.816,10.348 7.587,10.449 7.429,10.651 C 7.271,10.854 7.192,11.178 7.192,11.625 C 7.192,12.528 7.467,13.427 8.014,14.32 C 8.63,15.337 9.366,15.845 10.223,15.845 C 10.522,15.845 10.75,15.77 10.909,15.621 C 11.067,15.471 11.146,15.265 11.146,15.004 C 11.146,14.729 11.051,14.46 10.861,14.194 C 10.671,13.928 10.332,13.652 9.843,13.364 C 9.598,13.226 9.076,12.975 8.274,12.613 C 8.236,12.385 8.217,12.167 8.217,11.961 C 8.217,11.662 8.264,11.453 8.359,11.334 C 8.454,11.216 8.593,11.157 8.773,11.157 C 8.947,11.157 9.137,11.207 9.343,11.303 C 9.621,11.434 10.028,11.699 10.564,12.1 Z M 8.35,13.017 C 9.029,13.321 9.539,13.648 9.88,13.998 C 10.112,14.242 10.228,14.484 10.228,14.725 C 10.228,14.907 10.182,15.051 10.087,15.159 C 9.992,15.265 9.868,15.319 9.716,15.319 C 9.56,15.319 9.409,15.261 9.261,15.142 C 9.063,14.986 8.896,14.751 8.761,14.434 C 8.567,13.971 8.429,13.498 8.35,13.017 Z" fill-rule="nonzero" stroke-linejoin="round" stroke="none" stroke-width="0.231" fill="#000000" marker-start="none" marker-end="none" stroke-miterlimit="79.8403193612775"/>
          <path d="M 12.821,10.512 L 11.88,10.512 L 12.322,12.214 C 12.538,13.049 12.725,13.842 12.885,14.592 C 12.923,14.778 12.942,14.894 12.942,14.941 C 12.942,15.041 12.895,15.092 12.803,15.092 C 12.739,15.092 12.643,15.048 12.512,14.962 C 12.382,14.876 12.145,14.661 11.803,14.32 L 11.608,14.542 C 12.012,14.976 12.416,15.302 12.819,15.519 C 13.221,15.736 13.531,15.845 13.745,15.845 C 13.822,15.845 13.881,15.827 13.926,15.791 C 13.969,15.754 13.992,15.71 13.992,15.655 C 13.992,15.6 13.965,15.454 13.91,15.218 L 13.638,14.086 C 14.063,14.756 14.544,15.33 15.08,15.807 C 15.337,16.035 15.553,16.148 15.725,16.148 C 15.852,16.148 15.957,16.107 16.042,16.025 C 16.126,15.943 16.168,15.847 16.168,15.737 C 16.168,15.623 16.127,15.527 16.045,15.446 C 15.962,15.366 15.757,15.271 15.428,15.161 C 15.116,15.057 14.862,14.93 14.666,14.782 C 14.469,14.634 14.254,14.409 14.02,14.106 C 13.786,13.802 13.623,13.537 13.531,13.312 C 13.437,13.085 13.296,12.561 13.106,11.739 L 12.821,10.512 Z" fill-rule="nonzero" stroke-linejoin="round" stroke="none" stroke-width="0.231" fill="#000000" marker-start="none" marker-end="none" stroke-miterlimit="79.8403193612775"/>
          <path d="M 18.167,12.037 L 18.382,11.809 C 18.053,11.438 17.663,11.1 17.215,10.794 C 16.766,10.488 16.396,10.335 16.105,10.335 C 15.975,10.335 15.867,10.385 15.782,10.484 C 15.698,10.583 15.656,10.719 15.656,10.891 C 15.656,11.229 15.786,11.929 16.047,12.991 L 16.731,15.768 C 16.98,16.772 17.189,17.445 17.357,17.787 C 17.619,18.305 17.988,18.708 18.468,18.995 C 18.946,19.282 19.451,19.425 19.982,19.425 C 20.164,19.425 20.306,19.382 20.409,19.295 C 20.513,19.209 20.565,19.105 20.565,18.982 C 20.565,18.847 20.513,18.737 20.412,18.65 C 20.311,18.563 20.164,18.521 19.97,18.521 C 19.844,18.521 19.664,18.542 19.432,18.583 C 19.23,18.617 19.043,18.635 18.869,18.635 C 18.697,18.635 18.565,18.598 18.477,18.527 C 18.354,18.426 18.244,18.212 18.144,17.888 C 18.046,17.563 17.884,16.922 17.661,15.964 L 17.035,13.314 C 16.723,11.986 16.567,11.292 16.567,11.234 C 16.567,11.099 16.615,11.031 16.712,11.031 C 16.805,11.031 16.94,11.086 17.117,11.195 C 17.466,11.414 17.817,11.696 18.167,12.037 Z" fill-rule="nonzero" stroke-linejoin="round" stroke="none" stroke-width="0.231" fill="#000000" marker-start="none" marker-end="none" stroke-miterlimit="79.8403193612775"/>
          <path d="M 21.957,12.1 L 22.166,11.821 C 21.132,10.84 20.247,10.348 19.509,10.348 C 19.209,10.348 18.98,10.449 18.822,10.651 C 18.664,10.854 18.585,11.178 18.585,11.625 C 18.585,12.528 18.86,13.427 19.407,14.32 C 20.023,15.337 20.759,15.845 21.616,15.845 C 21.915,15.845 22.143,15.77 22.302,15.621 C 22.46,15.471 22.538,15.265 22.538,15.004 C 22.538,14.729 22.443,14.46 22.253,14.194 C 22.064,13.928 21.725,13.652 21.236,13.364 C 20.99,13.226 20.469,12.975 19.666,12.613 C 19.629,12.385 19.61,12.167 19.61,11.961 C 19.61,11.662 19.657,11.453 19.752,11.334 C 19.847,11.216 19.985,11.157 20.166,11.157 C 20.34,11.157 20.53,11.207 20.736,11.303 C 21.014,11.434 21.421,11.699 21.957,12.1 Z M 19.743,13.017 C 20.422,13.321 20.932,13.648 21.273,13.998 C 21.505,14.242 21.621,14.484 21.621,14.725 C 21.621,14.907 21.574,15.051 21.479,15.159 C 21.385,15.265 21.261,15.319 21.109,15.319 C 20.953,15.319 20.802,15.261 20.654,15.142 C 20.456,14.986 20.289,14.751 20.154,14.434 C 19.96,13.971 19.822,13.498 19.743,13.017 Z" fill-rule="nonzero" stroke-linejoin="round" stroke="none" stroke-width="0.231" fill="#000000" marker-start="none" marker-end="none" stroke-miterlimit="79.8403193612775"/>
          <path d="M 30.762,11.821 L 30.939,11.581 C 30.373,11.105 29.954,10.789 29.679,10.632 C 29.3,10.417 29.001,10.309 28.782,10.309 C 28.68,10.309 28.598,10.339 28.535,10.395 C 28.471,10.453 28.44,10.517 28.44,10.589 C 28.44,10.66 28.463,10.777 28.51,10.943 L 28.73,11.714 C 28.225,11.17 27.803,10.801 27.466,10.607 C 27.128,10.413 26.825,10.317 26.555,10.317 C 26.331,10.317 26.143,10.414 25.992,10.611 C 25.84,10.807 25.765,11.094 25.765,11.474 C 25.765,12.072 25.97,12.76 26.381,13.539 C 26.792,14.317 27.249,14.892 27.754,15.265 C 28.258,15.639 28.719,15.826 29.136,15.826 C 29.229,15.826 29.367,15.811 29.554,15.781 C 29.752,16.603 29.941,17.204 30.122,17.581 C 30.304,17.958 30.538,18.284 30.825,18.558 C 31.111,18.833 31.439,19.044 31.809,19.194 C 32.177,19.344 32.522,19.419 32.842,19.419 C 33.011,19.419 33.146,19.375 33.248,19.285 C 33.349,19.197 33.399,19.086 33.399,18.95 C 33.399,18.82 33.352,18.713 33.259,18.631 C 33.167,18.549 33.04,18.508 32.881,18.508 C 32.775,18.508 32.579,18.529 32.292,18.571 C 32.006,18.613 31.809,18.635 31.704,18.635 C 31.557,18.635 31.426,18.589 31.315,18.499 C 31.204,18.407 31.097,18.212 30.995,17.913 C 30.928,17.723 30.774,17.118 30.534,16.098 L 29.636,12.277 C 29.53,11.826 29.477,11.527 29.477,11.379 C 29.477,11.218 29.538,11.139 29.66,11.139 C 29.737,11.139 29.826,11.166 29.927,11.221 C 30.07,11.3 30.348,11.501 30.762,11.821 Z M 29.42,15.086 C 29.083,15.161 28.844,15.2 28.706,15.2 C 28.423,15.2 28.146,15.088 27.877,14.868 C 27.607,14.646 27.347,14.217 27.096,13.58 C 26.845,12.943 26.719,12.389 26.719,11.916 C 26.719,11.701 26.777,11.526 26.893,11.388 C 27.009,11.251 27.141,11.183 27.289,11.183 C 27.466,11.183 27.668,11.261 27.895,11.417 C 28.22,11.649 28.478,11.931 28.667,12.264 C 28.782,12.475 28.936,12.991 29.129,13.815 L 29.42,15.086 Z" fill-rule="nonzero" stroke-linejoin="round" stroke="none" stroke-width="0.231" fill="#000000" marker-start="none" marker-end="none" stroke-miterlimit="79.8403193612775"/>
          <path d="M 32.049,10.475 C 31.962,10.567 31.919,10.695 31.919,10.861 C 31.919,11.387 32.236,12.676 32.868,14.725 C 32.897,14.822 32.912,14.909 32.912,14.984 C 32.912,15.068 32.874,15.111 32.799,15.111 C 32.714,15.111 32.618,15.077 32.51,15.01 C 32.403,14.942 32.164,14.727 31.792,14.365 L 31.514,14.579 C 31.935,15.044 32.321,15.373 32.668,15.569 C 33.017,15.765 33.313,15.863 33.557,15.863 C 33.692,15.863 33.795,15.834 33.867,15.776 C 33.938,15.716 33.975,15.636 33.975,15.535 C 33.975,15.412 33.838,14.894 33.563,13.979 C 33.116,12.481 32.894,11.58 32.894,11.271 C 32.894,11.212 32.908,11.163 32.937,11.122 C 32.966,11.082 32.998,11.062 33.032,11.062 C 33.167,11.062 33.513,11.324 34.07,11.847 L 34.316,11.606 C 33.739,11.062 33.317,10.714 33.051,10.563 C 32.786,10.411 32.569,10.335 32.4,10.335 C 32.252,10.335 32.135,10.381 32.049,10.475 Z" fill-rule="nonzero" stroke-linejoin="round" stroke="none" stroke-width="0.231" fill="#000000" marker-start="none" marker-end="none" stroke-miterlimit="79.8403193612775"/>
          <path d="M 42.951,15.642 L 42.622,15.642 C 42.668,16.085 42.692,16.42 42.692,16.648 C 42.692,16.973 42.605,17.229 42.429,17.416 C 42.254,17.604 42.017,17.698 41.717,17.698 C 41.254,17.698 40.849,17.53 40.503,17.196 C 40.157,16.86 39.985,16.484 39.985,16.066 C 39.985,15.842 40.032,15.641 40.127,15.459 C 40.222,15.277 40.432,15.025 40.757,14.7 C 41.351,14.117 41.741,13.662 41.926,13.334 C 42.112,13.004 42.205,12.684 42.205,12.372 C 42.205,11.913 42.064,11.469 41.784,11.044 C 41.504,10.618 41.091,10.266 40.544,9.99 C 39.998,9.714 39.422,9.577 38.815,9.577 C 38.215,9.577 37.71,9.732 37.299,10.044 C 36.888,10.356 36.683,10.685 36.683,11.031 C 36.683,11.216 36.737,11.371 36.843,11.493 C 36.951,11.615 37.074,11.676 37.214,11.676 C 37.357,11.676 37.475,11.619 37.568,11.506 C 37.627,11.438 37.686,11.286 37.745,11.049 C 37.813,10.763 37.895,10.556 37.991,10.427 C 38.089,10.298 38.222,10.193 38.394,10.11 C 38.565,10.028 38.751,9.987 38.953,9.987 C 39.556,9.987 40.083,10.191 40.535,10.598 C 40.986,11.005 41.212,11.455 41.212,11.948 C 41.212,12.117 41.183,12.284 41.126,12.451 C 41.07,12.617 40.965,12.806 40.813,13.017 C 40.707,13.16 40.474,13.414 40.11,13.776 C 39.753,14.13 39.526,14.373 39.434,14.504 C 39.304,14.693 39.206,14.884 39.143,15.077 C 39.08,15.268 39.048,15.459 39.048,15.649 C 39.048,16.032 39.177,16.418 39.434,16.806 C 39.692,17.194 40.026,17.503 40.436,17.733 C 40.848,17.963 41.315,18.078 41.838,18.078 C 42.099,18.078 42.422,18.038 42.805,17.958 C 43.025,17.916 43.215,17.884 43.375,17.863 C 43.283,17.589 43.21,17.331 43.16,17.088 C 43.109,16.845 43.04,16.363 42.951,15.642 Z" fill-rule="nonzero" stroke-linejoin="round" stroke="none" stroke-width="0.231" fill="#000000" marker-start="none" marker-end="none" stroke-miterlimit="79.8403193612775"/>
          <path d="M 45.273,16.806 L 46.278,17.192 L 45.823,15.421 L 47.133,15.421 L 47.031,14.972 L 45.722,14.972 L 45.165,12.853 C 44.992,12.216 44.906,11.773 44.906,11.524 C 44.906,11.411 44.93,11.329 44.978,11.278 C 45.026,11.227 45.093,11.202 45.178,11.202 C 45.308,11.202 45.508,11.279 45.778,11.435 C 46.132,11.643 46.47,11.876 46.79,12.138 L 47.031,11.847 C 46.108,11.151 45.49,10.725 45.178,10.569 C 44.866,10.413 44.615,10.335 44.425,10.335 C 44.269,10.335 44.146,10.392 44.054,10.506 C 43.964,10.619 43.919,10.806 43.919,11.062 C 43.919,11.366 43.999,11.83 44.159,12.454 L 44.811,14.972 L 43.786,14.972 L 43.899,15.421 L 44.919,15.421 L 45.273,16.806 Z" fill-rule="nonzero" stroke-linejoin="round" stroke="none" stroke-width="0.231" fill="#000000" marker-start="none" marker-end="none" stroke-miterlimit="79.8403193612775"/>
          <path d="M 50.959,12.1 L 51.168,11.821 C 50.135,10.84 49.249,10.348 48.512,10.348 C 48.212,10.348 47.983,10.449 47.825,10.651 C 47.666,10.854 47.588,11.178 47.588,11.625 C 47.588,12.528 47.862,13.427 48.41,14.32 C 49.025,15.337 49.762,15.845 50.618,15.845 C 50.917,15.845 51.146,15.77 51.304,15.621 C 51.462,15.471 51.541,15.265 51.541,15.004 C 51.541,14.729 51.446,14.46 51.256,14.194 C 51.066,13.928 50.727,13.652 50.238,13.364 C 49.993,13.226 49.471,12.975 48.669,12.613 C 48.631,12.385 48.613,12.167 48.613,11.961 C 48.613,11.662 48.66,11.453 48.755,11.334 C 48.85,11.216 48.988,11.157 49.169,11.157 C 49.342,11.157 49.532,11.207 49.738,11.303 C 50.016,11.434 50.423,11.699 50.959,12.1 Z M 48.745,13.017 C 49.424,13.321 49.934,13.648 50.276,13.998 C 50.508,14.242 50.624,14.484 50.624,14.725 C 50.624,14.907 50.577,15.051 50.482,15.159 C 50.387,15.265 50.264,15.319 50.111,15.319 C 49.955,15.319 49.804,15.261 49.656,15.142 C 49.458,14.986 49.292,14.751 49.157,14.434 C 48.962,13.971 48.825,13.498 48.745,13.017 Z" fill-rule="nonzero" stroke-linejoin="round" stroke="none" stroke-width="0.231" fill="#000000" marker-start="none" marker-end="none" stroke-miterlimit="79.8403193612775"/>
          <path d="M 54.678,12.037 L 54.894,11.809 C 54.564,11.438 54.175,11.1 53.727,10.794 C 53.278,10.488 52.907,10.335 52.616,10.335 C 52.486,10.335 52.378,10.385 52.294,10.484 C 52.209,10.583 52.167,10.719 52.167,10.891 C 52.167,11.229 52.297,11.929 52.559,12.991 L 53.243,15.768 C 53.491,16.772 53.7,17.445 53.869,17.787 C 54.13,18.305 54.5,18.708 54.979,18.995 C 55.458,19.282 55.962,19.425 56.493,19.425 C 56.675,19.425 56.817,19.382 56.92,19.295 C 57.025,19.209 57.076,19.105 57.076,18.982 C 57.076,18.847 57.025,18.737 56.924,18.65 C 56.823,18.563 56.675,18.521 56.482,18.521 C 56.355,18.521 56.175,18.542 55.943,18.583 C 55.742,18.617 55.554,18.635 55.38,18.635 C 55.208,18.635 55.077,18.598 54.989,18.527 C 54.866,18.426 54.755,18.212 54.656,17.888 C 54.557,17.563 54.395,16.922 54.172,15.964 L 53.546,13.314 C 53.234,11.986 53.078,11.292 53.078,11.234 C 53.078,11.099 53.126,11.031 53.224,11.031 C 53.316,11.031 53.451,11.086 53.628,11.195 C 53.978,11.414 54.328,11.696 54.678,12.037 Z" fill-rule="nonzero" stroke-linejoin="round" stroke="none" stroke-width="0.231" fill="#000000" marker-start="none" marker-end="none" stroke-miterlimit="79.8403193612775"/>
          <path d="M 57.784,12.037 L 58,11.809 C 57.671,11.438 57.281,11.1 56.833,10.794 C 56.384,10.488 56.014,10.335 55.723,10.335 C 55.593,10.335 55.485,10.385 55.4,10.484 C 55.316,10.583 55.274,10.719 55.274,10.891 C 55.274,11.229 55.404,11.929 55.665,12.991 L 56.349,15.768 C 56.598,16.772 56.806,17.445 56.975,17.787 C 57.237,18.305 57.606,18.708 58.086,18.995 C 58.564,19.282 59.069,19.425 59.6,19.425 C 59.782,19.425 59.923,19.382 60.027,19.295 C 60.131,19.209 60.183,19.105 60.183,18.982 C 60.183,18.847 60.131,18.737 60.03,18.65 C 59.929,18.563 59.782,18.521 59.588,18.521 C 59.461,18.521 59.282,18.542 59.05,18.583 C 58.848,18.617 58.66,18.635 58.487,18.635 C 58.315,18.635 58.183,18.598 58.095,18.527 C 57.972,18.426 57.862,18.212 57.762,17.888 C 57.664,17.563 57.502,16.922 57.279,15.964 L 56.653,13.314 C 56.341,11.986 56.185,11.292 56.185,11.234 C 56.185,11.099 56.233,11.031 56.33,11.031 C 56.423,11.031 56.558,11.086 56.735,11.195 C 57.084,11.414 57.435,11.696 57.784,12.037 Z" fill-rule="nonzero" stroke-linejoin="round" stroke="none" stroke-width="0.231" fill="#000000" marker-start="none" marker-end="none" stroke-miterlimit="79.8403193612775"/>
          <path d="M 61.575,12.1 L 61.783,11.821 C 60.75,10.84 59.865,10.348 59.127,10.348 C 58.827,10.348 58.598,10.449 58.44,10.651 C 58.282,10.854 58.203,11.178 58.203,11.625 C 58.203,12.528 58.478,13.427 59.025,14.32 C 59.641,15.337 60.377,15.845 61.233,15.845 C 61.532,15.845 61.761,15.77 61.919,15.621 C 62.078,15.471 62.156,15.265 62.156,15.004 C 62.156,14.729 62.061,14.46 61.871,14.194 C 61.681,13.928 61.342,13.652 60.853,13.364 C 60.608,13.226 60.087,12.975 59.284,12.613 C 59.247,12.385 59.228,12.167 59.228,11.961 C 59.228,11.662 59.275,11.453 59.37,11.334 C 59.465,11.216 59.603,11.157 59.784,11.157 C 59.958,11.157 60.147,11.207 60.354,11.303 C 60.632,11.434 61.039,11.699 61.575,12.1 Z M 59.361,13.017 C 60.04,13.321 60.55,13.648 60.891,13.998 C 61.123,14.242 61.239,14.484 61.239,14.725 C 61.239,14.907 61.192,15.051 61.097,15.159 C 61.002,15.265 60.879,15.319 60.727,15.319 C 60.571,15.319 60.42,15.261 60.272,15.142 C 60.074,14.986 59.907,14.751 59.772,14.434 C 59.578,13.971 59.44,13.498 59.361,13.017 Z" fill-rule="nonzero" stroke-linejoin="round" stroke="none" stroke-width="0.231" fill="#000000" marker-start="none" marker-end="none" stroke-miterlimit="79.8403193612775"/>
          <path d="M 16.69,4.376 C 16.885,4.59 17.077,4.747 17.266,4.847 C 17.455,4.947 17.622,4.997 17.767,4.997 C 17.936,4.997 18.07,4.929 18.171,4.794 C 18.272,4.659 18.323,4.456 18.323,4.183 C 18.323,3.788 18.23,3.402 18.045,3.023 C 17.859,2.646 17.629,2.357 17.356,2.16 C 17.083,1.962 16.816,1.864 16.555,1.864 C 16.335,1.864 16.157,1.928 16.024,2.058 C 15.891,2.188 15.826,2.357 15.826,2.565 C 15.826,2.73 15.859,2.962 15.923,3.258 L 16.35,5.171 C 16.453,5.637 16.583,5.994 16.741,6.238 C 16.897,6.483 17.103,6.678 17.359,6.824 C 17.613,6.97 17.856,7.042 18.084,7.042 C 18.222,7.042 18.323,7.019 18.386,6.972 C 18.45,6.925 18.482,6.862 18.482,6.782 C 18.482,6.71 18.453,6.649 18.395,6.601 C 18.338,6.553 18.256,6.53 18.15,6.53 C 18.07,6.53 17.933,6.547 17.737,6.584 C 17.651,6.6 17.574,6.608 17.506,6.608 C 17.386,6.608 17.288,6.544 17.213,6.414 C 17.158,6.313 17.083,6.056 16.986,5.643 L 16.69,4.376 Z M 17.402,4.596 C 17.284,4.596 17.143,4.524 16.981,4.383 C 16.818,4.241 16.664,3.989 16.52,3.629 C 16.375,3.268 16.303,2.915 16.303,2.568 C 16.303,2.438 16.344,2.329 16.427,2.241 C 16.511,2.153 16.608,2.109 16.718,2.109 C 16.986,2.109 17.225,2.321 17.434,2.743 C 17.644,3.166 17.748,3.587 17.748,4.006 C 17.748,4.197 17.709,4.352 17.629,4.473 C 17.574,4.555 17.498,4.596 17.402,4.596 Z" fill-rule="nonzero" stroke-linejoin="round" stroke="none" stroke-width="0.231" fill="#000000" marker-start="none" marker-end="none" stroke-miterlimit="79.8403193612775"/>
          <path d="M 18.688,4.273 L 18.573,4.444 L 18.841,4.624 C 19.101,4.802 19.284,4.917 19.39,4.968 C 19.451,4.997 19.506,5.011 19.556,5.011 C 19.607,5.011 19.655,4.982 19.7,4.924 C 19.913,4.657 20.091,4.296 20.235,3.842 C 20.381,3.388 20.452,2.947 20.452,2.521 C 20.452,2.466 20.45,2.382 20.445,2.268 C 20.852,3.018 21.056,3.612 21.056,4.053 C 21.056,4.146 21.035,4.266 20.995,4.419 C 20.952,4.587 20.929,4.707 20.929,4.78 C 20.929,4.849 20.952,4.908 20.996,4.954 C 21.041,4.999 21.097,5.022 21.164,5.022 C 21.248,5.022 21.316,4.99 21.369,4.924 C 21.421,4.86 21.447,4.767 21.447,4.646 C 21.447,4.336 21.375,3.949 21.233,3.484 C 21.091,3.021 20.867,2.521 20.562,1.988 C 20.258,1.454 19.98,1.058 19.727,0.799 C 19.476,0.54 19.233,0.354 18.998,0.243 C 18.763,0.13 18.541,0.074 18.331,0.074 C 18.172,0.074 18.053,0.103 17.972,0.163 C 17.891,0.222 17.85,0.292 17.85,0.374 C 17.85,0.447 17.882,0.509 17.945,0.561 C 18.007,0.612 18.092,0.638 18.197,0.638 C 18.279,0.638 18.392,0.623 18.534,0.591 C 18.685,0.557 18.789,0.541 18.844,0.541 C 18.991,0.541 19.147,0.602 19.311,0.725 C 19.535,0.894 19.712,1.094 19.844,1.329 C 19.975,1.562 20.041,1.798 20.041,2.037 C 20.041,2.371 19.991,2.774 19.894,3.244 C 19.797,3.714 19.658,4.073 19.48,4.322 C 19.391,4.448 19.296,4.513 19.195,4.513 C 19.077,4.513 18.908,4.433 18.688,4.273 Z" fill-rule="nonzero" stroke-linejoin="round" stroke="none" stroke-width="0.231" fill="#000000" marker-start="none" marker-end="none" stroke-miterlimit="79.8403193612775"/>
          <path d="M 26.07,1.817 L 25.78,5.705 C 25.718,5.05 25.602,4.439 25.433,3.871 C 25.264,3.304 25.073,2.865 24.858,2.555 C 24.643,2.246 24.424,2.029 24.2,1.903 C 23.976,1.778 23.755,1.715 23.535,1.715 C 23.403,1.715 23.301,1.743 23.23,1.797 C 23.159,1.851 23.124,1.916 23.124,1.994 C 23.124,2.058 23.149,2.116 23.201,2.164 C 23.253,2.212 23.318,2.235 23.398,2.235 C 23.456,2.235 23.539,2.222 23.648,2.195 C 23.746,2.17 23.828,2.156 23.893,2.156 C 24.007,2.156 24.125,2.198 24.247,2.282 C 24.434,2.408 24.617,2.633 24.798,2.957 C 24.98,3.28 25.143,3.733 25.286,4.312 C 25.43,4.892 25.52,5.457 25.556,6.009 C 25.009,6.009 24.565,5.873 24.222,5.6 C 23.95,5.384 23.814,5.141 23.814,4.874 C 23.814,4.755 23.879,4.614 24.009,4.447 C 24.079,4.358 24.113,4.286 24.113,4.23 C 24.113,4.168 24.093,4.116 24.055,4.075 C 24.015,4.034 23.967,4.014 23.912,4.014 C 23.818,4.014 23.735,4.067 23.662,4.173 C 23.563,4.315 23.514,4.483 23.514,4.679 C 23.514,4.954 23.606,5.216 23.791,5.468 C 23.975,5.721 24.231,5.912 24.557,6.043 C 24.883,6.174 25.265,6.241 25.704,6.244 C 25.941,6.244 26.129,6.266 26.271,6.309 C 26.264,6.092 26.261,5.975 26.261,5.959 C 26.261,5.936 26.264,5.887 26.271,5.81 L 26.485,3.063 C 27.065,4.078 27.633,4.913 28.187,5.568 C 28.58,6.033 28.922,6.347 29.214,6.511 C 29.047,6.054 28.869,5.45 28.679,4.7 L 28.238,2.966 C 28.213,2.87 28.18,2.728 28.141,2.543 L 28.054,2.156 C 28.237,2.112 28.404,2.091 28.556,2.091 C 28.679,2.091 28.81,2.105 28.95,2.134 L 28.903,1.925 C 28.78,1.903 28.685,1.893 28.617,1.893 C 28.518,1.893 28.376,1.903 28.191,1.925 C 28.038,1.944 27.904,1.954 27.786,1.954 C 27.661,1.954 27.518,1.929 27.359,1.881 C 27.492,2.228 27.63,2.695 27.775,3.28 L 28.054,4.386 C 28.171,4.863 28.274,5.191 28.361,5.369 C 28.167,5.15 27.87,4.747 27.467,4.162 C 27.145,3.689 26.784,3.093 26.384,2.369 L 26.07,1.817 Z" fill-rule="nonzero" stroke-linejoin="round" stroke="none" stroke-width="0.231" fill="#000000" marker-start="none" marker-end="none" stroke-miterlimit="79.8403193612775"/>
          <path d="M 31.295,5.008 C 31.532,5.008 31.728,4.914 31.885,4.726 C 32.041,4.537 32.12,4.276 32.12,3.942 C 32.12,3.407 31.932,2.926 31.555,2.502 C 31.18,2.076 30.783,1.864 30.363,1.864 C 30.105,1.864 29.897,1.948 29.74,2.117 C 29.582,2.285 29.503,2.516 29.503,2.806 C 29.503,3.313 29.647,3.78 29.936,4.209 C 30.301,4.741 30.753,5.008 31.295,5.008 Z M 30.988,4.737 C 30.784,4.737 30.586,4.59 30.393,4.297 C 30.202,4.005 30.106,3.6 30.106,3.084 C 30.106,2.771 30.166,2.525 30.283,2.344 C 30.37,2.212 30.486,2.145 30.63,2.145 C 30.833,2.145 31.017,2.27 31.184,2.521 C 31.395,2.846 31.502,3.25 31.502,3.732 C 31.502,4.093 31.452,4.351 31.355,4.506 C 31.258,4.659 31.136,4.737 30.988,4.737 Z" fill-rule="nonzero" stroke-linejoin="round" stroke="none" stroke-width="0.231" fill="#000000" marker-start="none" marker-end="none" stroke-miterlimit="79.8403193612775"/>
          <path d="M 32.56,4.176 L 32.451,4.322 C 32.691,4.56 32.917,4.736 33.132,4.849 C 33.346,4.962 33.514,5.018 33.637,5.018 C 33.687,5.018 33.726,5.008 33.751,4.987 C 33.777,4.964 33.789,4.934 33.789,4.896 C 33.789,4.847 33.77,4.754 33.731,4.617 C 33.676,4.415 33.637,4.255 33.616,4.136 C 34.194,4.725 34.636,5.018 34.942,5.018 C 35.022,5.018 35.082,4.997 35.123,4.954 C 35.164,4.91 35.184,4.841 35.184,4.747 C 35.184,4.646 35.149,4.474 35.076,4.23 C 35.35,4.517 35.588,4.72 35.791,4.84 C 35.994,4.958 36.151,5.018 36.265,5.018 C 36.366,5.018 36.445,4.99 36.5,4.931 C 36.555,4.874 36.583,4.785 36.583,4.664 C 36.583,4.592 36.571,4.507 36.547,4.407 C 36.523,4.309 36.435,4.007 36.283,3.504 C 36.093,2.88 35.998,2.507 35.998,2.388 C 35.998,2.306 36.031,2.265 36.099,2.265 C 36.144,2.265 36.189,2.279 36.232,2.308 C 36.374,2.409 36.521,2.534 36.67,2.683 L 36.789,2.553 C 36.738,2.512 36.643,2.429 36.503,2.301 C 36.311,2.127 36.178,2.018 36.106,1.975 C 35.966,1.893 35.848,1.853 35.751,1.853 C 35.679,1.853 35.615,1.888 35.56,1.96 C 35.505,2.03 35.477,2.129 35.477,2.254 C 35.477,2.369 35.493,2.505 35.527,2.66 C 35.561,2.816 35.66,3.164 35.824,3.707 C 35.947,4.114 36.008,4.36 36.008,4.447 C 36.008,4.529 35.972,4.57 35.9,4.57 C 35.839,4.57 35.758,4.541 35.658,4.48 C 35.45,4.354 35.277,4.202 35.137,4.021 C 35.041,3.896 34.956,3.697 34.884,3.424 C 34.723,2.83 34.602,2.344 34.522,1.968 L 34.01,1.968 L 34.548,4.176 C 34.587,4.336 34.606,4.427 34.606,4.451 C 34.606,4.489 34.596,4.52 34.578,4.54 C 34.558,4.56 34.529,4.57 34.494,4.57 C 34.429,4.57 34.328,4.52 34.191,4.419 C 33.951,4.248 33.78,4.082 33.676,3.922 C 33.57,3.761 33.481,3.517 33.406,3.19 L 33.128,1.968 L 32.611,1.968 L 33.019,3.692 C 33.14,4.191 33.2,4.462 33.2,4.506 C 33.2,4.561 33.179,4.589 33.135,4.589 C 33.041,4.589 32.849,4.451 32.56,4.176 Z" fill-rule="nonzero" stroke-linejoin="round" stroke="none" stroke-width="0.231" fill="#000000" marker-start="none" marker-end="none" stroke-miterlimit="79.8403193612775"/>
          <path d="M 37.041,4.273 L 36.927,4.444 L 37.194,4.624 C 37.454,4.802 37.637,4.917 37.743,4.968 C 37.804,4.997 37.859,5.011 37.909,5.011 C 37.96,5.011 38.008,4.982 38.053,4.924 C 38.266,4.657 38.444,4.296 38.588,3.842 C 38.734,3.388 38.805,2.947 38.805,2.521 C 38.805,2.466 38.803,2.382 38.798,2.268 C 39.205,3.018 39.409,3.612 39.409,4.053 C 39.409,4.146 39.388,4.266 39.348,4.419 C 39.305,4.587 39.283,4.707 39.283,4.78 C 39.283,4.849 39.305,4.908 39.349,4.954 C 39.394,4.999 39.45,5.022 39.517,5.022 C 39.601,5.022 39.67,4.99 39.722,4.924 C 39.774,4.86 39.8,4.767 39.8,4.646 C 39.8,4.336 39.728,3.949 39.586,3.484 C 39.444,3.021 39.22,2.521 38.915,1.988 C 38.611,1.454 38.333,1.058 38.08,0.799 C 37.83,0.54 37.586,0.354 37.351,0.243 C 37.116,0.13 36.894,0.074 36.684,0.074 C 36.525,0.074 36.406,0.103 36.325,0.163 C 36.244,0.222 36.203,0.292 36.203,0.374 C 36.203,0.447 36.235,0.509 36.298,0.561 C 36.36,0.612 36.445,0.638 36.55,0.638 C 36.632,0.638 36.745,0.623 36.887,0.591 C 37.038,0.557 37.142,0.541 37.197,0.541 C 37.344,0.541 37.5,0.602 37.664,0.725 C 37.888,0.894 38.065,1.094 38.197,1.329 C 38.328,1.562 38.394,1.798 38.394,2.037 C 38.394,2.371 38.344,2.774 38.247,3.244 C 38.15,3.714 38.011,4.073 37.833,4.322 C 37.744,4.448 37.649,4.513 37.548,4.513 C 37.43,4.513 37.261,4.433 37.041,4.273 Z" fill-rule="nonzero" stroke-linejoin="round" stroke="none" stroke-width="0.231" fill="#000000" marker-start="none" marker-end="none" stroke-miterlimit="79.8403193612775"/>
          <path d="M 41.517,2.839 L 41.64,2.709 C 41.451,2.497 41.229,2.303 40.972,2.129 C 40.716,1.954 40.504,1.867 40.338,1.867 C 40.263,1.867 40.202,1.895 40.154,1.952 C 40.106,2.009 40.081,2.086 40.081,2.185 C 40.081,2.377 40.156,2.778 40.305,3.385 L 40.696,4.971 C 40.838,5.545 40.957,5.929 41.053,6.124 C 41.203,6.421 41.415,6.651 41.688,6.815 C 41.961,6.979 42.249,7.061 42.553,7.061 C 42.658,7.061 42.739,7.035 42.797,6.986 C 42.857,6.937 42.886,6.877 42.886,6.808 C 42.886,6.73 42.857,6.667 42.799,6.618 C 42.741,6.569 42.658,6.544 42.546,6.544 C 42.473,6.544 42.371,6.556 42.239,6.58 C 42.123,6.599 42.016,6.608 41.918,6.608 C 41.819,6.608 41.744,6.588 41.694,6.547 C 41.623,6.49 41.56,6.368 41.504,6.183 C 41.447,5.996 41.355,5.63 41.227,5.084 L 40.869,3.569 C 40.691,2.81 40.602,2.414 40.602,2.381 C 40.602,2.303 40.63,2.265 40.685,2.265 C 40.738,2.265 40.815,2.296 40.916,2.358 C 41.117,2.484 41.316,2.645 41.517,2.839 Z" fill-rule="nonzero" stroke-linejoin="round" stroke="none" stroke-width="0.231" fill="#000000" marker-start="none" marker-end="none" stroke-miterlimit="79.8403193612775"/>
          <path d="M 42.049,1.947 C 42,2 41.975,2.073 41.975,2.167 C 41.975,2.469 42.156,3.204 42.517,4.376 C 42.534,4.431 42.543,4.48 42.543,4.523 C 42.543,4.571 42.52,4.596 42.477,4.596 C 42.429,4.596 42.374,4.576 42.313,4.537 C 42.252,4.5 42.115,4.377 41.902,4.169 L 41.744,4.292 C 41.984,4.557 42.205,4.746 42.403,4.858 C 42.602,4.97 42.771,5.025 42.911,5.025 C 42.988,5.025 43.047,5.009 43.088,4.975 C 43.129,4.942 43.149,4.896 43.149,4.838 C 43.149,4.768 43.072,4.472 42.914,3.949 C 42.659,3.094 42.531,2.578 42.531,2.402 C 42.531,2.368 42.54,2.34 42.557,2.317 C 42.573,2.294 42.592,2.282 42.611,2.282 C 42.688,2.282 42.886,2.432 43.204,2.73 L 43.345,2.593 C 43.014,2.282 42.774,2.084 42.622,1.997 C 42.47,1.91 42.346,1.867 42.249,1.867 C 42.165,1.867 42.098,1.894 42.049,1.947 Z" fill-rule="nonzero" stroke-linejoin="round" stroke="none" stroke-width="0.231" fill="#000000" marker-start="none" marker-end="none" stroke-miterlimit="79.8403193612775"/>
          <path d="M 46.026,5.069 L 46.265,5.12 L 45.994,4.205 C 45.885,3.842 45.783,3.422 45.687,2.947 C 45.634,2.69 45.607,2.524 45.607,2.449 C 45.607,2.374 45.637,2.337 45.697,2.337 C 45.736,2.337 45.797,2.362 45.881,2.412 C 46.031,2.502 46.175,2.613 46.312,2.745 L 46.428,2.605 C 46.152,2.354 45.976,2.202 45.9,2.149 C 45.745,2.043 45.599,1.964 45.459,1.914 C 45.367,1.88 45.277,1.864 45.192,1.864 C 45.128,1.864 45.082,1.878 45.05,1.907 C 45.019,1.936 45.003,1.977 45.003,2.034 C 45.003,2.069 45.014,2.119 45.032,2.181 L 45.177,2.673 C 44.969,2.425 44.723,2.212 44.435,2.034 C 44.26,1.922 44.099,1.867 43.951,1.867 C 43.812,1.867 43.705,1.916 43.63,2.015 C 43.529,2.147 43.478,2.321 43.478,2.536 C 43.478,2.791 43.547,3.075 43.683,3.388 C 43.819,3.701 44.002,3.986 44.23,4.242 C 44.459,4.497 44.699,4.685 44.953,4.806 C 45.148,4.897 45.398,4.943 45.704,4.943 C 45.782,4.943 45.86,4.938 45.939,4.928 L 46.026,5.069 Z M 45.578,4.516 C 45.447,4.543 45.338,4.556 45.249,4.556 C 45.032,4.556 44.844,4.496 44.682,4.377 C 44.52,4.258 44.37,4.044 44.231,3.734 C 44.093,3.424 44.024,3.115 44.024,2.806 C 44.024,2.643 44.052,2.525 44.107,2.452 C 44.162,2.381 44.235,2.344 44.324,2.344 C 44.491,2.344 44.669,2.434 44.859,2.613 C 45.049,2.792 45.188,3.052 45.277,3.388 L 45.578,4.516 Z" fill-rule="nonzero" stroke-linejoin="round" stroke="none" stroke-width="0.231" fill="#000000" marker-start="none" marker-end="none" stroke-miterlimit="79.8403193612775"/>
          <path d="M 2.846,16.978 L 3.237,16.736 C 3.365,16.656 3.521,16.481 3.586,16.345 L 3.785,15.93 C 3.85,15.794 3.967,15.787 4.047,15.915 L 4.289,16.306 C 4.369,16.434 4.544,16.591 4.68,16.656 L 5.095,16.854 C 5.231,16.919 5.238,17.037 5.11,17.116 L 4.719,17.359 C 4.591,17.438 4.434,17.614 4.369,17.75 L 4.171,18.165 C 4.106,18.301 3.988,18.308 3.909,18.179 L 3.666,17.788 C 3.586,17.66 3.411,17.504 3.275,17.439 L 2.86,17.24 C 2.724,17.175 2.717,17.058 2.846,16.978 Z" stroke-width="0.22" stroke="#000000" stroke-linejoin="miter" fill="#eeeeee" marker-start="none" marker-end="none" stroke-miterlimit="79.8403193612775"/>
          <path d="M 42.454,5.909 L 42.645,5.79 C 42.708,5.751 42.785,5.665 42.817,5.599 L 42.914,5.395 C 42.946,5.328 43.003,5.325 43.042,5.388 L 43.161,5.58 C 43.2,5.642 43.286,5.719 43.353,5.751 L 43.556,5.848 C 43.623,5.88 43.626,5.938 43.563,5.977 L 43.372,6.096 C 43.309,6.135 43.232,6.22 43.2,6.287 L 43.103,6.491 C 43.071,6.557 43.014,6.561 42.975,6.498 L 42.856,6.306 C 42.817,6.243 42.731,6.167 42.664,6.135 L 42.461,6.037 C 42.394,6.006 42.391,5.948 42.454,5.909 Z" stroke-width="0.176" stroke="#000000" stroke-linejoin="miter" fill="#eeeeee" marker-start="none" marker-end="none" stroke-miterlimit="79.8403193612775"/>
          <path d="M 32.954,17.203 L 33.214,17.042 C 33.299,16.989 33.403,16.873 33.446,16.783 L 33.578,16.506 C 33.621,16.416 33.699,16.412 33.752,16.497 L 33.913,16.757 C 33.966,16.842 34.082,16.946 34.173,16.989 L 34.449,17.121 C 34.539,17.164 34.543,17.242 34.458,17.295 L 34.198,17.456 C 34.113,17.509 34.009,17.625 33.966,17.716 L 33.834,17.992 C 33.791,18.082 33.713,18.086 33.66,18.001 L 33.499,17.742 C 33.446,17.656 33.33,17.552 33.239,17.509 L 32.963,17.377 C 32.873,17.334 32.869,17.256 32.954,17.203 Z" stroke-width="0.146" stroke="#000000" stroke-linejoin="miter" fill="#eeeeee" marker-start="none" marker-end="none" stroke-miterlimit="79.8403193612775"/>
        </g>
      </g>
    </g>
  </g>
</svg>