<?xml version="1.0" encoding="utf-8"?>
<svg viewBox="0 0 150 37.5" stroke-width="0.501" stroke-linejoin="bevel" fill-rule="evenodd" overflow="visible" xmlns="http://www.w3.org/2000/svg">
  <g id="Document" fill="none" stroke="black" font-family="Times New Roman" font-size="16" transform="matrix(1, 0, 0, -1, 0, 0)">
    <g id="Spread" transform="translate(0 -37.5)">
      <g id="Layer 1">
        <g id="Group" stroke-linecap="round">
          <g id="Group_1">
            <path d="M 25.775,32.382 L 25.91,32.894 C 26.983,32.997 27.904,33.147 28.666,33.345 C 28.484,32.817 28.28,32.127 28.066,31.272 L 27.243,28.089 L 28.266,28.018 C 28.74,27.996 29.258,28.117 29.818,28.381 C 30.378,28.647 30.878,29.111 31.32,29.774 C 31.76,30.44 31.98,31.156 31.98,31.928 C 31.98,32.689 31.71,33.295 31.176,33.74 C 30.636,34.185 29.818,34.411 28.713,34.411 C 27.451,34.411 26.216,34.088 25.01,33.452 C 23.804,32.812 22.871,31.997 22.214,31.006 C 21.558,30.013 21.228,29.031 21.228,28.066 C 21.228,27.589 21.314,27.175 21.485,26.823 C 21.658,26.474 21.96,26.129 22.395,25.788 C 22.76,25.517 22.943,25.252 22.943,24.994 C 22.943,24.83 22.885,24.687 22.763,24.574 C 22.647,24.463 22.503,24.407 22.34,24.407 C 21.905,24.407 21.483,24.711 21.075,25.322 C 20.667,25.937 20.463,26.707 20.463,27.643 C 20.463,29.36 21.107,30.924 22.395,32.333 C 24.087,34.195 26.354,35.12 29.2,35.12 C 30.283,35.12 31.171,34.979 31.86,34.692 C 32.554,34.402 33.076,34.012 33.42,33.513 C 33.764,33.017 33.936,32.476 33.936,31.892 C 33.936,31.154 33.694,30.427 33.208,29.713 C 32.72,29.001 32.006,28.425 31.06,27.984 C 30.118,27.548 29.068,27.328 27.913,27.328 C 27.733,27.328 27.456,27.339 27.076,27.361 L 26.2,23.838 C 26.051,23.243 25.884,22.653 25.698,22.072 C 26.278,21.928 26.78,21.859 27.21,21.859 C 27.753,21.859 28.336,21.961 28.958,22.174 L 28.824,21.539 C 28.244,21.381 27.756,21.305 27.356,21.305 C 26.968,21.305 26.407,21.341 25.665,21.428 C 25.073,21.501 24.593,21.539 24.223,21.539 C 23.503,21.539 22.763,21.453 22.007,21.28 L 22.143,21.879 C 22.914,22.009 23.438,22.192 23.72,22.437 C 24.118,22.776 24.445,23.457 24.698,24.486 L 26.376,31.272 C 26.451,31.588 26.487,31.81 26.487,31.938 C 26.487,32.059 26.44,32.168 26.344,32.261 C 26.247,32.356 26.134,32.404 26,32.404 C 25.947,32.404 25.873,32.394 25.775,32.382 Z" fill-rule="nonzero" stroke-linejoin="round" stroke="none" stroke-width="0.404" fill="#000000" marker-start="none" marker-end="none" stroke-miterlimit="79.8403193612775"/>
            <path d="M 38.863,24.383 L 39.228,23.882 C 37.413,22.127 35.857,21.246 34.563,21.246 C 34.033,21.246 33.63,21.428 33.353,21.788 C 33.076,22.151 32.936,22.732 32.936,23.533 C 32.936,25.15 33.42,26.761 34.383,28.359 C 35.466,30.181 36.758,31.091 38.266,31.091 C 38.788,31.091 39.188,30.956 39.468,30.689 C 39.747,30.422 39.886,30.053 39.886,29.586 C 39.886,29.093 39.718,28.611 39.386,28.134 C 39.051,27.658 38.454,27.164 37.597,26.648 C 37.166,26.4 36.247,25.949 34.838,25.302 C 34.773,24.894 34.738,24.502 34.738,24.133 C 34.738,23.601 34.821,23.224 34.988,23.011 C 35.156,22.801 35.398,22.694 35.716,22.694 C 36.021,22.694 36.356,22.785 36.716,22.957 C 37.206,23.191 37.921,23.666 38.863,24.383 Z M 34.973,26.024 C 36.166,26.57 37.063,27.154 37.661,27.781 C 38.068,28.22 38.273,28.653 38.273,29.084 C 38.273,29.411 38.191,29.668 38.026,29.861 C 37.858,30.053 37.638,30.15 37.373,30.15 C 37.098,30.15 36.833,30.046 36.573,29.832 C 36.226,29.554 35.93,29.131 35.694,28.562 C 35.353,27.734 35.11,26.888 34.973,26.024 Z" fill-rule="nonzero" stroke-linejoin="round" stroke="none" stroke-width="0.404" fill="#000000" marker-start="none" marker-end="none" stroke-miterlimit="79.8403193612775"/>
            <path d="M 42.83,21.539 L 41.174,21.539 L 41.953,24.586 C 42.331,26.082 42.658,27.503 42.941,28.847 C 43.007,29.18 43.041,29.39 43.041,29.472 C 43.041,29.651 42.958,29.742 42.796,29.742 C 42.686,29.742 42.516,29.663 42.287,29.508 C 42.057,29.356 41.643,28.971 41.038,28.359 L 40.698,28.756 C 41.407,29.533 42.118,30.119 42.826,30.507 C 43.531,30.896 44.077,31.091 44.453,31.091 C 44.587,31.091 44.691,31.058 44.771,30.993 C 44.847,30.927 44.887,30.847 44.887,30.751 C 44.887,30.652 44.838,30.391 44.741,29.966 L 44.266,27.94 C 45.011,29.139 45.858,30.169 46.798,31.021 C 47.251,31.431 47.631,31.632 47.931,31.632 C 48.156,31.632 48.341,31.559 48.491,31.414 C 48.637,31.266 48.711,31.093 48.711,30.897 C 48.711,30.693 48.638,30.519 48.496,30.376 C 48.35,30.232 47.988,30.063 47.411,29.863 C 46.863,29.678 46.416,29.451 46.071,29.186 C 45.726,28.921 45.347,28.519 44.936,27.976 C 44.526,27.433 44.238,26.956 44.077,26.554 C 43.911,26.15 43.666,25.209 43.331,23.738 L 42.83,21.539 Z" fill-rule="nonzero" stroke-linejoin="round" stroke="none" stroke-width="0.404" fill="#000000" marker-start="none" marker-end="none" stroke-miterlimit="79.8403193612775"/>
            <path d="M 52.224,24.271 L 52.604,23.862 C 52.024,23.198 51.337,22.591 50.551,22.045 C 49.761,21.495 49.111,21.223 48.601,21.223 C 48.371,21.223 48.183,21.313 48.034,21.49 C 47.886,21.668 47.811,21.911 47.811,22.217 C 47.811,22.824 48.038,24.076 48.498,25.978 L 49.701,30.952 C 50.138,32.751 50.504,33.955 50.8,34.566 C 51.261,35.497 51.911,36.216 52.756,36.734 C 53.594,37.244 54.481,37.5 55.416,37.5 C 55.734,37.5 55.984,37.424 56.166,37.269 C 56.348,37.116 56.44,36.928 56.44,36.708 C 56.44,36.467 56.348,36.27 56.171,36.113 C 55.993,35.959 55.734,35.883 55.393,35.883 C 55.171,35.883 54.856,35.919 54.448,35.996 C 54.093,36.057 53.764,36.086 53.458,36.086 C 53.156,36.086 52.924,36.02 52.77,35.893 C 52.553,35.713 52.36,35.328 52.184,34.75 C 52.013,34.165 51.728,33.017 51.336,31.303 L 50.236,26.557 C 49.687,24.18 49.411,22.937 49.411,22.832 C 49.411,22.59 49.497,22.468 49.667,22.468 C 49.83,22.468 50.067,22.568 50.378,22.763 C 50.991,23.155 51.608,23.657 52.224,24.271 Z" fill-rule="nonzero" stroke-linejoin="round" stroke="none" stroke-width="0.404" fill="#000000" marker-start="none" marker-end="none" stroke-miterlimit="79.8403193612775"/>
            <path d="M 58.886,24.383 L 59.253,23.882 C 57.436,22.127 55.88,21.246 54.584,21.246 C 54.056,21.246 53.654,21.428 53.376,21.788 C 53.098,22.151 52.96,22.732 52.96,23.533 C 52.96,25.15 53.444,26.761 54.404,28.359 C 55.486,30.181 56.78,31.091 58.286,31.091 C 58.811,31.091 59.211,30.956 59.491,30.689 C 59.769,30.422 59.906,30.053 59.906,29.586 C 59.906,29.093 59.739,28.611 59.406,28.134 C 59.071,27.658 58.477,27.164 57.62,26.648 C 57.188,26.4 56.27,25.949 54.86,25.302 C 54.794,24.894 54.76,24.502 54.76,24.133 C 54.76,23.601 54.844,23.224 55.01,23.011 C 55.176,22.801 55.42,22.694 55.738,22.694 C 56.044,22.694 56.377,22.785 56.74,22.957 C 57.228,23.191 57.944,23.666 58.886,24.383 Z M 54.994,26.024 C 56.188,26.57 57.086,27.154 57.684,27.781 C 58.09,28.22 58.296,28.653 58.296,29.084 C 58.296,29.411 58.213,29.668 58.046,29.861 C 57.88,30.053 57.664,30.15 57.396,30.15 C 57.121,30.15 56.856,30.046 56.597,29.832 C 56.246,29.554 55.953,29.131 55.716,28.562 C 55.376,27.734 55.134,26.888 54.994,26.024 Z" fill-rule="nonzero" stroke-linejoin="round" stroke="none" stroke-width="0.404" fill="#000000" marker-start="none" marker-end="none" stroke-miterlimit="79.8403193612775"/>
            <path d="M 74.36,23.882 L 74.671,23.452 C 73.676,22.601 72.94,22.037 72.457,21.756 C 71.791,21.371 71.266,21.176 70.879,21.176 C 70.701,21.176 70.556,21.229 70.446,21.33 C 70.336,21.433 70.279,21.546 70.279,21.678 C 70.279,21.804 70.319,22.015 70.403,22.314 L 70.791,23.693 C 69.903,22.719 69.16,22.058 68.569,21.71 C 67.976,21.362 67.44,21.191 66.967,21.191 C 66.571,21.191 66.241,21.367 65.977,21.717 C 65.71,22.068 65.579,22.581 65.579,23.263 C 65.579,24.333 65.939,25.566 66.66,26.961 C 67.386,28.355 68.187,29.385 69.073,30.053 C 69.96,30.722 70.769,31.057 71.503,31.057 C 71.666,31.057 71.907,31.029 72.237,30.975 C 72.584,32.447 72.916,33.524 73.236,34.198 C 73.556,34.874 73.967,35.457 74.471,35.949 C 74.971,36.441 75.549,36.819 76.199,37.088 C 76.844,37.354 77.453,37.489 78.014,37.489 C 78.311,37.489 78.549,37.413 78.729,37.25 C 78.904,37.092 78.993,36.892 78.993,36.652 C 78.993,36.419 78.911,36.226 78.744,36.079 C 78.584,35.934 78.363,35.857 78.084,35.857 C 77.896,35.857 77.553,35.897 77.049,35.972 C 76.544,36.047 76.199,36.086 76.014,36.086 C 75.757,36.086 75.529,36.004 75.331,35.845 C 75.136,35.678 74.949,35.328 74.769,34.795 C 74.651,34.452 74.38,33.37 73.959,31.544 L 72.381,24.699 C 72.196,23.892 72.1,23.357 72.1,23.092 C 72.1,22.803 72.209,22.662 72.424,22.662 C 72.559,22.662 72.716,22.711 72.891,22.809 C 73.143,22.95 73.631,23.309 74.36,23.882 Z M 72.003,29.73 C 71.411,29.863 70.989,29.935 70.747,29.935 C 70.249,29.935 69.763,29.733 69.289,29.341 C 68.816,28.943 68.359,28.175 67.917,27.034 C 67.476,25.894 67.256,24.902 67.256,24.054 C 67.256,23.669 67.357,23.355 67.56,23.109 C 67.766,22.863 67.996,22.742 68.256,22.742 C 68.569,22.742 68.923,22.878 69.321,23.161 C 69.891,23.575 70.347,24.08 70.679,24.677 C 70.879,25.056 71.151,25.978 71.491,27.453 L 72.003,29.73 Z" fill-rule="nonzero" stroke-linejoin="round" stroke="none" stroke-width="0.404" fill="#000000" marker-start="none" marker-end="none" stroke-miterlimit="79.8403193612775"/>
            <path d="M 76.623,21.474 C 76.469,21.638 76.393,21.867 76.393,22.166 C 76.393,23.109 76.949,25.415 78.061,29.084 C 78.111,29.258 78.137,29.414 78.137,29.549 C 78.137,29.698 78.071,29.774 77.939,29.774 C 77.789,29.774 77.621,29.713 77.431,29.595 C 77.244,29.473 76.824,29.088 76.169,28.437 L 75.683,28.823 C 76.421,29.656 77.099,30.245 77.709,30.596 C 78.321,30.947 78.843,31.124 79.271,31.124 C 79.509,31.124 79.689,31.07 79.817,30.968 C 79.941,30.86 80.007,30.717 80.007,30.534 C 80.007,30.314 79.767,29.39 79.283,27.748 C 78.497,25.066 78.104,23.452 78.104,22.899 C 78.104,22.793 78.131,22.704 78.181,22.632 C 78.233,22.56 78.289,22.525 78.349,22.525 C 78.584,22.525 79.193,22.993 80.173,23.931 L 80.607,23.498 C 79.591,22.525 78.849,21.902 78.383,21.633 C 77.916,21.359 77.534,21.223 77.237,21.223 C 76.977,21.223 76.773,21.305 76.623,21.474 Z" fill-rule="nonzero" stroke-linejoin="round" stroke="none" stroke-width="0.404" fill="#000000" marker-start="none" marker-end="none" stroke-miterlimit="79.8403193612775"/>
            <path d="M 95.78,30.727 L 95.204,30.727 C 95.284,31.521 95.326,32.12 95.326,32.527 C 95.326,33.11 95.174,33.57 94.864,33.903 C 94.556,34.239 94.139,34.411 93.612,34.411 C 92.799,34.411 92.089,34.108 91.479,33.509 C 90.87,32.906 90.569,32.233 90.569,31.487 C 90.569,31.086 90.651,30.724 90.819,30.399 C 90.986,30.073 91.354,29.622 91.924,29.042 C 92.969,27.996 93.654,27.179 93.979,26.593 C 94.307,26.002 94.47,25.429 94.47,24.871 C 94.47,24.046 94.222,23.252 93.732,22.494 C 93.239,21.731 92.512,21.101 91.552,20.604 C 90.591,20.111 89.58,19.866 88.511,19.866 C 87.459,19.866 86.571,20.145 85.849,20.702 C 85.126,21.259 84.766,21.85 84.766,22.468 C 84.766,22.801 84.861,23.079 85.047,23.295 C 85.239,23.514 85.451,23.623 85.699,23.623 C 85.951,23.623 86.159,23.523 86.321,23.319 C 86.424,23.198 86.529,22.926 86.634,22.501 C 86.751,21.989 86.896,21.618 87.064,21.387 C 87.239,21.156 87.47,20.969 87.774,20.819 C 88.071,20.674 88.401,20.599 88.756,20.599 C 89.814,20.599 90.741,20.965 91.534,21.695 C 92.329,22.423 92.724,23.227 92.724,24.108 C 92.724,24.414 92.672,24.712 92.572,25.013 C 92.474,25.31 92.29,25.648 92.023,26.024 C 91.839,26.283 91.429,26.736 90.789,27.384 C 90.161,28.018 89.761,28.452 89.601,28.688 C 89.371,29.028 89.2,29.37 89.09,29.713 C 88.979,30.058 88.921,30.399 88.921,30.739 C 88.921,31.426 89.15,32.117 89.601,32.812 C 90.054,33.506 90.641,34.059 91.361,34.472 C 92.084,34.883 92.907,35.088 93.824,35.088 C 94.284,35.088 94.852,35.017 95.524,34.874 C 95.912,34.8 96.246,34.741 96.527,34.705 C 96.364,34.213 96.236,33.75 96.149,33.316 C 96.059,32.881 95.939,32.018 95.78,30.727 Z" fill-rule="nonzero" stroke-linejoin="round" stroke="none" stroke-width="0.404" fill="#000000" marker-start="none" marker-end="none" stroke-miterlimit="79.8403193612775"/>
            <path d="M 99.863,32.812 L 101.629,33.504 L 100.829,30.333 L 103.133,30.333 L 102.952,29.528 L 100.652,29.528 L 99.673,25.732 C 99.369,24.589 99.219,23.797 99.219,23.35 C 99.219,23.15 99.259,23.001 99.344,22.911 C 99.429,22.817 99.546,22.776 99.694,22.776 C 99.924,22.776 100.274,22.914 100.75,23.193 C 101.372,23.565 101.966,23.982 102.529,24.452 L 102.952,23.931 C 101.33,22.684 100.244,21.92 99.694,21.642 C 99.146,21.362 98.704,21.223 98.372,21.223 C 98.096,21.223 97.882,21.326 97.72,21.531 C 97.562,21.731 97.482,22.068 97.482,22.525 C 97.482,23.07 97.622,23.9 97.904,25.017 L 99.052,29.528 L 97.249,29.528 L 97.447,30.333 L 99.239,30.333 L 99.863,32.812 Z" fill-rule="nonzero" stroke-linejoin="round" stroke="none" stroke-width="0.404" fill="#000000" marker-start="none" marker-end="none" stroke-miterlimit="79.8403193612775"/>
            <path d="M 109.854,24.383 L 110.223,23.882 C 108.407,22.127 106.849,21.246 105.554,21.246 C 105.029,21.246 104.624,21.428 104.347,21.788 C 104.067,22.151 103.933,22.732 103.933,23.533 C 103.933,25.15 104.413,26.761 105.374,28.359 C 106.454,30.181 107.75,31.091 109.254,31.091 C 109.782,31.091 110.183,30.956 110.462,30.689 C 110.739,30.422 110.879,30.053 110.879,29.586 C 110.879,29.093 110.712,28.611 110.377,28.134 C 110.043,27.658 109.447,27.164 108.587,26.648 C 108.157,26.4 107.242,25.949 105.83,25.302 C 105.764,24.894 105.733,24.502 105.733,24.133 C 105.733,23.601 105.814,23.224 105.982,23.011 C 106.149,22.801 106.39,22.694 106.709,22.694 C 107.013,22.694 107.347,22.785 107.709,22.957 C 108.197,23.191 108.913,23.666 109.854,24.383 Z M 105.963,26.024 C 107.157,26.57 108.053,27.154 108.654,27.781 C 109.062,28.22 109.267,28.653 109.267,29.084 C 109.267,29.411 109.183,29.668 109.017,29.861 C 108.852,30.053 108.633,30.15 108.366,30.15 C 108.092,30.15 107.826,30.046 107.564,29.832 C 107.217,29.554 106.924,29.131 106.689,28.562 C 106.344,27.734 106.104,26.888 105.963,26.024 Z" fill-rule="nonzero" stroke-linejoin="round" stroke="none" stroke-width="0.404" fill="#000000" marker-start="none" marker-end="none" stroke-miterlimit="79.8403193612775"/>
            <path d="M 116.392,24.271 L 116.77,23.862 C 116.192,23.198 115.507,22.591 114.719,22.045 C 113.93,21.495 113.279,21.223 112.767,21.223 C 112.539,21.223 112.349,21.313 112.202,21.49 C 112.052,21.668 111.977,21.911 111.977,22.217 C 111.977,22.824 112.207,24.076 112.667,25.978 L 113.87,30.952 C 114.306,32.751 114.672,33.955 114.967,34.566 C 115.427,35.497 116.077,36.216 116.92,36.734 C 117.762,37.244 118.649,37.5 119.582,37.5 C 119.902,37.5 120.15,37.424 120.332,37.269 C 120.516,37.116 120.604,36.928 120.604,36.708 C 120.604,36.467 120.516,36.27 120.337,36.113 C 120.16,35.959 119.902,35.883 119.562,35.883 C 119.34,35.883 119.022,35.919 118.616,35.996 C 118.26,36.057 117.93,36.086 117.624,36.086 C 117.322,36.086 117.092,36.02 116.937,35.893 C 116.722,35.713 116.527,35.328 116.352,34.75 C 116.177,34.165 115.893,33.017 115.502,31.303 L 114.402,26.557 C 113.854,24.18 113.579,22.937 113.579,22.832 C 113.579,22.59 113.663,22.468 113.834,22.468 C 113.997,22.468 114.234,22.568 114.544,22.763 C 115.162,23.155 115.774,23.657 116.392,24.271 Z" fill-rule="nonzero" stroke-linejoin="round" stroke="none" stroke-width="0.404" fill="#000000" marker-start="none" marker-end="none" stroke-miterlimit="79.8403193612775"/>
            <path d="M 121.85,24.271 L 122.227,23.862 C 121.65,23.198 120.966,22.591 120.177,22.045 C 119.389,21.495 118.74,21.223 118.227,21.223 C 118,21.223 117.809,21.313 117.66,21.49 C 117.512,21.668 117.44,21.911 117.44,22.217 C 117.44,22.824 117.667,24.076 118.126,25.978 L 119.329,30.952 C 119.764,32.751 120.132,33.955 120.427,34.566 C 120.889,35.497 121.537,36.216 122.38,36.734 C 123.22,37.244 124.107,37.5 125.04,37.5 C 125.362,37.5 125.609,37.424 125.79,37.269 C 125.975,37.116 126.066,36.928 126.066,36.708 C 126.066,36.467 125.975,36.27 125.796,36.113 C 125.617,35.959 125.362,35.883 125.02,35.883 C 124.796,35.883 124.482,35.919 124.074,35.996 C 123.72,36.057 123.389,36.086 123.084,36.086 C 122.784,36.086 122.55,36.02 122.396,35.893 C 122.182,35.713 121.987,35.328 121.812,34.75 C 121.637,34.165 121.354,33.017 120.962,31.303 L 119.862,26.557 C 119.316,24.18 119.04,22.937 119.04,22.832 C 119.04,22.59 119.124,22.468 119.294,22.468 C 119.46,22.468 119.694,22.568 120.006,22.763 C 120.62,23.155 121.237,23.657 121.85,24.271 Z" fill-rule="nonzero" stroke-linejoin="round" stroke="none" stroke-width="0.404" fill="#000000" marker-start="none" marker-end="none" stroke-miterlimit="79.8403193612775"/>
            <path d="M 128.513,24.383 L 128.877,23.882 C 127.062,22.127 125.506,21.246 124.21,21.246 C 123.684,21.246 123.28,21.428 123.004,21.788 C 122.724,22.151 122.586,22.732 122.586,23.533 C 122.586,25.15 123.069,26.761 124.03,28.359 C 125.113,30.181 126.406,31.091 127.912,31.091 C 128.437,31.091 128.837,30.956 129.117,30.689 C 129.397,30.422 129.535,30.053 129.535,29.586 C 129.535,29.093 129.365,28.611 129.033,28.134 C 128.697,27.658 128.102,27.164 127.245,26.648 C 126.813,26.4 125.896,25.949 124.486,25.302 C 124.422,24.894 124.387,24.502 124.387,24.133 C 124.387,23.601 124.47,23.224 124.637,23.011 C 124.805,22.801 125.046,22.694 125.365,22.694 C 125.67,22.694 126.002,22.785 126.366,22.957 C 126.857,23.191 127.57,23.666 128.513,24.383 Z M 124.622,26.024 C 125.815,26.57 126.712,27.154 127.312,27.781 C 127.717,28.22 127.922,28.653 127.922,29.084 C 127.922,29.411 127.84,29.668 127.672,29.861 C 127.505,30.053 127.289,30.15 127.022,30.15 C 126.747,30.15 126.482,30.046 126.222,29.832 C 125.875,29.554 125.582,29.131 125.342,28.562 C 125.002,27.734 124.76,26.888 124.622,26.024 Z" fill-rule="nonzero" stroke-linejoin="round" stroke="none" stroke-width="0.404" fill="#000000" marker-start="none" marker-end="none" stroke-miterlimit="79.8403193612775"/>
            <path d="M 25.296,33.119 L 25.983,32.684 C 26.209,32.542 26.484,32.228 26.599,31.985 L 26.947,31.241 C 27.061,30.997 27.268,30.986 27.407,31.215 L 27.834,31.915 C 27.973,32.145 28.281,32.426 28.52,32.542 L 29.25,32.897 C 29.489,33.014 29.501,33.224 29.276,33.366 L 28.589,33.801 C 28.363,33.943 28.088,34.257 27.974,34.5 L 27.625,35.244 C 27.511,35.488 27.304,35.499 27.165,35.27 L 26.738,34.57 C 26.598,34.34 26.291,34.059 26.052,33.943 L 25.322,33.588 C 25.082,33.471 25.071,33.261 25.296,33.119 Z" stroke-width="0.384" stroke="#000000" stroke-linejoin="miter" fill="#eeeeee" marker-start="none" marker-end="none" stroke-miterlimit="79.8403193612775"/>
            <path d="M 78.21,33.521 L 78.667,33.232 C 78.816,33.138 78.999,32.93 79.075,32.768 L 79.307,32.273 C 79.383,32.111 79.52,32.104 79.612,32.256 L 79.896,32.721 C 79.989,32.874 80.193,33.06 80.352,33.138 L 80.837,33.374 C 80.996,33.451 81.003,33.591 80.854,33.685 L 80.397,33.974 C 80.248,34.069 80.065,34.277 79.989,34.439 L 79.757,34.933 C 79.681,35.095 79.544,35.103 79.452,34.95 L 79.168,34.485 C 79.075,34.333 78.871,34.146 78.712,34.069 L 78.227,33.833 C 78.068,33.755 78.061,33.616 78.21,33.521 Z" stroke-width="0.256" stroke="#000000" stroke-linejoin="miter" fill="#eeeeee" marker-start="none" marker-end="none" stroke-miterlimit="79.8403193612775"/>
          </g>
          <path d="M 7.009,23.766 L 7.696,23.331 C 7.922,23.189 8.197,22.875 8.312,22.632 L 8.66,21.888 C 8.774,21.644 8.981,21.633 9.12,21.862 L 9.547,22.562 C 9.686,22.792 9.994,23.073 10.233,23.189 L 10.963,23.544 C 11.202,23.661 11.214,23.871 10.989,24.013 L 10.302,24.448 C 10.076,24.59 9.801,24.904 9.687,25.147 L 9.338,25.891 C 9.224,26.135 9.017,26.146 8.878,25.917 L 8.451,25.217 C 8.311,24.987 8.004,24.707 7.765,24.59 L 7.035,24.235 C 6.795,24.118 6.784,23.908 7.009,23.766 Z" stroke-width="0.384" stroke="#000000" stroke-linejoin="miter" fill="#eeeeee" marker-start="none" marker-end="none" stroke-miterlimit="79.8403193612775"/>
          <text transform="translate(73.893 3.406) scale(1 -1) scale(0.983917 1)" font-style="italic" font-size="13.311" font-family="Monotype Corsiva" stroke-linejoin="round" stroke="none" stroke-width="0.409" fill="#000000" stroke-miterlimit="79.8403193612775" style="white-space: pre;"><tspan x="-76.6517723395676" y="0">by MOMYLIA  di Rizzo Emilia</tspan></text>
          <path d="M 136.008,32.96 L 136.695,32.525 C 136.921,32.383 137.196,32.07 137.311,31.826 L 137.659,31.082 C 137.773,30.838 137.98,30.827 138.119,31.056 L 138.546,31.756 C 138.685,31.986 138.993,32.267 139.232,32.383 L 139.962,32.738 C 140.201,32.855 140.213,33.065 139.988,33.207 L 139.301,33.642 C 139.075,33.784 138.8,34.098 138.686,34.341 L 138.337,35.085 C 138.223,35.329 138.016,35.341 137.877,35.111 L 137.45,34.411 C 137.31,34.181 137.003,33.901 136.764,33.784 L 136.034,33.429 C 135.794,33.313 135.783,33.102 136.008,32.96 Z" stroke-width="0.384" stroke="#000000" stroke-linejoin="miter" fill="#eeeeee" marker-start="none" marker-end="none" stroke-miterlimit="79.8403193612775"/>
        </g>
      </g>
    </g>
  </g>
</svg>