<?xml version="1.0" standalone="no"?>
<!DOCTYPE svg PUBLIC "-//W3C//DTD SVG 1.1//EN" "http://www.w3.org/Graphics/SVG/1.1/DTD/svg11.dtd">
<!--Generator: Xara Designer (www.xara.com), SVG filter version: 5.0.0.2-->
<svg stroke-width="0.501" stroke-linejoin="bevel" fill-rule="evenodd" xmlns:xlink="http://www.w3.org/1999/xlink" xmlns="http://www.w3.org/2000/svg" version="1.1" overflow="visible" width="150pt" height="37.5pt" viewBox="0 0 150 37.5">
 <defs>
  <marker id="DefaultArrow2" markerUnits="strokeWidth" viewBox="0 0 1 1" markerWidth="1" markerHeight="1" overflow="visible" orient="auto">
   <!-- REF_ARROW_STRAIGHT (-2) -->
   <g transform="scale(0.0092592592)">
    <!-- 1/108 -->
    <path d="M -9 54 L -9 -54 L 117 0 z"/>
   </g>
  </marker>
  <marker id="DefaultArrow3" markerUnits="strokeWidth" viewBox="0 0 1 1" markerWidth="1" markerHeight="1" overflow="visible" orient="auto">
   <!-- REF_ARROW_ANGLED -->
   <g transform="scale(0.0092592592)">
    <path d="M -27 54 L -9 0 L -27 -54 L 135 0 z"/>
   </g>
  </marker>
  <marker id="DefaultArrow4" markerUnits="strokeWidth" viewBox="0 0 1 1" markerWidth="1" markerHeight="1" overflow="visible" orient="auto">
   <!-- REF_ARROW_ROUNDED -->
   <g transform="scale(0.0092592592)">
    <path d="M -9,0 L -9,-45 C -9,-51.708 2.808,-56.580 9,-54 L 117,-9 C 120.916,-7.369 126.000,-4.242 126,0 C 126,4.242 120.916,7.369 117,9 L 9,54 C 2.808,56.580 -9,51.708 -9,45 z"/>
   </g>
  </marker>
  <marker id="DefaultArrow5" markerUnits="strokeWidth" viewBox="0 0 1 1" markerWidth="1" markerHeight="1" overflow="visible" orient="auto">
   <!-- REF_ARROW_SPOT -->
   <g transform="scale(0.0092592592)">
    <path d="M -54, 0 C -54,29.807 -29.807,54 0,54 C 29.807,54 54,29.807 54,0 C 54,-29.807 29.807,-54 0,-54 C -29.807,-54 -54,-29.807 -54,0 z"/>
   </g>
  </marker>
  <marker id="DefaultArrow6" markerUnits="strokeWidth" viewBox="0 0 1 1" markerWidth="1" markerHeight="1" overflow="visible" orient="auto">
   <!-- REF_ARROW_DIAMOND -->
   <g transform="scale(0.0092592592)">
    <path d="M -63,0 L 0,63 L 63,0 L 0,-63 z"/>
   </g>
  </marker>
  <marker id="DefaultArrow7" markerUnits="strokeWidth" viewBox="0 0 1 1" markerWidth="1" markerHeight="1" overflow="visible" orient="auto">
   <!-- REF_ARROW_FEATHER -->
   <g transform="scale(0.0092592592)">
    <path d="M 18,-54 L 108,-54 L 63,0 L 108,54 L 18, 54 L -36,0 z"/>
   </g>
  </marker>
  <marker id="DefaultArrow8" markerUnits="strokeWidth" viewBox="0 0 1 1" markerWidth="1" markerHeight="1" overflow="visible" orient="auto">
   <!-- REF_ARROW_FEATHER2 -->
   <g transform="scale(0.0092592592)">
    <path d="M -36,0 L 18,-54 L 54,-54 L 18,-18 L 27,-18 L 63,-54 L 99,-54 L 63,-18 L 72,-18 L 108,-54 L 144,-54 L 90,0 L 144,54 L 108,54 L 72,18 L 63,18 L 99,54 L 63,54 L 27,18 L 18,18 L 54,54 L 18,54 z"/>
   </g>
  </marker>
  <marker id="DefaultArrow9" markerUnits="strokeWidth" viewBox="0 0 1 1" markerWidth="1" markerHeight="1" overflow="visible" orient="auto">
   <!-- REF_ARROW_HOLLOWDIAMOND -->
   <g transform="scale(0.0092592592)">
    <path d="M 0,45 L -45,0 L 0, -45 L 45, 0 z M 0, 63 L-63, 0 L 0, -63 L 63, 0 z"/>
   </g>
  </marker>
  <filter id="StainedFilter">
   <feBlend mode="multiply" in2="BackgroundImage" in="SourceGraphic" result="blend"/>
   <feComposite in="blend" in2="SourceAlpha" operator="in" result="comp"/>
  </filter>
  <filter id="BleachFilter">
   <feBlend mode="screen" in2="BackgroundImage" in="SourceGraphic" result="blend"/>
   <feComposite in="blend" in2="SourceAlpha" operator="in" result="comp"/>
  </filter>
  <filter id="InvertTransparencyBitmapFilter">
   <feComponentTransfer>
    <feFuncR type="gamma" amplitude="1.055" exponent=".416666666" offset="-0.055"/>
    <feFuncG type="gamma" amplitude="1.055" exponent=".416666666" offset="-0.055"/>
    <feFuncB type="gamma" amplitude="1.055" exponent=".416666666" offset="-0.055"/>
   </feComponentTransfer>
   <feComponentTransfer>
    <feFuncR type="linear" slope="-1" intercept="1"/>
    <feFuncG type="linear" slope="-1" intercept="1"/>
    <feFuncB type="linear" slope="-1" intercept="1"/>
    <feFuncA type="linear" slope="1" intercept="0"/>
   </feComponentTransfer>
   <feComponentTransfer>
    <feFuncR type="gamma" amplitude="1" exponent="2.4" offset="0"/>
    <feFuncG type="gamma" amplitude="1" exponent="2.4" offset="0"/>
    <feFuncB type="gamma" amplitude="1" exponent="2.4" offset="0"/>
   </feComponentTransfer>
  </filter>
 </defs>
 <g id="Document" fill="none" stroke="black" font-family="Times New Roman" font-size="16" transform="scale(1 -1)">
  <g id="Spread" transform="translate(0 -37.5)">
   <g id="Layer 1">
    <g id="Group" stroke-linecap="round">
     <g id="Group_1">
      <path d="M 25.776,32.382 L 25.911,32.894 C 26.984,32.997 27.905,33.147 28.667,33.345 C 28.485,32.817 28.281,32.127 28.067,31.272 L 27.244,28.089 L 28.267,28.018 C 28.741,27.996 29.259,28.117 29.819,28.381 C 30.379,28.647 30.879,29.111 31.321,29.774 C 31.761,30.44 31.981,31.156 31.981,31.928 C 31.981,32.689 31.711,33.295 31.177,33.74 C 30.637,34.185 29.819,34.411 28.714,34.411 C 27.452,34.411 26.217,34.088 25.011,33.452 C 23.805,32.812 22.872,31.997 22.215,31.006 C 21.559,30.013 21.229,29.031 21.229,28.066 C 21.229,27.589 21.315,27.175 21.486,26.823 C 21.659,26.474 21.961,26.129 22.396,25.788 C 22.761,25.517 22.944,25.252 22.944,24.994 C 22.944,24.83 22.886,24.687 22.764,24.574 C 22.648,24.463 22.504,24.407 22.341,24.407 C 21.906,24.407 21.484,24.711 21.076,25.322 C 20.668,25.937 20.464,26.707 20.464,27.643 C 20.464,29.36 21.108,30.924 22.396,32.333 C 24.088,34.195 26.355,35.12 29.201,35.12 C 30.284,35.12 31.172,34.979 31.861,34.692 C 32.555,34.402 33.077,34.012 33.421,33.513 C 33.765,33.017 33.937,32.476 33.937,31.892 C 33.937,31.154 33.695,30.427 33.209,29.713 C 32.721,29.001 32.007,28.425 31.061,27.984 C 30.119,27.548 29.069,27.328 27.914,27.328 C 27.734,27.328 27.457,27.339 27.077,27.361 L 26.201,23.838 C 26.052,23.243 25.885,22.653 25.699,22.072 C 26.279,21.928 26.781,21.859 27.211,21.859 C 27.754,21.859 28.337,21.961 28.959,22.174 L 28.825,21.539 C 28.245,21.381 27.757,21.305 27.357,21.305 C 26.969,21.305 26.408,21.341 25.666,21.428 C 25.074,21.501 24.594,21.539 24.224,21.539 C 23.504,21.539 22.764,21.453 22.008,21.28 L 22.144,21.879 C 22.915,22.009 23.439,22.192 23.721,22.437 C 24.119,22.776 24.446,23.457 24.699,24.486 L 26.377,31.272 C 26.452,31.588 26.488,31.81 26.488,31.938 C 26.488,32.059 26.441,32.168 26.345,32.261 C 26.248,32.356 26.135,32.404 26.001,32.404 C 25.948,32.404 25.874,32.394 25.776,32.382 Z" fill-rule="nonzero" stroke-linejoin="round" stroke="none" stroke-width="0.404" fill="#000000" marker-start="none" marker-end="none" stroke-miterlimit="79.8403193612775"/>
      <path d="M 38.864,24.383 L 39.229,23.882 C 37.414,22.127 35.858,21.246 34.564,21.246 C 34.034,21.246 33.631,21.428 33.354,21.788 C 33.077,22.151 32.937,22.732 32.937,23.533 C 32.937,25.15 33.421,26.761 34.384,28.359 C 35.467,30.181 36.759,31.091 38.267,31.091 C 38.789,31.091 39.189,30.956 39.469,30.689 C 39.748,30.422 39.887,30.053 39.887,29.586 C 39.887,29.093 39.719,28.611 39.387,28.134 C 39.052,27.658 38.455,27.164 37.598,26.648 C 37.167,26.4 36.248,25.949 34.839,25.302 C 34.774,24.894 34.739,24.502 34.739,24.133 C 34.739,23.601 34.822,23.224 34.989,23.011 C 35.157,22.801 35.399,22.694 35.717,22.694 C 36.022,22.694 36.357,22.785 36.717,22.957 C 37.207,23.191 37.922,23.666 38.864,24.383 Z M 34.974,26.024 C 36.167,26.57 37.064,27.154 37.662,27.781 C 38.069,28.22 38.274,28.653 38.274,29.084 C 38.274,29.411 38.192,29.668 38.027,29.861 C 37.859,30.053 37.639,30.15 37.374,30.15 C 37.099,30.15 36.834,30.046 36.574,29.832 C 36.227,29.554 35.931,29.131 35.695,28.562 C 35.354,27.734 35.111,26.888 34.974,26.024 Z" fill-rule="nonzero" stroke-linejoin="round" stroke="none" stroke-width="0.404" fill="#000000" marker-start="none" marker-end="none" stroke-miterlimit="79.8403193612775"/>
      <path d="M 42.831,21.539 L 41.175,21.539 L 41.954,24.586 C 42.332,26.082 42.659,27.503 42.942,28.847 C 43.008,29.18 43.042,29.39 43.042,29.472 C 43.042,29.651 42.959,29.742 42.797,29.742 C 42.687,29.742 42.517,29.663 42.288,29.508 C 42.058,29.356 41.644,28.971 41.039,28.359 L 40.699,28.756 C 41.408,29.533 42.119,30.119 42.827,30.507 C 43.532,30.896 44.078,31.091 44.454,31.091 C 44.588,31.091 44.692,31.058 44.772,30.993 C 44.848,30.927 44.888,30.847 44.888,30.751 C 44.888,30.652 44.839,30.391 44.742,29.966 L 44.267,27.94 C 45.012,29.139 45.859,30.169 46.799,31.021 C 47.252,31.431 47.632,31.632 47.932,31.632 C 48.157,31.632 48.342,31.559 48.492,31.414 C 48.638,31.266 48.712,31.093 48.712,30.897 C 48.712,30.693 48.639,30.519 48.497,30.376 C 48.351,30.232 47.989,30.063 47.412,29.863 C 46.864,29.678 46.417,29.451 46.072,29.186 C 45.727,28.921 45.348,28.519 44.937,27.976 C 44.527,27.433 44.239,26.956 44.078,26.554 C 43.912,26.15 43.667,25.209 43.332,23.738 L 42.831,21.539 Z" fill-rule="nonzero" stroke-linejoin="round" stroke="none" stroke-width="0.404" fill="#000000" marker-start="none" marker-end="none" stroke-miterlimit="79.8403193612775"/>
      <path d="M 52.225,24.271 L 52.605,23.862 C 52.025,23.198 51.338,22.591 50.552,22.045 C 49.762,21.495 49.112,21.223 48.602,21.223 C 48.372,21.223 48.184,21.313 48.035,21.49 C 47.887,21.668 47.812,21.911 47.812,22.217 C 47.812,22.824 48.039,24.076 48.499,25.978 L 49.702,30.952 C 50.139,32.751 50.505,33.955 50.801,34.566 C 51.262,35.497 51.912,36.216 52.757,36.734 C 53.595,37.244 54.482,37.5 55.417,37.5 C 55.735,37.5 55.985,37.424 56.167,37.269 C 56.349,37.116 56.441,36.928 56.441,36.708 C 56.441,36.467 56.349,36.27 56.172,36.113 C 55.994,35.959 55.735,35.883 55.394,35.883 C 55.172,35.883 54.857,35.919 54.449,35.996 C 54.094,36.057 53.765,36.086 53.459,36.086 C 53.157,36.086 52.925,36.02 52.771,35.893 C 52.554,35.713 52.361,35.328 52.185,34.75 C 52.014,34.165 51.729,33.017 51.337,31.303 L 50.237,26.557 C 49.688,24.18 49.412,22.937 49.412,22.832 C 49.412,22.59 49.498,22.468 49.668,22.468 C 49.831,22.468 50.068,22.568 50.379,22.763 C 50.992,23.155 51.609,23.657 52.225,24.271 Z" fill-rule="nonzero" stroke-linejoin="round" stroke="none" stroke-width="0.404" fill="#000000" marker-start="none" marker-end="none" stroke-miterlimit="79.8403193612775"/>
      <path d="M 58.887,24.383 L 59.254,23.882 C 57.437,22.127 55.881,21.246 54.585,21.246 C 54.057,21.246 53.655,21.428 53.377,21.788 C 53.099,22.151 52.961,22.732 52.961,23.533 C 52.961,25.15 53.445,26.761 54.405,28.359 C 55.487,30.181 56.781,31.091 58.287,31.091 C 58.812,31.091 59.212,30.956 59.492,30.689 C 59.77,30.422 59.907,30.053 59.907,29.586 C 59.907,29.093 59.74,28.611 59.407,28.134 C 59.072,27.658 58.478,27.164 57.621,26.648 C 57.189,26.4 56.271,25.949 54.861,25.302 C 54.795,24.894 54.761,24.502 54.761,24.133 C 54.761,23.601 54.845,23.224 55.011,23.011 C 55.177,22.801 55.421,22.694 55.739,22.694 C 56.045,22.694 56.378,22.785 56.741,22.957 C 57.229,23.191 57.945,23.666 58.887,24.383 Z M 54.995,26.024 C 56.189,26.57 57.087,27.154 57.685,27.781 C 58.091,28.22 58.297,28.653 58.297,29.084 C 58.297,29.411 58.214,29.668 58.047,29.861 C 57.881,30.053 57.665,30.15 57.397,30.15 C 57.122,30.15 56.857,30.046 56.598,29.832 C 56.247,29.554 55.954,29.131 55.717,28.562 C 55.377,27.734 55.135,26.888 54.995,26.024 Z" fill-rule="nonzero" stroke-linejoin="round" stroke="none" stroke-width="0.404" fill="#000000" marker-start="none" marker-end="none" stroke-miterlimit="79.8403193612775"/>
      <path d="M 74.361,23.882 L 74.672,23.452 C 73.677,22.601 72.941,22.037 72.458,21.756 C 71.792,21.371 71.267,21.176 70.88,21.176 C 70.702,21.176 70.557,21.229 70.447,21.33 C 70.337,21.433 70.28,21.546 70.28,21.678 C 70.28,21.804 70.32,22.015 70.404,22.314 L 70.792,23.693 C 69.904,22.719 69.161,22.058 68.57,21.71 C 67.977,21.362 67.441,21.191 66.968,21.191 C 66.572,21.191 66.242,21.367 65.978,21.717 C 65.711,22.068 65.58,22.581 65.58,23.263 C 65.58,24.333 65.94,25.566 66.661,26.961 C 67.387,28.355 68.188,29.385 69.074,30.053 C 69.961,30.722 70.77,31.057 71.504,31.057 C 71.667,31.057 71.908,31.029 72.238,30.975 C 72.585,32.447 72.917,33.524 73.237,34.198 C 73.557,34.874 73.968,35.457 74.472,35.949 C 74.972,36.441 75.55,36.819 76.2,37.088 C 76.845,37.354 77.454,37.489 78.015,37.489 C 78.312,37.489 78.55,37.413 78.73,37.25 C 78.905,37.092 78.994,36.892 78.994,36.652 C 78.994,36.419 78.912,36.226 78.745,36.079 C 78.585,35.934 78.364,35.857 78.085,35.857 C 77.897,35.857 77.554,35.897 77.05,35.972 C 76.545,36.047 76.2,36.086 76.015,36.086 C 75.758,36.086 75.53,36.004 75.332,35.845 C 75.137,35.678 74.95,35.328 74.77,34.795 C 74.652,34.452 74.381,33.37 73.96,31.544 L 72.382,24.699 C 72.197,23.892 72.101,23.357 72.101,23.092 C 72.101,22.803 72.21,22.662 72.425,22.662 C 72.56,22.662 72.717,22.711 72.892,22.809 C 73.144,22.95 73.632,23.309 74.361,23.882 Z M 72.004,29.73 C 71.412,29.863 70.99,29.935 70.748,29.935 C 70.25,29.935 69.764,29.733 69.29,29.341 C 68.817,28.943 68.36,28.175 67.918,27.034 C 67.477,25.894 67.257,24.902 67.257,24.054 C 67.257,23.669 67.358,23.355 67.561,23.109 C 67.767,22.863 67.997,22.742 68.257,22.742 C 68.57,22.742 68.924,22.878 69.322,23.161 C 69.892,23.575 70.348,24.08 70.68,24.677 C 70.88,25.056 71.152,25.978 71.492,27.453 L 72.004,29.73 Z" fill-rule="nonzero" stroke-linejoin="round" stroke="none" stroke-width="0.404" fill="#000000" marker-start="none" marker-end="none" stroke-miterlimit="79.8403193612775"/>
      <path d="M 76.624,21.474 C 76.47,21.638 76.394,21.867 76.394,22.166 C 76.394,23.109 76.95,25.415 78.062,29.084 C 78.112,29.258 78.138,29.414 78.138,29.549 C 78.138,29.698 78.072,29.774 77.94,29.774 C 77.79,29.774 77.622,29.713 77.432,29.595 C 77.245,29.473 76.825,29.088 76.17,28.437 L 75.684,28.823 C 76.422,29.656 77.1,30.245 77.71,30.596 C 78.322,30.947 78.844,31.124 79.272,31.124 C 79.51,31.124 79.69,31.07 79.818,30.968 C 79.942,30.86 80.008,30.717 80.008,30.534 C 80.008,30.314 79.768,29.39 79.284,27.748 C 78.498,25.066 78.105,23.452 78.105,22.899 C 78.105,22.793 78.132,22.704 78.182,22.632 C 78.234,22.56 78.29,22.525 78.35,22.525 C 78.585,22.525 79.194,22.993 80.174,23.931 L 80.608,23.498 C 79.592,22.525 78.85,21.902 78.384,21.633 C 77.917,21.359 77.535,21.223 77.238,21.223 C 76.978,21.223 76.774,21.305 76.624,21.474 Z" fill-rule="nonzero" stroke-linejoin="round" stroke="none" stroke-width="0.404" fill="#000000" marker-start="none" marker-end="none" stroke-miterlimit="79.8403193612775"/>
      <path d="M 95.781,30.727 L 95.205,30.727 C 95.285,31.521 95.327,32.12 95.327,32.527 C 95.327,33.11 95.175,33.57 94.865,33.903 C 94.557,34.239 94.14,34.411 93.613,34.411 C 92.8,34.411 92.09,34.108 91.48,33.509 C 90.871,32.906 90.57,32.233 90.57,31.487 C 90.57,31.086 90.652,30.724 90.82,30.399 C 90.987,30.073 91.355,29.622 91.925,29.042 C 92.97,27.996 93.655,27.179 93.98,26.593 C 94.308,26.002 94.471,25.429 94.471,24.871 C 94.471,24.046 94.223,23.252 93.733,22.494 C 93.24,21.731 92.513,21.101 91.553,20.604 C 90.592,20.111 89.581,19.866 88.512,19.866 C 87.46,19.866 86.572,20.145 85.85,20.702 C 85.127,21.259 84.767,21.85 84.767,22.468 C 84.767,22.801 84.862,23.079 85.048,23.295 C 85.24,23.514 85.452,23.623 85.7,23.623 C 85.952,23.623 86.16,23.523 86.322,23.319 C 86.425,23.198 86.53,22.926 86.635,22.501 C 86.752,21.989 86.897,21.618 87.065,21.387 C 87.24,21.156 87.471,20.969 87.775,20.819 C 88.072,20.674 88.402,20.599 88.757,20.599 C 89.815,20.599 90.742,20.965 91.535,21.695 C 92.33,22.423 92.725,23.227 92.725,24.108 C 92.725,24.414 92.673,24.712 92.573,25.013 C 92.475,25.31 92.291,25.648 92.024,26.024 C 91.84,26.283 91.43,26.736 90.79,27.384 C 90.162,28.018 89.762,28.452 89.602,28.688 C 89.372,29.028 89.201,29.37 89.091,29.713 C 88.98,30.058 88.922,30.399 88.922,30.739 C 88.922,31.426 89.151,32.117 89.602,32.812 C 90.055,33.506 90.642,34.059 91.362,34.472 C 92.085,34.883 92.908,35.088 93.825,35.088 C 94.285,35.088 94.853,35.017 95.525,34.874 C 95.913,34.8 96.247,34.741 96.528,34.705 C 96.365,34.213 96.237,33.75 96.15,33.316 C 96.06,32.881 95.94,32.018 95.781,30.727 Z" fill-rule="nonzero" stroke-linejoin="round" stroke="none" stroke-width="0.404" fill="#000000" marker-start="none" marker-end="none" stroke-miterlimit="79.8403193612775"/>
      <path d="M 99.864,32.812 L 101.63,33.504 L 100.83,30.333 L 103.134,30.333 L 102.953,29.528 L 100.653,29.528 L 99.674,25.732 C 99.37,24.589 99.22,23.797 99.22,23.35 C 99.22,23.15 99.26,23.001 99.345,22.911 C 99.43,22.817 99.547,22.776 99.695,22.776 C 99.925,22.776 100.275,22.914 100.751,23.193 C 101.373,23.565 101.967,23.982 102.53,24.452 L 102.953,23.931 C 101.331,22.684 100.245,21.92 99.695,21.642 C 99.147,21.362 98.705,21.223 98.373,21.223 C 98.097,21.223 97.883,21.326 97.721,21.531 C 97.563,21.731 97.483,22.068 97.483,22.525 C 97.483,23.07 97.623,23.9 97.905,25.017 L 99.053,29.528 L 97.25,29.528 L 97.448,30.333 L 99.24,30.333 L 99.864,32.812 Z" fill-rule="nonzero" stroke-linejoin="round" stroke="none" stroke-width="0.404" fill="#000000" marker-start="none" marker-end="none" stroke-miterlimit="79.8403193612775"/>
      <path d="M 109.855,24.383 L 110.224,23.882 C 108.408,22.127 106.85,21.246 105.555,21.246 C 105.03,21.246 104.625,21.428 104.348,21.788 C 104.068,22.151 103.934,22.732 103.934,23.533 C 103.934,25.15 104.414,26.761 105.375,28.359 C 106.455,30.181 107.751,31.091 109.255,31.091 C 109.783,31.091 110.184,30.956 110.463,30.689 C 110.74,30.422 110.88,30.053 110.88,29.586 C 110.88,29.093 110.713,28.611 110.378,28.134 C 110.044,27.658 109.448,27.164 108.588,26.648 C 108.158,26.4 107.243,25.949 105.831,25.302 C 105.765,24.894 105.734,24.502 105.734,24.133 C 105.734,23.601 105.815,23.224 105.983,23.011 C 106.15,22.801 106.391,22.694 106.71,22.694 C 107.014,22.694 107.348,22.785 107.71,22.957 C 108.198,23.191 108.914,23.666 109.855,24.383 Z M 105.964,26.024 C 107.158,26.57 108.054,27.154 108.655,27.781 C 109.063,28.22 109.268,28.653 109.268,29.084 C 109.268,29.411 109.184,29.668 109.018,29.861 C 108.853,30.053 108.634,30.15 108.367,30.15 C 108.093,30.15 107.827,30.046 107.565,29.832 C 107.218,29.554 106.925,29.131 106.69,28.562 C 106.345,27.734 106.105,26.888 105.964,26.024 Z" fill-rule="nonzero" stroke-linejoin="round" stroke="none" stroke-width="0.404" fill="#000000" marker-start="none" marker-end="none" stroke-miterlimit="79.8403193612775"/>
      <path d="M 116.393,24.271 L 116.771,23.862 C 116.193,23.198 115.508,22.591 114.72,22.045 C 113.931,21.495 113.28,21.223 112.768,21.223 C 112.54,21.223 112.35,21.313 112.203,21.49 C 112.053,21.668 111.978,21.911 111.978,22.217 C 111.978,22.824 112.208,24.076 112.668,25.978 L 113.871,30.952 C 114.307,32.751 114.673,33.955 114.968,34.566 C 115.428,35.497 116.078,36.216 116.921,36.734 C 117.763,37.244 118.65,37.5 119.583,37.5 C 119.903,37.5 120.151,37.424 120.333,37.269 C 120.517,37.116 120.605,36.928 120.605,36.708 C 120.605,36.467 120.517,36.27 120.338,36.113 C 120.161,35.959 119.903,35.883 119.563,35.883 C 119.341,35.883 119.023,35.919 118.617,35.996 C 118.261,36.057 117.931,36.086 117.625,36.086 C 117.323,36.086 117.093,36.02 116.938,35.893 C 116.723,35.713 116.528,35.328 116.353,34.75 C 116.178,34.165 115.894,33.017 115.503,31.303 L 114.403,26.557 C 113.855,24.18 113.58,22.937 113.58,22.832 C 113.58,22.59 113.664,22.468 113.835,22.468 C 113.998,22.468 114.235,22.568 114.545,22.763 C 115.163,23.155 115.775,23.657 116.393,24.271 Z" fill-rule="nonzero" stroke-linejoin="round" stroke="none" stroke-width="0.404" fill="#000000" marker-start="none" marker-end="none" stroke-miterlimit="79.8403193612775"/>
      <path d="M 121.851,24.271 L 122.228,23.862 C 121.651,23.198 120.967,22.591 120.178,22.045 C 119.39,21.495 118.741,21.223 118.228,21.223 C 118.001,21.223 117.81,21.313 117.661,21.49 C 117.513,21.668 117.441,21.911 117.441,22.217 C 117.441,22.824 117.668,24.076 118.127,25.978 L 119.33,30.952 C 119.765,32.751 120.133,33.955 120.428,34.566 C 120.89,35.497 121.538,36.216 122.381,36.734 C 123.221,37.244 124.108,37.5 125.041,37.5 C 125.363,37.5 125.61,37.424 125.791,37.269 C 125.976,37.116 126.067,36.928 126.067,36.708 C 126.067,36.467 125.976,36.27 125.797,36.113 C 125.618,35.959 125.363,35.883 125.021,35.883 C 124.797,35.883 124.483,35.919 124.075,35.996 C 123.721,36.057 123.39,36.086 123.085,36.086 C 122.785,36.086 122.551,36.02 122.397,35.893 C 122.183,35.713 121.988,35.328 121.813,34.75 C 121.638,34.165 121.355,33.017 120.963,31.303 L 119.863,26.557 C 119.317,24.18 119.041,22.937 119.041,22.832 C 119.041,22.59 119.125,22.468 119.295,22.468 C 119.461,22.468 119.695,22.568 120.007,22.763 C 120.621,23.155 121.238,23.657 121.851,24.271 Z" fill-rule="nonzero" stroke-linejoin="round" stroke="none" stroke-width="0.404" fill="#000000" marker-start="none" marker-end="none" stroke-miterlimit="79.8403193612775"/>
      <path d="M 128.514,24.383 L 128.878,23.882 C 127.063,22.127 125.507,21.246 124.211,21.246 C 123.685,21.246 123.281,21.428 123.005,21.788 C 122.725,22.151 122.587,22.732 122.587,23.533 C 122.587,25.15 123.07,26.761 124.031,28.359 C 125.114,30.181 126.407,31.091 127.913,31.091 C 128.438,31.091 128.838,30.956 129.118,30.689 C 129.398,30.422 129.536,30.053 129.536,29.586 C 129.536,29.093 129.366,28.611 129.034,28.134 C 128.698,27.658 128.103,27.164 127.246,26.648 C 126.814,26.4 125.897,25.949 124.487,25.302 C 124.423,24.894 124.388,24.502 124.388,24.133 C 124.388,23.601 124.471,23.224 124.638,23.011 C 124.806,22.801 125.047,22.694 125.366,22.694 C 125.671,22.694 126.003,22.785 126.367,22.957 C 126.858,23.191 127.571,23.666 128.514,24.383 Z M 124.623,26.024 C 125.816,26.57 126.713,27.154 127.313,27.781 C 127.718,28.22 127.923,28.653 127.923,29.084 C 127.923,29.411 127.841,29.668 127.673,29.861 C 127.506,30.053 127.29,30.15 127.023,30.15 C 126.748,30.15 126.483,30.046 126.223,29.832 C 125.876,29.554 125.583,29.131 125.343,28.562 C 125.003,27.734 124.761,26.888 124.623,26.024 Z" fill-rule="nonzero" stroke-linejoin="round" stroke="none" stroke-width="0.404" fill="#000000" marker-start="none" marker-end="none" stroke-miterlimit="79.8403193612775"/>
      <path d="M 25.297,33.118 L 25.984,32.684 C 26.21,32.541 26.485,32.228 26.6,31.984 L 26.948,31.24 C 27.062,30.997 27.269,30.985 27.408,31.215 L 27.835,31.915 C 27.974,32.144 28.282,32.425 28.521,32.541 L 29.251,32.897 C 29.49,33.013 29.502,33.223 29.277,33.365 L 28.59,33.8 C 28.364,33.942 28.089,34.256 27.975,34.5 L 27.626,35.244 C 27.512,35.487 27.305,35.499 27.166,35.269 L 26.739,34.569 C 26.599,34.34 26.292,34.059 26.053,33.942 L 25.323,33.587 C 25.083,33.471 25.072,33.261 25.297,33.118 Z" stroke-width="0.384" stroke="#000000" stroke-linejoin="miter" fill="#eeeeee" marker-start="none" marker-end="none" stroke-miterlimit="79.8403193612775"/>
      <path d="M 78.211,33.521 L 78.668,33.232 C 78.817,33.138 79,32.929 79.076,32.767 L 79.308,32.273 C 79.384,32.111 79.521,32.103 79.613,32.256 L 79.897,32.721 C 79.99,32.874 80.194,33.06 80.353,33.137 L 80.838,33.373 C 80.997,33.451 81.004,33.59 80.855,33.685 L 80.398,33.974 C 80.249,34.068 80.066,34.277 79.99,34.439 L 79.758,34.933 C 79.682,35.095 79.545,35.102 79.453,34.95 L 79.169,34.485 C 79.076,34.332 78.872,34.146 78.713,34.068 L 78.228,33.832 C 78.069,33.755 78.062,33.616 78.211,33.521 Z" stroke-width="0.256" stroke="#000000" stroke-linejoin="miter" fill="#eeeeee" marker-start="none" marker-end="none" stroke-miterlimit="79.8403193612775"/>
     </g>
     <path d="M 7.01,23.765 L 7.697,23.331 C 7.923,23.188 8.198,22.875 8.313,22.631 L 8.661,21.887 C 8.775,21.644 8.982,21.632 9.121,21.862 L 9.548,22.562 C 9.687,22.791 9.995,23.072 10.234,23.188 L 10.964,23.544 C 11.203,23.66 11.215,23.87 10.99,24.012 L 10.303,24.447 C 10.077,24.589 9.802,24.903 9.688,25.147 L 9.339,25.891 C 9.225,26.134 9.018,26.146 8.879,25.916 L 8.452,25.216 C 8.312,24.987 8.005,24.706 7.766,24.589 L 7.036,24.234 C 6.796,24.118 6.785,23.908 7.01,23.765 Z" stroke-width="0.384" stroke="#000000" stroke-linejoin="miter" fill="#eeeeee" marker-start="none" marker-end="none" stroke-miterlimit="79.8403193612775"/>
     <text xml:space="preserve" transform="translate(73.894 3.406) scale(1 -1) scale(0.983917 1)" font-style="italic" font-size="13.311" font-family="Monotype Corsiva" stroke-linejoin="round" stroke="none" stroke-width="0.409" fill="#000000" stroke-miterlimit="79.8403193612775"><tspan x="-76.6517723395676" y="0">by MOMYLIA  di Rizzo Emilia</tspan></text>
     <path d="M 143.209,23.809 L 143.896,23.375 C 144.122,23.232 144.397,22.919 144.512,22.675 L 144.86,21.931 C 144.974,21.688 145.181,21.676 145.32,21.906 L 145.747,22.606 C 145.886,22.835 146.194,23.116 146.433,23.232 L 147.163,23.588 C 147.402,23.704 147.414,23.914 147.189,24.056 L 146.502,24.491 C 146.276,24.633 146.001,24.947 145.887,25.191 L 145.538,25.935 C 145.424,26.178 145.217,26.19 145.078,25.96 L 144.651,25.26 C 144.511,25.031 144.204,24.75 143.965,24.633 L 143.235,24.278 C 142.995,24.162 142.984,23.952 143.209,23.809 Z" stroke-width="0.384" stroke="#000000" stroke-linejoin="miter" fill="#eeeeee" marker-start="none" marker-end="none" stroke-miterlimit="79.8403193612775"/>
     <text xml:space="preserve" transform="translate(118.844 27.811) scale(1 -1) scale(0.996414 1)" font-size="13.609" stroke="none" stroke-width="0.267" fill="#000000" stroke-linejoin="round" font-family="Times New Roman" stroke-miterlimit="79.8403193612775"><tspan x="12.8540924028729" y="0">®</tspan></text>
    </g>
   </g>
  </g>
 </g>
</svg>
