<?xml version="1.0" standalone="no"?>
<!DOCTYPE svg PUBLIC "-//W3C//DTD SVG 1.1//EN" "http://www.w3.org/Graphics/SVG/1.1/DTD/svg11.dtd">
<!--Generator: Xara Designer (www.xara.com), SVG filter version: 5.0.0.2-->
<svg stroke-width="0.501" stroke-linejoin="bevel" fill-rule="evenodd" xmlns:xlink="http://www.w3.org/1999/xlink" xmlns="http://www.w3.org/2000/svg" version="1.1" overflow="visible" width="73.5pt" height="20.25pt" viewBox="0 0 73.5 20.25">
 <defs>
  <marker id="DefaultArrow2" markerUnits="strokeWidth" viewBox="0 0 1 1" markerWidth="1" markerHeight="1" overflow="visible" orient="auto">
   <!-- REF_ARROW_STRAIGHT (-2) -->
   <g transform="scale(0.0092592592)">
    <!-- 1/108 -->
    <path d="M -9 54 L -9 -54 L 117 0 z"/>
   </g>
  </marker>
  <marker id="DefaultArrow3" markerUnits="strokeWidth" viewBox="0 0 1 1" markerWidth="1" markerHeight="1" overflow="visible" orient="auto">
   <!-- REF_ARROW_ANGLED -->
   <g transform="scale(0.0092592592)">
    <path d="M -27 54 L -9 0 L -27 -54 L 135 0 z"/>
   </g>
  </marker>
  <marker id="DefaultArrow4" markerUnits="strokeWidth" viewBox="0 0 1 1" markerWidth="1" markerHeight="1" overflow="visible" orient="auto">
   <!-- REF_ARROW_ROUNDED -->
   <g transform="scale(0.0092592592)">
    <path d="M -9,0 L -9,-45 C -9,-51.708 2.808,-56.580 9,-54 L 117,-9 C 120.916,-7.369 126.000,-4.242 126,0 C 126,4.242 120.916,7.369 117,9 L 9,54 C 2.808,56.580 -9,51.708 -9,45 z"/>
   </g>
  </marker>
  <marker id="DefaultArrow5" markerUnits="strokeWidth" viewBox="0 0 1 1" markerWidth="1" markerHeight="1" overflow="visible" orient="auto">
   <!-- REF_ARROW_SPOT -->
   <g transform="scale(0.0092592592)">
    <path d="M -54, 0 C -54,29.807 -29.807,54 0,54 C 29.807,54 54,29.807 54,0 C 54,-29.807 29.807,-54 0,-54 C -29.807,-54 -54,-29.807 -54,0 z"/>
   </g>
  </marker>
  <marker id="DefaultArrow6" markerUnits="strokeWidth" viewBox="0 0 1 1" markerWidth="1" markerHeight="1" overflow="visible" orient="auto">
   <!-- REF_ARROW_DIAMOND -->
   <g transform="scale(0.0092592592)">
    <path d="M -63,0 L 0,63 L 63,0 L 0,-63 z"/>
   </g>
  </marker>
  <marker id="DefaultArrow7" markerUnits="strokeWidth" viewBox="0 0 1 1" markerWidth="1" markerHeight="1" overflow="visible" orient="auto">
   <!-- REF_ARROW_FEATHER -->
   <g transform="scale(0.0092592592)">
    <path d="M 18,-54 L 108,-54 L 63,0 L 108,54 L 18, 54 L -36,0 z"/>
   </g>
  </marker>
  <marker id="DefaultArrow8" markerUnits="strokeWidth" viewBox="0 0 1 1" markerWidth="1" markerHeight="1" overflow="visible" orient="auto">
   <!-- REF_ARROW_FEATHER2 -->
   <g transform="scale(0.0092592592)">
    <path d="M -36,0 L 18,-54 L 54,-54 L 18,-18 L 27,-18 L 63,-54 L 99,-54 L 63,-18 L 72,-18 L 108,-54 L 144,-54 L 90,0 L 144,54 L 108,54 L 72,18 L 63,18 L 99,54 L 63,54 L 27,18 L 18,18 L 54,54 L 18,54 z"/>
   </g>
  </marker>
  <marker id="DefaultArrow9" markerUnits="strokeWidth" viewBox="0 0 1 1" markerWidth="1" markerHeight="1" overflow="visible" orient="auto">
   <!-- REF_ARROW_HOLLOWDIAMOND -->
   <g transform="scale(0.0092592592)">
    <path d="M 0,45 L -45,0 L 0, -45 L 45, 0 z M 0, 63 L-63, 0 L 0, -63 L 63, 0 z"/>
   </g>
  </marker>
  <filter id="StainedFilter">
   <feBlend mode="multiply" in2="BackgroundImage" in="SourceGraphic" result="blend"/>
   <feComposite in="blend" in2="SourceAlpha" operator="in" result="comp"/>
  </filter>
  <filter id="BleachFilter">
   <feBlend mode="screen" in2="BackgroundImage" in="SourceGraphic" result="blend"/>
   <feComposite in="blend" in2="SourceAlpha" operator="in" result="comp"/>
  </filter>
  <filter id="InvertTransparencyBitmapFilter">
   <feComponentTransfer>
    <feFuncR type="gamma" amplitude="1.055" exponent=".416666666" offset="-0.055"/>
    <feFuncG type="gamma" amplitude="1.055" exponent=".416666666" offset="-0.055"/>
    <feFuncB type="gamma" amplitude="1.055" exponent=".416666666" offset="-0.055"/>
   </feComponentTransfer>
   <feComponentTransfer>
    <feFuncR type="linear" slope="-1" intercept="1"/>
    <feFuncG type="linear" slope="-1" intercept="1"/>
    <feFuncB type="linear" slope="-1" intercept="1"/>
    <feFuncA type="linear" slope="1" intercept="0"/>
   </feComponentTransfer>
   <feComponentTransfer>
    <feFuncR type="gamma" amplitude="1" exponent="2.4" offset="0"/>
    <feFuncG type="gamma" amplitude="1" exponent="2.4" offset="0"/>
    <feFuncB type="gamma" amplitude="1" exponent="2.4" offset="0"/>
   </feComponentTransfer>
  </filter>
 </defs>
 <g id="Document" fill="none" stroke="black" font-family="Times New Roman" font-size="16" transform="scale(1 -1)">
  <g id="Spread" transform="translate(0 -20.25)">
   <g id="Layer 1">
    <path d="M 3.52,16.812 L 3.602,17.12 C 4.263,17.183 4.828,17.275 5.298,17.393 C 5.184,17.074 5.06,16.657 4.928,16.142 L 4.423,14.221 L 5.051,14.18 C 5.343,14.166 5.661,14.239 6.005,14.399 C 6.349,14.558 6.656,14.839 6.928,15.24 C 7.199,15.641 7.334,16.074 7.334,16.538 C 7.334,16.999 7.169,17.363 6.839,17.632 C 6.508,17.901 6.004,18.036 5.325,18.036 C 4.55,18.036 3.791,17.843 3.048,17.458 C 2.306,17.073 1.733,16.581 1.329,15.981 C 0.926,15.382 0.724,14.791 0.724,14.207 C 0.724,13.92 0.777,13.671 0.882,13.459 C 0.986,13.247 1.173,13.039 1.442,12.834 C 1.665,12.669 1.777,12.51 1.777,12.355 C 1.777,12.255 1.741,12.17 1.668,12.102 C 1.595,12.034 1.508,12 1.408,12 C 1.139,12 0.879,12.184 0.629,12.553 C 0.378,12.922 0.252,13.389 0.252,13.954 C 0.252,14.989 0.649,15.932 1.442,16.785 C 2.481,17.906 3.876,18.466 5.626,18.466 C 6.291,18.466 6.837,18.38 7.263,18.206 C 7.689,18.033 8.008,17.796 8.22,17.495 C 8.432,17.195 8.538,16.869 8.538,16.518 C 8.538,16.071 8.388,15.633 8.09,15.202 C 7.791,14.771 7.352,14.424 6.771,14.16 C 6.19,13.895 5.544,13.763 4.833,13.763 C 4.723,13.763 4.552,13.77 4.32,13.784 L 3.78,11.658 C 3.689,11.298 3.586,10.942 3.472,10.591 C 3.828,10.505 4.137,10.461 4.402,10.461 C 4.735,10.461 5.092,10.525 5.475,10.653 L 5.393,10.27 C 5.038,10.174 4.737,10.127 4.491,10.127 C 4.254,10.127 3.907,10.152 3.452,10.202 C 3.087,10.247 2.791,10.27 2.563,10.27 C 2.121,10.27 1.668,10.218 1.203,10.113 L 1.285,10.475 C 1.759,10.553 2.082,10.664 2.255,10.81 C 2.502,11.015 2.702,11.428 2.857,12.047 L 3.889,16.142 C 3.935,16.333 3.958,16.468 3.958,16.545 C 3.958,16.618 3.928,16.683 3.869,16.74 C 3.809,16.797 3.739,16.826 3.657,16.826 C 3.625,16.826 3.579,16.821 3.52,16.812 Z" fill-rule="nonzero" stroke-linejoin="round" stroke-linecap="round" stroke="none" fill="#000000" stroke-width="0.25" marker-start="none" marker-end="none" stroke-miterlimit="79.8403193612775"/>
    <path d="M 11.566,11.986 L 11.792,11.685 C 10.675,10.623 9.719,10.092 8.921,10.092 C 8.597,10.092 8.35,10.202 8.179,10.42 C 8.008,10.639 7.923,10.99 7.923,11.473 C 7.923,12.449 8.219,13.419 8.812,14.385 C 9.477,15.484 10.272,16.033 11.197,16.033 C 11.521,16.033 11.768,15.952 11.939,15.79 C 12.11,15.628 12.195,15.406 12.195,15.123 C 12.195,14.827 12.093,14.535 11.888,14.248 C 11.683,13.961 11.316,13.663 10.787,13.353 C 10.523,13.203 9.958,12.932 9.092,12.54 C 9.051,12.294 9.03,12.059 9.03,11.835 C 9.03,11.512 9.082,11.286 9.184,11.159 C 9.287,11.031 9.436,10.967 9.632,10.967 C 9.819,10.967 10.024,11.02 10.247,11.125 C 10.548,11.266 10.988,11.553 11.566,11.986 Z M 9.174,12.977 C 9.908,13.305 10.459,13.658 10.828,14.037 C 11.079,14.301 11.204,14.563 11.204,14.823 C 11.204,15.019 11.153,15.175 11.05,15.291 C 10.948,15.407 10.815,15.465 10.65,15.465 C 10.482,15.465 10.318,15.402 10.158,15.274 C 9.944,15.105 9.764,14.85 9.618,14.508 C 9.409,14.007 9.261,13.497 9.174,12.977 Z" fill-rule="nonzero" stroke-linejoin="round" stroke-linecap="round" stroke="none" fill="#000000" stroke-width="0.25" marker-start="none" marker-end="none" stroke-miterlimit="79.8403193612775"/>
    <path d="M 14.007,10.27 L 12.989,10.27 L 13.467,12.109 C 13.699,13.011 13.902,13.868 14.076,14.679 C 14.116,14.88 14.137,15.005 14.137,15.055 C 14.137,15.165 14.087,15.219 13.987,15.219 C 13.918,15.219 13.813,15.172 13.672,15.079 C 13.531,14.986 13.276,14.754 12.907,14.385 L 12.695,14.625 C 13.132,15.094 13.568,15.446 14.004,15.681 C 14.439,15.915 14.773,16.033 15.005,16.033 C 15.087,16.033 15.152,16.013 15.2,15.975 C 15.248,15.936 15.272,15.887 15.272,15.828 C 15.272,15.768 15.242,15.611 15.183,15.356 L 14.889,14.132 C 15.349,14.857 15.869,15.477 16.448,15.992 C 16.726,16.238 16.958,16.361 17.145,16.361 C 17.281,16.361 17.395,16.316 17.487,16.228 C 17.578,16.139 17.623,16.035 17.623,15.916 C 17.623,15.794 17.579,15.689 17.49,15.602 C 17.401,15.515 17.179,15.413 16.823,15.294 C 16.486,15.18 16.212,15.044 16,14.884 C 15.788,14.725 15.555,14.481 15.302,14.153 C 15.05,13.825 14.873,13.539 14.773,13.295 C 14.672,13.051 14.52,12.485 14.315,11.596 L 14.007,10.27 Z" fill-rule="nonzero" stroke-linejoin="round" stroke-linecap="round" stroke="none" fill="#000000" stroke-width="0.25" marker-start="none" marker-end="none" stroke-miterlimit="79.8403193612775"/>
    <path d="M 19.783,11.918 L 20.016,11.671 C 19.66,11.27 19.24,10.904 18.754,10.574 C 18.269,10.244 17.869,10.079 17.555,10.079 C 17.413,10.079 17.297,10.132 17.206,10.239 C 17.115,10.346 17.069,10.493 17.069,10.68 C 17.069,11.045 17.21,11.801 17.493,12.95 L 18.231,15.951 C 18.5,17.035 18.726,17.762 18.908,18.131 C 19.191,18.692 19.591,19.127 20.108,19.437 C 20.625,19.747 21.171,19.902 21.745,19.902 C 21.941,19.902 22.095,19.855 22.206,19.762 C 22.318,19.668 22.374,19.555 22.374,19.423 C 22.374,19.277 22.319,19.158 22.21,19.064 C 22.101,18.971 21.941,18.924 21.731,18.924 C 21.595,18.924 21.401,18.947 21.15,18.993 C 20.932,19.029 20.729,19.047 20.542,19.047 C 20.355,19.047 20.214,19.009 20.118,18.931 C 19.986,18.822 19.866,18.592 19.759,18.241 C 19.652,17.89 19.478,17.197 19.236,16.163 L 18.56,13.298 C 18.222,11.863 18.054,11.113 18.054,11.049 C 18.054,10.903 18.106,10.831 18.211,10.831 C 18.311,10.831 18.457,10.89 18.648,11.008 C 19.027,11.245 19.405,11.548 19.783,11.918 Z" fill-rule="nonzero" stroke-linejoin="round" stroke-linecap="round" stroke="none" fill="#000000" stroke-width="0.25" marker-start="none" marker-end="none" stroke-miterlimit="79.8403193612775"/>
    <path d="M 23.878,11.986 L 24.104,11.685 C 22.987,10.623 22.031,10.092 21.233,10.092 C 20.909,10.092 20.662,10.202 20.491,10.42 C 20.32,10.639 20.235,10.99 20.235,11.473 C 20.235,12.449 20.531,13.419 21.124,14.385 C 21.789,15.484 22.584,16.033 23.509,16.033 C 23.833,16.033 24.08,15.952 24.251,15.79 C 24.422,15.628 24.507,15.406 24.507,15.123 C 24.507,14.827 24.405,14.535 24.2,14.248 C 23.995,13.961 23.628,13.663 23.099,13.353 C 22.835,13.203 22.27,12.932 21.404,12.54 C 21.363,12.294 21.342,12.059 21.342,11.835 C 21.342,11.512 21.394,11.286 21.496,11.159 C 21.599,11.031 21.748,10.967 21.944,10.967 C 22.131,10.967 22.336,11.02 22.559,11.125 C 22.86,11.266 23.3,11.553 23.878,11.986 Z M 21.486,12.977 C 22.22,13.305 22.771,13.658 23.14,14.037 C 23.391,14.301 23.516,14.563 23.516,14.823 C 23.516,15.019 23.465,15.175 23.362,15.291 C 23.26,15.407 23.127,15.465 22.962,15.465 C 22.794,15.465 22.63,15.402 22.47,15.274 C 22.256,15.105 22.076,14.85 21.93,14.508 C 21.721,14.007 21.573,13.497 21.486,12.977 Z" fill-rule="nonzero" stroke-linejoin="round" stroke-linecap="round" stroke="none" fill="#000000" stroke-width="0.25" marker-start="none" marker-end="none" stroke-miterlimit="79.8403193612775"/>
    <path d="M 33.394,11.685 L 33.585,11.425 C 32.975,10.91 32.522,10.569 32.225,10.4 C 31.815,10.168 31.492,10.051 31.255,10.051 C 31.145,10.051 31.056,10.082 30.988,10.144 C 30.919,10.205 30.885,10.275 30.885,10.352 C 30.885,10.43 30.91,10.557 30.961,10.735 L 31.2,11.569 C 30.653,10.981 30.197,10.582 29.833,10.372 C 29.468,10.163 29.14,10.058 28.848,10.058 C 28.607,10.058 28.404,10.164 28.24,10.376 C 28.076,10.588 27.994,10.899 27.994,11.309 C 27.994,11.956 28.216,12.7 28.66,13.541 C 29.105,14.382 29.599,15.004 30.144,15.407 C 30.688,15.811 31.186,16.012 31.637,16.012 C 31.738,16.012 31.888,15.996 32.088,15.964 C 32.303,16.853 32.508,17.501 32.704,17.909 C 32.9,18.317 33.153,18.669 33.462,18.965 C 33.772,19.261 34.127,19.49 34.525,19.652 C 34.924,19.814 35.297,19.895 35.643,19.895 C 35.825,19.895 35.971,19.847 36.081,19.751 C 36.19,19.656 36.245,19.535 36.245,19.389 C 36.245,19.248 36.194,19.133 36.094,19.044 C 35.994,18.955 35.857,18.911 35.684,18.911 C 35.57,18.911 35.358,18.933 35.048,18.979 C 34.738,19.025 34.527,19.047 34.413,19.047 C 34.253,19.047 34.113,18.998 33.992,18.9 C 33.872,18.802 33.756,18.592 33.647,18.268 C 33.574,18.063 33.408,17.409 33.148,16.306 L 32.177,12.177 C 32.063,11.69 32.006,11.366 32.006,11.206 C 32.006,11.033 32.072,10.947 32.205,10.947 C 32.287,10.947 32.382,10.976 32.492,11.036 C 32.647,11.122 32.948,11.339 33.394,11.685 Z M 31.945,15.212 C 31.58,15.294 31.323,15.335 31.172,15.335 C 30.867,15.335 30.569,15.216 30.277,14.976 C 29.985,14.737 29.704,14.274 29.433,13.585 C 29.161,12.897 29.026,12.298 29.026,11.788 C 29.026,11.555 29.088,11.365 29.214,11.217 C 29.339,11.069 29.482,10.994 29.641,10.995 C 29.833,10.994 30.051,11.079 30.297,11.247 C 30.648,11.498 30.926,11.804 31.131,12.163 C 31.255,12.391 31.421,12.95 31.63,13.838 L 31.945,15.212 Z" fill-rule="nonzero" stroke-linejoin="round" stroke-linecap="round" stroke="none" fill="#000000" stroke-width="0.25" marker-start="none" marker-end="none" stroke-miterlimit="79.8403193612775"/>
    <path d="M 34.785,10.229 C 34.692,10.329 34.645,10.468 34.645,10.646 C 34.645,11.216 34.987,12.608 35.67,14.823 C 35.702,14.927 35.718,15.021 35.718,15.103 C 35.718,15.194 35.677,15.24 35.595,15.24 C 35.504,15.24 35.4,15.203 35.284,15.13 C 35.168,15.057 34.909,14.825 34.508,14.433 L 34.207,14.665 C 34.663,15.167 35.079,15.523 35.455,15.735 C 35.831,15.947 36.151,16.053 36.415,16.053 C 36.561,16.053 36.673,16.021 36.75,15.957 C 36.828,15.894 36.867,15.807 36.867,15.698 C 36.867,15.566 36.718,15.005 36.422,14.016 C 35.939,12.398 35.698,11.423 35.698,11.09 C 35.698,11.026 35.714,10.973 35.745,10.93 C 35.777,10.886 35.812,10.865 35.848,10.865 C 35.994,10.865 36.368,11.147 36.969,11.712 L 37.236,11.453 C 36.611,10.865 36.156,10.489 35.868,10.325 C 35.581,10.161 35.347,10.079 35.164,10.079 C 35.005,10.079 34.879,10.129 34.785,10.229 Z" fill-rule="nonzero" stroke-linejoin="round" stroke-linecap="round" stroke="none" fill="#000000" stroke-width="0.25" marker-start="none" marker-end="none" stroke-miterlimit="79.8403193612775"/>
    <path d="M 46.567,15.814 L 46.212,15.814 C 46.262,16.292 46.287,16.655 46.287,16.901 C 46.287,17.252 46.192,17.529 46.003,17.731 C 45.814,17.934 45.558,18.036 45.234,18.036 C 44.733,18.036 44.295,17.854 43.922,17.492 C 43.548,17.13 43.361,16.723 43.361,16.272 C 43.361,16.03 43.412,15.812 43.515,15.616 C 43.617,15.42 43.844,15.146 44.195,14.795 C 44.838,14.166 45.259,13.674 45.46,13.319 C 45.66,12.963 45.761,12.617 45.76,12.28 C 45.761,11.783 45.609,11.304 45.306,10.844 C 45.003,10.384 44.556,10.005 43.966,9.706 C 43.376,9.407 42.753,9.258 42.097,9.258 C 41.449,9.258 40.904,9.427 40.459,9.764 C 40.015,10.101 39.793,10.457 39.793,10.831 C 39.793,11.031 39.851,11.197 39.967,11.33 C 40.083,11.462 40.217,11.528 40.367,11.528 C 40.522,11.528 40.649,11.466 40.75,11.343 C 40.814,11.27 40.877,11.106 40.941,10.851 C 41.014,10.541 41.103,10.317 41.208,10.178 C 41.313,10.039 41.457,9.925 41.642,9.836 C 41.826,9.747 42.028,9.703 42.247,9.703 C 42.898,9.703 43.468,9.923 43.956,10.362 C 44.443,10.802 44.687,11.288 44.687,11.822 C 44.687,12.004 44.657,12.185 44.595,12.365 C 44.533,12.545 44.421,12.749 44.257,12.977 C 44.143,13.132 43.89,13.405 43.498,13.797 C 43.111,14.18 42.867,14.442 42.766,14.584 C 42.625,14.789 42.52,14.995 42.452,15.202 C 42.384,15.41 42.349,15.616 42.349,15.821 C 42.349,16.236 42.488,16.652 42.766,17.072 C 43.044,17.491 43.406,17.825 43.85,18.073 C 44.294,18.321 44.799,18.446 45.364,18.446 C 45.646,18.446 45.995,18.402 46.41,18.316 C 46.647,18.27 46.852,18.236 47.025,18.213 C 46.925,17.917 46.847,17.638 46.793,17.376 C 46.738,17.114 46.663,16.593 46.567,15.814 Z" fill-rule="nonzero" stroke-linejoin="round" stroke-linecap="round" stroke="none" fill="#000000" stroke-width="0.25" marker-start="none" marker-end="none" stroke-miterlimit="79.8403193612775"/>
    <path d="M 49.076,17.072 L 50.162,17.489 L 49.67,15.575 L 51.085,15.575 L 50.976,15.089 L 49.561,15.089 L 48.959,12.799 C 48.772,12.111 48.679,11.633 48.679,11.364 C 48.679,11.241 48.705,11.152 48.758,11.097 C 48.81,11.043 48.882,11.015 48.973,11.015 C 49.114,11.015 49.331,11.099 49.622,11.268 C 50.005,11.491 50.37,11.744 50.716,12.027 L 50.976,11.712 C 49.978,10.96 49.31,10.5 48.973,10.331 C 48.636,10.163 48.365,10.079 48.159,10.079 C 47.991,10.079 47.858,10.14 47.76,10.263 C 47.662,10.386 47.613,10.587 47.613,10.865 C 47.613,11.193 47.699,11.694 47.872,12.369 L 48.577,15.089 L 47.469,15.089 L 47.592,15.575 L 48.693,15.575 L 49.076,17.072 Z" fill-rule="nonzero" stroke-linejoin="round" stroke-linecap="round" stroke="none" fill="#000000" stroke-width="0.25" marker-start="none" marker-end="none" stroke-miterlimit="79.8403193612775"/>
    <path d="M 55.22,11.986 L 55.446,11.685 C 54.329,10.623 53.373,10.092 52.575,10.092 C 52.251,10.092 52.004,10.202 51.833,10.42 C 51.662,10.639 51.577,10.99 51.577,11.473 C 51.577,12.449 51.873,13.419 52.466,14.385 C 53.131,15.484 53.926,16.033 54.851,16.033 C 55.175,16.033 55.422,15.952 55.593,15.79 C 55.764,15.628 55.849,15.406 55.849,15.123 C 55.849,14.827 55.747,14.535 55.542,14.248 C 55.337,13.961 54.97,13.663 54.441,13.353 C 54.177,13.203 53.612,12.932 52.746,12.54 C 52.705,12.294 52.684,12.059 52.684,11.835 C 52.684,11.512 52.736,11.286 52.838,11.159 C 52.941,11.031 53.09,10.967 53.286,10.967 C 53.473,10.967 53.678,11.02 53.901,11.125 C 54.202,11.266 54.642,11.553 55.22,11.986 Z M 52.828,12.977 C 53.562,13.305 54.113,13.658 54.482,14.037 C 54.733,14.301 54.858,14.563 54.858,14.823 C 54.858,15.019 54.807,15.175 54.704,15.291 C 54.602,15.407 54.469,15.465 54.304,15.465 C 54.136,15.465 53.972,15.402 53.812,15.274 C 53.598,15.105 53.418,14.85 53.272,14.508 C 53.063,14.007 52.915,13.497 52.828,12.977 Z" fill-rule="nonzero" stroke-linejoin="round" stroke-linecap="round" stroke="none" fill="#000000" stroke-width="0.25" marker-start="none" marker-end="none" stroke-miterlimit="79.8403193612775"/>
    <path d="M 59.24,11.918 L 59.473,11.671 C 59.117,11.27 58.697,10.904 58.211,10.574 C 57.726,10.244 57.326,10.079 57.012,10.079 C 56.87,10.079 56.754,10.132 56.663,10.239 C 56.572,10.346 56.526,10.493 56.526,10.68 C 56.526,11.045 56.667,11.801 56.95,12.95 L 57.688,15.951 C 57.957,17.035 58.183,17.762 58.365,18.131 C 58.648,18.692 59.048,19.127 59.565,19.437 C 60.082,19.747 60.628,19.902 61.202,19.902 C 61.398,19.902 61.552,19.855 61.663,19.762 C 61.775,19.668 61.831,19.555 61.831,19.423 C 61.831,19.277 61.776,19.158 61.667,19.064 C 61.558,18.971 61.398,18.924 61.188,18.924 C 61.052,18.924 60.858,18.947 60.607,18.993 C 60.389,19.029 60.186,19.047 59.999,19.047 C 59.812,19.047 59.671,19.009 59.575,18.931 C 59.443,18.822 59.323,18.592 59.216,18.241 C 59.109,17.89 58.935,17.197 58.693,16.163 L 58.017,13.298 C 57.679,11.863 57.511,11.113 57.511,11.049 C 57.511,10.903 57.563,10.831 57.668,10.831 C 57.768,10.831 57.914,10.89 58.105,11.008 C 58.484,11.245 58.862,11.548 59.24,11.918 Z" fill-rule="nonzero" stroke-linejoin="round" stroke-linecap="round" stroke="none" fill="#000000" stroke-width="0.25" marker-start="none" marker-end="none" stroke-miterlimit="79.8403193612775"/>
    <path d="M 62.597,11.918 L 62.83,11.671 C 62.474,11.27 62.054,10.904 61.568,10.574 C 61.083,10.244 60.683,10.079 60.369,10.079 C 60.227,10.079 60.111,10.132 60.02,10.239 C 59.929,10.346 59.883,10.493 59.883,10.68 C 59.883,11.045 60.024,11.801 60.307,12.95 L 61.045,15.951 C 61.314,17.035 61.54,17.762 61.722,18.131 C 62.005,18.692 62.405,19.127 62.922,19.437 C 63.439,19.747 63.985,19.902 64.559,19.902 C 64.755,19.902 64.909,19.855 65.02,19.762 C 65.132,19.668 65.188,19.555 65.188,19.423 C 65.188,19.277 65.133,19.158 65.024,19.064 C 64.915,18.971 64.755,18.924 64.545,18.924 C 64.409,18.924 64.215,18.947 63.964,18.993 C 63.746,19.029 63.543,19.047 63.356,19.047 C 63.169,19.047 63.028,19.009 62.932,18.931 C 62.8,18.822 62.68,18.592 62.573,18.241 C 62.466,17.89 62.292,17.197 62.05,16.163 L 61.374,13.298 C 61.036,11.863 60.868,11.113 60.868,11.049 C 60.868,10.903 60.92,10.831 61.025,10.831 C 61.125,10.831 61.271,10.89 61.462,11.008 C 61.841,11.245 62.219,11.548 62.597,11.918 Z" fill-rule="nonzero" stroke-linejoin="round" stroke-linecap="round" stroke="none" fill="#000000" stroke-width="0.25" marker-start="none" marker-end="none" stroke-miterlimit="79.8403193612775"/>
    <path d="M 66.692,11.986 L 66.918,11.685 C 65.801,10.623 64.845,10.092 64.047,10.092 C 63.723,10.092 63.476,10.202 63.305,10.42 C 63.134,10.639 63.049,10.99 63.049,11.473 C 63.049,12.449 63.345,13.419 63.938,14.385 C 64.603,15.484 65.398,16.033 66.323,16.033 C 66.647,16.033 66.894,15.952 67.065,15.79 C 67.236,15.628 67.321,15.406 67.321,15.123 C 67.321,14.827 67.219,14.535 67.014,14.248 C 66.809,13.961 66.442,13.663 65.913,13.353 C 65.649,13.203 65.084,12.932 64.218,12.54 C 64.177,12.294 64.156,12.059 64.156,11.835 C 64.156,11.512 64.208,11.286 64.31,11.159 C 64.413,11.031 64.562,10.967 64.758,10.967 C 64.945,10.967 65.15,11.02 65.373,11.125 C 65.674,11.266 66.114,11.553 66.692,11.986 Z M 64.3,12.977 C 65.034,13.305 65.585,13.658 65.954,14.037 C 66.205,14.301 66.33,14.563 66.33,14.823 C 66.33,15.019 66.279,15.175 66.176,15.291 C 66.074,15.407 65.941,15.465 65.776,15.465 C 65.608,15.465 65.444,15.402 65.284,15.274 C 65.07,15.105 64.89,14.85 64.744,14.508 C 64.535,14.007 64.387,13.497 64.3,12.977 Z" fill-rule="nonzero" stroke-linejoin="round" stroke-linecap="round" stroke="none" fill="#000000" stroke-width="0.25" marker-start="none" marker-end="none" stroke-miterlimit="79.8403193612775"/>
    <path d="M 19.529,4.997 C 19.74,5.228 19.948,5.398 20.152,5.506 C 20.357,5.615 20.537,5.669 20.693,5.669 C 20.876,5.669 21.021,5.596 21.131,5.45 C 21.24,5.304 21.295,5.084 21.295,4.79 C 21.295,4.363 21.195,3.944 20.994,3.536 C 20.794,3.127 20.546,2.816 20.25,2.602 C 19.954,2.388 19.666,2.282 19.385,2.282 C 19.145,2.282 18.954,2.352 18.81,2.493 C 18.667,2.633 18.596,2.816 18.596,3.04 C 18.596,3.219 18.631,3.469 18.701,3.79 L 19.162,5.856 C 19.274,6.361 19.415,6.746 19.584,7.01 C 19.753,7.275 19.976,7.486 20.252,7.643 C 20.528,7.801 20.79,7.88 21.037,7.88 C 21.186,7.88 21.294,7.854 21.363,7.803 C 21.432,7.753 21.467,7.684 21.467,7.598 C 21.467,7.52 21.436,7.455 21.373,7.403 C 21.311,7.351 21.222,7.325 21.107,7.325 C 21.021,7.325 20.873,7.344 20.662,7.383 C 20.568,7.402 20.485,7.411 20.412,7.411 C 20.282,7.411 20.176,7.34 20.096,7.2 C 20.036,7.09 19.954,6.813 19.85,6.368 L 19.529,4.997 Z M 20.299,5.235 C 20.171,5.235 20.02,5.158 19.844,5.004 C 19.668,4.851 19.502,4.579 19.346,4.19 C 19.189,3.801 19.111,3.418 19.111,3.043 C 19.111,2.903 19.156,2.785 19.246,2.69 C 19.336,2.595 19.441,2.547 19.561,2.547 C 19.85,2.547 20.107,2.776 20.334,3.233 C 20.561,3.69 20.674,4.145 20.674,4.598 C 20.674,4.804 20.631,4.972 20.545,5.102 C 20.485,5.191 20.403,5.235 20.299,5.235 Z" fill-rule="nonzero" stroke-linejoin="round" stroke-linecap="round" stroke="none" fill="#000000" stroke-width="0.25" marker-start="none" marker-end="none" stroke-miterlimit="79.8403193612775"/>
    <path d="M 21.689,4.887 L 21.564,5.071 L 21.853,5.266 C 22.134,5.459 22.332,5.583 22.447,5.637 C 22.512,5.669 22.572,5.684 22.626,5.684 C 22.681,5.684 22.733,5.653 22.783,5.59 C 23.012,5.301 23.205,4.911 23.361,4.421 C 23.517,3.929 23.595,3.454 23.595,2.993 C 23.595,2.933 23.593,2.842 23.588,2.719 C 24.028,3.529 24.248,4.172 24.248,4.649 C 24.248,4.748 24.225,4.879 24.181,5.044 C 24.134,5.226 24.111,5.356 24.111,5.434 C 24.111,5.51 24.135,5.572 24.183,5.622 C 24.231,5.671 24.292,5.696 24.365,5.696 C 24.456,5.696 24.53,5.661 24.586,5.59 C 24.642,5.52 24.67,5.42 24.67,5.29 C 24.67,4.954 24.593,4.535 24.439,4.034 C 24.285,3.532 24.044,2.993 23.714,2.416 C 23.385,1.84 23.084,1.411 22.812,1.131 C 22.54,0.851 22.277,0.651 22.023,0.53 C 21.769,0.409 21.529,0.348 21.302,0.348 C 21.13,0.348 21.001,0.38 20.914,0.444 C 20.826,0.507 20.783,0.584 20.783,0.672 C 20.783,0.75 20.817,0.818 20.884,0.874 C 20.952,0.93 21.043,0.957 21.158,0.957 C 21.246,0.957 21.367,0.941 21.521,0.907 C 21.685,0.87 21.797,0.852 21.857,0.852 C 22.016,0.852 22.184,0.918 22.361,1.051 C 22.603,1.234 22.795,1.451 22.937,1.704 C 23.079,1.956 23.15,2.211 23.15,2.469 C 23.15,2.831 23.097,3.266 22.992,3.774 C 22.886,4.282 22.737,4.67 22.544,4.938 C 22.448,5.076 22.345,5.145 22.236,5.145 C 22.108,5.145 21.926,5.059 21.689,4.887 Z" fill-rule="nonzero" stroke-linejoin="round" stroke-linecap="round" stroke="none" fill="#000000" stroke-width="0.25" marker-start="none" marker-end="none" stroke-miterlimit="79.8403193612775"/>
    <path d="M 29.666,2.231 L 29.353,6.434 C 29.285,5.726 29.16,5.065 28.978,4.452 C 28.796,3.838 28.589,3.364 28.357,3.03 C 28.125,2.695 27.888,2.46 27.646,2.325 C 27.404,2.189 27.164,2.122 26.927,2.122 C 26.784,2.122 26.674,2.151 26.597,2.209 C 26.52,2.268 26.482,2.339 26.482,2.422 C 26.482,2.493 26.51,2.554 26.566,2.606 C 26.622,2.658 26.693,2.684 26.779,2.684 C 26.841,2.684 26.931,2.67 27.048,2.641 C 27.155,2.612 27.244,2.598 27.314,2.598 C 27.436,2.598 27.564,2.644 27.697,2.735 C 27.897,2.87 28.096,3.113 28.293,3.463 C 28.489,3.814 28.665,4.302 28.82,4.928 C 28.975,5.555 29.072,6.166 29.111,6.762 C 28.52,6.762 28.039,6.615 27.669,6.321 C 27.375,6.086 27.228,5.825 27.228,5.536 C 27.228,5.408 27.298,5.254 27.439,5.075 C 27.514,4.978 27.552,4.9 27.552,4.84 C 27.552,4.773 27.531,4.717 27.488,4.672 C 27.445,4.628 27.393,4.606 27.333,4.606 C 27.232,4.606 27.142,4.663 27.064,4.778 C 26.957,4.932 26.904,5.114 26.904,5.325 C 26.904,5.622 27.003,5.906 27.203,6.178 C 27.402,6.45 27.678,6.657 28.031,6.799 C 28.384,6.941 28.797,7.014 29.271,7.016 C 29.526,7.016 29.731,7.04 29.884,7.087 C 29.877,6.852 29.873,6.726 29.873,6.708 C 29.873,6.684 29.877,6.631 29.884,6.547 L 30.115,3.579 C 30.742,4.675 31.356,5.577 31.955,6.286 C 32.379,6.788 32.749,7.128 33.064,7.305 C 32.884,6.81 32.692,6.158 32.486,5.348 L 32.009,3.473 C 31.983,3.369 31.948,3.217 31.904,3.016 L 31.81,2.598 C 32.008,2.551 32.189,2.528 32.353,2.528 C 32.486,2.528 32.628,2.543 32.779,2.575 L 32.728,2.348 C 32.595,2.325 32.493,2.313 32.42,2.313 C 32.313,2.313 32.159,2.325 31.959,2.348 C 31.795,2.369 31.649,2.379 31.521,2.379 C 31.386,2.379 31.232,2.353 31.06,2.301 C 31.203,2.676 31.353,3.18 31.509,3.813 L 31.81,5.008 C 31.938,5.524 32.049,5.878 32.142,6.071 C 31.934,5.834 31.612,5.399 31.177,4.766 C 30.828,4.256 30.438,3.61 30.005,2.829 L 29.666,2.231 Z" fill-rule="nonzero" stroke-linejoin="round" stroke-linecap="round" stroke="none" fill="#000000" stroke-width="0.25" marker-start="none" marker-end="none" stroke-miterlimit="79.8403193612775"/>
    <path d="M 35.314,5.68 C 35.57,5.68 35.782,5.579 35.951,5.376 C 36.12,5.172 36.205,4.89 36.205,4.528 C 36.205,3.95 36.002,3.431 35.596,2.971 C 35.189,2.512 34.76,2.282 34.306,2.282 C 34.028,2.282 33.803,2.373 33.633,2.555 C 33.462,2.737 33.377,2.986 33.377,3.301 C 33.377,3.848 33.533,4.353 33.845,4.817 C 34.239,5.393 34.728,5.68 35.314,5.68 Z M 34.982,5.387 C 34.761,5.387 34.547,5.229 34.34,4.913 C 34.133,4.596 34.029,4.159 34.029,3.602 C 34.029,3.263 34.093,2.997 34.22,2.801 C 34.314,2.658 34.439,2.586 34.596,2.586 C 34.814,2.586 35.013,2.722 35.193,2.993 C 35.422,3.344 35.537,3.78 35.537,4.301 C 35.537,4.692 35.484,4.971 35.379,5.137 C 35.273,5.304 35.141,5.387 34.982,5.387 Z" fill-rule="nonzero" stroke-linejoin="round" stroke-linecap="round" stroke="none" fill="#000000" stroke-width="0.25" marker-start="none" marker-end="none" stroke-miterlimit="79.8403193612775"/>
    <path d="M 36.681,4.782 L 36.564,4.938 C 36.822,5.196 37.067,5.386 37.298,5.508 C 37.53,5.631 37.712,5.692 37.845,5.692 C 37.9,5.692 37.941,5.68 37.968,5.657 C 37.996,5.633 38.009,5.601 38.009,5.559 C 38.009,5.507 37.989,5.407 37.947,5.258 C 37.887,5.04 37.845,4.866 37.822,4.739 C 38.447,5.374 38.925,5.692 39.255,5.692 C 39.341,5.692 39.407,5.669 39.451,5.622 C 39.495,5.575 39.517,5.501 39.517,5.399 C 39.517,5.29 39.478,5.103 39.4,4.84 C 39.697,5.15 39.955,5.37 40.173,5.499 C 40.392,5.628 40.563,5.692 40.685,5.692 C 40.795,5.692 40.879,5.661 40.939,5.598 C 40.999,5.536 41.029,5.439 41.029,5.309 C 41.029,5.231 41.016,5.139 40.99,5.032 C 40.964,4.925 40.869,4.599 40.705,4.055 C 40.499,3.381 40.396,2.978 40.396,2.848 C 40.396,2.76 40.433,2.715 40.505,2.715 C 40.555,2.715 40.603,2.731 40.65,2.762 C 40.804,2.872 40.961,3.007 41.123,3.168 L 41.252,3.028 C 41.197,2.983 41.094,2.892 40.943,2.754 C 40.735,2.567 40.591,2.45 40.513,2.403 C 40.362,2.314 40.235,2.27 40.13,2.27 C 40.052,2.27 39.983,2.308 39.923,2.385 C 39.864,2.462 39.834,2.568 39.834,2.704 C 39.834,2.829 39.852,2.975 39.888,3.143 C 39.925,3.311 40.032,3.688 40.209,4.274 C 40.341,4.714 40.408,4.981 40.408,5.075 C 40.408,5.163 40.369,5.208 40.291,5.208 C 40.226,5.208 40.138,5.175 40.029,5.11 C 39.805,4.975 39.617,4.809 39.466,4.614 C 39.362,4.478 39.271,4.264 39.193,3.969 C 39.019,3.326 38.888,2.801 38.802,2.395 L 38.248,2.395 L 38.83,4.782 C 38.871,4.954 38.892,5.053 38.892,5.079 C 38.892,5.12 38.882,5.152 38.861,5.174 C 38.84,5.197 38.81,5.208 38.771,5.208 C 38.701,5.208 38.591,5.153 38.443,5.044 C 38.185,4.859 38,4.68 37.886,4.506 C 37.773,4.333 37.676,4.069 37.595,3.715 L 37.294,2.395 L 36.736,2.395 L 37.177,4.258 C 37.307,4.797 37.373,5.09 37.373,5.137 C 37.373,5.197 37.349,5.227 37.302,5.227 C 37.201,5.227 36.994,5.079 36.681,4.782 Z" fill-rule="nonzero" stroke-linejoin="round" stroke-linecap="round" stroke="none" fill="#000000" stroke-width="0.25" marker-start="none" marker-end="none" stroke-miterlimit="79.8403193612775"/>
    <path d="M 41.525,4.887 L 41.4,5.071 L 41.689,5.266 C 41.97,5.459 42.168,5.583 42.283,5.637 C 42.348,5.669 42.408,5.684 42.462,5.684 C 42.517,5.684 42.569,5.653 42.619,5.59 C 42.848,5.301 43.041,4.911 43.197,4.421 C 43.353,3.929 43.431,3.454 43.431,2.993 C 43.431,2.933 43.429,2.842 43.424,2.719 C 43.864,3.529 44.084,4.172 44.084,4.649 C 44.084,4.748 44.061,4.879 44.017,5.044 C 43.97,5.226 43.947,5.356 43.947,5.434 C 43.947,5.51 43.971,5.572 44.019,5.622 C 44.067,5.671 44.128,5.696 44.201,5.696 C 44.292,5.696 44.366,5.661 44.422,5.59 C 44.478,5.52 44.506,5.42 44.506,5.29 C 44.506,4.954 44.429,4.535 44.275,4.034 C 44.121,3.532 43.88,2.993 43.55,2.416 C 43.221,1.84 42.92,1.411 42.648,1.131 C 42.376,0.851 42.113,0.651 41.859,0.53 C 41.605,0.409 41.365,0.348 41.138,0.348 C 40.966,0.348 40.837,0.38 40.75,0.444 C 40.662,0.507 40.619,0.584 40.619,0.672 C 40.619,0.75 40.653,0.818 40.72,0.874 C 40.788,0.93 40.879,0.957 40.994,0.957 C 41.082,0.957 41.203,0.941 41.357,0.907 C 41.521,0.87 41.633,0.852 41.693,0.852 C 41.852,0.852 42.02,0.918 42.197,1.051 C 42.439,1.234 42.631,1.451 42.773,1.704 C 42.915,1.956 42.986,2.211 42.986,2.469 C 42.986,2.831 42.933,3.266 42.828,3.774 C 42.722,4.282 42.573,4.67 42.38,4.938 C 42.284,5.076 42.181,5.145 42.072,5.145 C 41.944,5.145 41.762,5.059 41.525,4.887 Z" fill-rule="nonzero" stroke-linejoin="round" stroke-linecap="round" stroke="none" fill="#000000" stroke-width="0.25" marker-start="none" marker-end="none" stroke-miterlimit="79.8403193612775"/>
    <path d="M 46.361,3.336 L 46.494,3.196 C 46.291,2.967 46.05,2.758 45.773,2.569 C 45.495,2.38 45.267,2.286 45.087,2.286 C 45.007,2.286 44.94,2.316 44.888,2.377 C 44.836,2.439 44.81,2.523 44.81,2.629 C 44.81,2.838 44.891,3.27 45.052,3.926 L 45.474,5.641 C 45.628,6.261 45.757,6.676 45.861,6.887 C 46.022,7.208 46.251,7.456 46.546,7.633 C 46.842,7.81 47.154,7.899 47.482,7.899 C 47.594,7.899 47.682,7.872 47.746,7.819 C 47.809,7.766 47.841,7.701 47.841,7.626 C 47.841,7.542 47.81,7.474 47.748,7.421 C 47.685,7.367 47.594,7.34 47.474,7.34 C 47.396,7.34 47.285,7.353 47.142,7.379 C 47.017,7.4 46.901,7.411 46.794,7.411 C 46.688,7.411 46.607,7.389 46.552,7.344 C 46.477,7.282 46.408,7.15 46.347,6.95 C 46.286,6.749 46.186,6.353 46.048,5.762 L 45.661,4.125 C 45.469,3.305 45.372,2.877 45.372,2.84 C 45.372,2.757 45.402,2.715 45.462,2.715 C 45.52,2.715 45.603,2.749 45.712,2.817 C 45.929,2.952 46.145,3.125 46.361,3.336 Z" fill-rule="nonzero" stroke-linejoin="round" stroke-linecap="round" stroke="none" fill="#000000" stroke-width="0.25" marker-start="none" marker-end="none" stroke-miterlimit="79.8403193612775"/>
    <path d="M 48.318,7.36 C 48.399,7.36 48.465,7.333 48.517,7.28 C 48.569,7.226 48.595,7.158 48.595,7.075 C 48.595,6.96 48.556,6.859 48.476,6.772 C 48.397,6.685 48.307,6.641 48.208,6.641 C 48.13,6.641 48.065,6.669 48.013,6.723 C 47.961,6.778 47.935,6.85 47.935,6.938 C 47.935,7.055 47.973,7.155 48.048,7.237 C 48.124,7.319 48.214,7.36 48.318,7.36 Z M 46.779,4.774 L 46.607,4.907 C 46.867,5.193 47.105,5.397 47.32,5.518 C 47.535,5.639 47.718,5.7 47.869,5.7 C 47.952,5.7 48.016,5.682 48.06,5.645 C 48.104,5.609 48.126,5.559 48.126,5.497 C 48.126,5.421 48.042,5.101 47.873,4.536 C 47.596,3.611 47.458,3.054 47.458,2.864 C 47.458,2.827 47.467,2.797 47.486,2.772 C 47.504,2.747 47.523,2.735 47.544,2.735 C 47.628,2.735 47.841,2.896 48.185,3.219 L 48.337,3.071 C 47.981,2.735 47.72,2.52 47.556,2.426 C 47.392,2.333 47.258,2.286 47.154,2.286 C 47.063,2.286 46.99,2.314 46.937,2.372 C 46.884,2.429 46.857,2.508 46.857,2.61 C 46.857,2.935 47.052,3.731 47.443,4.997 C 47.461,5.057 47.47,5.11 47.47,5.157 C 47.47,5.209 47.447,5.235 47.4,5.235 C 47.348,5.235 47.288,5.214 47.222,5.172 C 47.156,5.131 47.008,4.998 46.779,4.774 Z" fill-rule="nonzero" stroke-linejoin="round" stroke-linecap="round" stroke="none" fill="#000000" stroke-width="0.25" marker-start="none" marker-end="none" stroke-miterlimit="79.8403193612775"/>
    <path d="M 51.236,5.747 L 51.494,5.801 L 51.201,4.813 C 51.084,4.42 50.973,3.967 50.869,3.454 C 50.811,3.175 50.783,2.995 50.783,2.915 C 50.783,2.834 50.815,2.793 50.88,2.793 C 50.922,2.793 50.989,2.821 51.08,2.875 C 51.241,2.972 51.396,3.092 51.544,3.235 L 51.669,3.083 C 51.373,2.812 51.182,2.648 51.099,2.59 C 50.932,2.476 50.774,2.391 50.623,2.336 C 50.524,2.3 50.427,2.282 50.334,2.282 C 50.266,2.282 50.215,2.297 50.181,2.329 C 50.147,2.36 50.13,2.405 50.13,2.465 C 50.13,2.504 50.141,2.558 50.162,2.625 L 50.318,3.157 C 50.094,2.888 49.827,2.658 49.517,2.465 C 49.327,2.346 49.152,2.286 48.994,2.286 C 48.843,2.286 48.727,2.339 48.646,2.446 C 48.537,2.589 48.482,2.777 48.482,3.008 C 48.482,3.284 48.555,3.592 48.703,3.93 C 48.85,4.269 49.047,4.576 49.294,4.852 C 49.542,5.128 49.802,5.331 50.076,5.462 C 50.287,5.56 50.557,5.61 50.888,5.61 C 50.972,5.61 51.056,5.605 51.142,5.594 L 51.236,5.747 Z M 50.751,5.149 C 50.611,5.178 50.492,5.192 50.396,5.192 C 50.162,5.192 49.957,5.128 49.783,4.999 C 49.608,4.87 49.446,4.638 49.296,4.303 C 49.147,3.969 49.072,3.635 49.072,3.301 C 49.072,3.124 49.102,2.997 49.162,2.918 C 49.221,2.84 49.3,2.801 49.396,2.801 C 49.576,2.801 49.768,2.898 49.974,3.092 C 50.18,3.286 50.331,3.566 50.427,3.93 L 50.751,5.149 Z" fill-rule="nonzero" stroke-linejoin="round" stroke-linecap="round" stroke="none" fill="#000000" stroke-width="0.25" marker-start="none" marker-end="none" stroke-miterlimit="79.8403193612775"/>
    <path d="M 71.169,19.418 C 71.519,19.418 71.86,19.328 72.192,19.149 C 72.524,18.97 72.783,18.713 72.969,18.379 C 73.156,18.045 73.249,17.696 73.249,17.333 C 73.249,16.973 73.157,16.627 72.974,16.296 C 72.79,15.964 72.533,15.707 72.203,15.524 C 71.873,15.34 71.529,15.249 71.169,15.249 C 70.81,15.249 70.466,15.34 70.137,15.524 C 69.807,15.707 69.551,15.964 69.367,16.296 C 69.184,16.627 69.092,16.973 69.092,17.333 C 69.092,17.696 69.185,18.045 69.372,18.379 C 69.558,18.713 69.818,18.97 70.15,19.149 C 70.482,19.328 70.822,19.418 71.169,19.418 Z M 71.169,19.239 C 70.851,19.239 70.54,19.156 70.238,18.992 C 69.935,18.827 69.699,18.592 69.529,18.288 C 69.359,17.983 69.274,17.665 69.274,17.333 C 69.274,17.004 69.357,16.689 69.524,16.387 C 69.691,16.085 69.925,15.85 70.226,15.681 C 70.527,15.512 70.841,15.428 71.169,15.428 C 71.497,15.428 71.812,15.512 72.114,15.681 C 72.416,15.85 72.65,16.085 72.817,16.387 C 72.984,16.689 73.067,17.004 73.067,17.333 C 73.067,17.665 72.983,17.983 72.813,18.288 C 72.643,18.592 72.406,18.827 72.104,18.992 C 71.801,19.156 71.489,19.239 71.169,19.239 Z M 70.021,18.615 L 71.152,18.615 C 71.435,18.615 71.651,18.551 71.799,18.423 C 71.947,18.294 72.022,18.139 72.022,17.957 C 72.022,17.808 71.971,17.677 71.871,17.564 C 71.77,17.452 71.604,17.365 71.371,17.304 L 71.984,16.428 C 72.058,16.324 72.124,16.252 72.183,16.213 C 72.22,16.19 72.272,16.175 72.338,16.169 L 72.338,16.072 L 71.799,16.072 L 70.938,17.263 L 70.715,17.263 L 70.715,16.354 C 70.727,16.29 70.755,16.243 70.799,16.213 C 70.843,16.184 70.93,16.169 71.061,16.169 L 71.061,16.072 L 69.986,16.072 L 69.986,16.169 C 70.079,16.169 70.146,16.18 70.185,16.203 C 70.224,16.225 70.252,16.258 70.27,16.301 C 70.283,16.333 70.29,16.424 70.29,16.575 L 70.29,18.113 C 70.29,18.258 70.287,18.343 70.281,18.368 C 70.268,18.414 70.243,18.448 70.207,18.473 C 70.171,18.497 70.109,18.51 70.021,18.51 L 70.021,18.615 Z M 70.715,17.389 C 70.946,17.389 71.114,17.412 71.22,17.457 C 71.327,17.502 71.408,17.565 71.465,17.647 C 71.522,17.728 71.55,17.821 71.55,17.924 C 71.55,18.083 71.495,18.217 71.385,18.324 C 71.274,18.432 71.133,18.486 70.961,18.486 C 70.887,18.486 70.805,18.47 70.715,18.439 L 70.715,17.389 Z" fill-rule="nonzero" stroke-linejoin="round" stroke-linecap="round" stroke="none" fill="#000000" stroke-width="0.118" marker-start="none" marker-end="none" stroke-miterlimit="79.8403193612775"/>
    <path d="M 35.633,17.751 L 35.992,17.524 C 36.11,17.449 36.254,17.285 36.314,17.158 L 36.496,16.769 C 36.556,16.641 36.664,16.635 36.737,16.755 L 36.96,17.121 C 37.033,17.241 37.194,17.388 37.319,17.449 L 37.701,17.635 C 37.826,17.696 37.831,17.806 37.714,17.88 L 37.354,18.107 C 37.237,18.182 37.093,18.346 37.033,18.473 L 36.851,18.862 C 36.791,18.99 36.683,18.996 36.61,18.876 L 36.387,18.51 C 36.314,18.39 36.153,18.243 36.028,18.182 L 35.646,17.996 C 35.521,17.935 35.515,17.825 35.633,17.751 Z" stroke-width="0.188" stroke-linecap="round" stroke="#000000" stroke-linejoin="miter" fill="#eeeeee" marker-start="none" marker-end="none" stroke-miterlimit="79.8403193612775"/>
    <path d="M 3.684,16.851 L 4.043,16.624 C 4.161,16.549 4.305,16.385 4.365,16.258 L 4.547,15.869 C 4.607,15.741 4.715,15.735 4.788,15.855 L 5.011,16.221 C 5.084,16.341 5.245,16.488 5.37,16.549 L 5.752,16.735 C 5.877,16.796 5.882,16.906 5.765,16.98 L 5.405,17.207 C 5.288,17.282 5.144,17.446 5.084,17.573 L 4.902,17.962 C 4.842,18.09 4.734,18.096 4.661,17.976 L 4.438,17.61 C 4.365,17.49 4.204,17.343 4.079,17.282 L 3.697,17.096 C 3.572,17.035 3.566,16.925 3.684,16.851 Z" stroke-width="0.188" stroke-linecap="round" stroke="#000000" stroke-linejoin="miter" fill="#eeeeee" marker-start="none" marker-end="none" stroke-miterlimit="79.8403193612775"/>
    <path d="M 7.959,4.777 L 8.318,4.55 C 8.436,4.475 8.58,4.311 8.64,4.184 L 8.822,3.795 C 8.882,3.667 8.99,3.661 9.063,3.781 L 9.286,4.147 C 9.359,4.267 9.52,4.414 9.645,4.475 L 10.027,4.661 C 10.152,4.722 10.157,4.832 10.04,4.906 L 9.68,5.133 C 9.563,5.208 9.419,5.372 9.359,5.499 L 9.177,5.888 C 9.117,6.016 9.009,6.022 8.936,5.902 L 8.713,5.536 C 8.64,5.416 8.479,5.269 8.354,5.208 L 7.972,5.022 C 7.847,4.961 7.841,4.851 7.959,4.777 Z" stroke-width="0.188" stroke-linecap="round" stroke="#000000" stroke-linejoin="miter" fill="#eeeeee" marker-start="none" marker-end="none" stroke-miterlimit="79.8403193612775"/>
    <path d="M 59.557,4.852 L 59.916,4.625 C 60.034,4.55 60.178,4.386 60.238,4.259 L 60.42,3.87 C 60.48,3.742 60.588,3.736 60.661,3.856 L 60.884,4.222 C 60.957,4.342 61.118,4.489 61.243,4.55 L 61.625,4.736 C 61.75,4.797 61.755,4.907 61.638,4.981 L 61.278,5.208 C 61.161,5.283 61.017,5.447 60.957,5.574 L 60.775,5.963 C 60.715,6.091 60.607,6.097 60.534,5.977 L 60.311,5.611 C 60.238,5.491 60.077,5.344 59.952,5.283 L 59.57,5.097 C 59.445,5.036 59.439,4.926 59.557,4.852 Z" stroke-width="0.188" stroke-linecap="round" stroke="#000000" stroke-linejoin="miter" fill="#eeeeee" marker-start="none" marker-end="none" stroke-miterlimit="79.8403193612775"/>
    <path d="M 69.607,8.452 L 69.966,8.225 C 70.084,8.15 70.228,7.986 70.288,7.859 L 70.47,7.47 C 70.53,7.342 70.638,7.336 70.711,7.456 L 70.934,7.822 C 71.007,7.942 71.168,8.089 71.293,8.15 L 71.675,8.336 C 71.8,8.397 71.805,8.507 71.688,8.581 L 71.328,8.808 C 71.211,8.883 71.067,9.047 71.007,9.174 L 70.825,9.563 C 70.765,9.691 70.657,9.697 70.584,9.577 L 70.361,9.211 C 70.288,9.091 70.127,8.944 70.002,8.883 L 69.62,8.697 C 69.495,8.636 69.489,8.526 69.607,8.452 Z" stroke-width="0.188" stroke-linecap="round" stroke="#000000" stroke-linejoin="miter" fill="#eeeeee" marker-start="none" marker-end="none" stroke-miterlimit="79.8403193612775"/>
   </g>
  </g>
 </g>
</svg>
