<?xml version="1.0" standalone="no"?>
<!DOCTYPE svg PUBLIC "-//W3C//DTD SVG 1.1//EN" "http://www.w3.org/Graphics/SVG/1.1/DTD/svg11.dtd">
<!--Generator: Xara Designer (www.xara.com), SVG filter version: 5.0.0.2-->
<svg stroke-width="0.501" stroke-linejoin="bevel" fill-rule="evenodd" xmlns:xlink="http://www.w3.org/1999/xlink" xmlns="http://www.w3.org/2000/svg" version="1.1" overflow="visible" width="80.25pt" height="20.25pt" viewBox="0 0 80.25 20.25">
 <defs>
  <marker id="DefaultArrow2" markerUnits="strokeWidth" viewBox="0 0 1 1" markerWidth="1" markerHeight="1" overflow="visible" orient="auto">
   <!-- REF_ARROW_STRAIGHT (-2) -->
   <g transform="scale(0.0092592592)">
    <!-- 1/108 -->
    <path d="M -9 54 L -9 -54 L 117 0 z"/>
   </g>
  </marker>
  <marker id="DefaultArrow3" markerUnits="strokeWidth" viewBox="0 0 1 1" markerWidth="1" markerHeight="1" overflow="visible" orient="auto">
   <!-- REF_ARROW_ANGLED -->
   <g transform="scale(0.0092592592)">
    <path d="M -27 54 L -9 0 L -27 -54 L 135 0 z"/>
   </g>
  </marker>
  <marker id="DefaultArrow4" markerUnits="strokeWidth" viewBox="0 0 1 1" markerWidth="1" markerHeight="1" overflow="visible" orient="auto">
   <!-- REF_ARROW_ROUNDED -->
   <g transform="scale(0.0092592592)">
    <path d="M -9,0 L -9,-45 C -9,-51.708 2.808,-56.580 9,-54 L 117,-9 C 120.916,-7.369 126.000,-4.242 126,0 C 126,4.242 120.916,7.369 117,9 L 9,54 C 2.808,56.580 -9,51.708 -9,45 z"/>
   </g>
  </marker>
  <marker id="DefaultArrow5" markerUnits="strokeWidth" viewBox="0 0 1 1" markerWidth="1" markerHeight="1" overflow="visible" orient="auto">
   <!-- REF_ARROW_SPOT -->
   <g transform="scale(0.0092592592)">
    <path d="M -54, 0 C -54,29.807 -29.807,54 0,54 C 29.807,54 54,29.807 54,0 C 54,-29.807 29.807,-54 0,-54 C -29.807,-54 -54,-29.807 -54,0 z"/>
   </g>
  </marker>
  <marker id="DefaultArrow6" markerUnits="strokeWidth" viewBox="0 0 1 1" markerWidth="1" markerHeight="1" overflow="visible" orient="auto">
   <!-- REF_ARROW_DIAMOND -->
   <g transform="scale(0.0092592592)">
    <path d="M -63,0 L 0,63 L 63,0 L 0,-63 z"/>
   </g>
  </marker>
  <marker id="DefaultArrow7" markerUnits="strokeWidth" viewBox="0 0 1 1" markerWidth="1" markerHeight="1" overflow="visible" orient="auto">
   <!-- REF_ARROW_FEATHER -->
   <g transform="scale(0.0092592592)">
    <path d="M 18,-54 L 108,-54 L 63,0 L 108,54 L 18, 54 L -36,0 z"/>
   </g>
  </marker>
  <marker id="DefaultArrow8" markerUnits="strokeWidth" viewBox="0 0 1 1" markerWidth="1" markerHeight="1" overflow="visible" orient="auto">
   <!-- REF_ARROW_FEATHER2 -->
   <g transform="scale(0.0092592592)">
    <path d="M -36,0 L 18,-54 L 54,-54 L 18,-18 L 27,-18 L 63,-54 L 99,-54 L 63,-18 L 72,-18 L 108,-54 L 144,-54 L 90,0 L 144,54 L 108,54 L 72,18 L 63,18 L 99,54 L 63,54 L 27,18 L 18,18 L 54,54 L 18,54 z"/>
   </g>
  </marker>
  <marker id="DefaultArrow9" markerUnits="strokeWidth" viewBox="0 0 1 1" markerWidth="1" markerHeight="1" overflow="visible" orient="auto">
   <!-- REF_ARROW_HOLLOWDIAMOND -->
   <g transform="scale(0.0092592592)">
    <path d="M 0,45 L -45,0 L 0, -45 L 45, 0 z M 0, 63 L-63, 0 L 0, -63 L 63, 0 z"/>
   </g>
  </marker>
  <filter id="StainedFilter">
   <feBlend mode="multiply" in2="BackgroundImage" in="SourceGraphic" result="blend"/>
   <feComposite in="blend" in2="SourceAlpha" operator="in" result="comp"/>
  </filter>
  <filter id="BleachFilter">
   <feBlend mode="screen" in2="BackgroundImage" in="SourceGraphic" result="blend"/>
   <feComposite in="blend" in2="SourceAlpha" operator="in" result="comp"/>
  </filter>
  <filter id="InvertTransparencyBitmapFilter">
   <feComponentTransfer>
    <feFuncR type="gamma" amplitude="1.055" exponent=".416666666" offset="-0.055"/>
    <feFuncG type="gamma" amplitude="1.055" exponent=".416666666" offset="-0.055"/>
    <feFuncB type="gamma" amplitude="1.055" exponent=".416666666" offset="-0.055"/>
   </feComponentTransfer>
   <feComponentTransfer>
    <feFuncR type="linear" slope="-1" intercept="1"/>
    <feFuncG type="linear" slope="-1" intercept="1"/>
    <feFuncB type="linear" slope="-1" intercept="1"/>
    <feFuncA type="linear" slope="1" intercept="0"/>
   </feComponentTransfer>
   <feComponentTransfer>
    <feFuncR type="gamma" amplitude="1" exponent="2.4" offset="0"/>
    <feFuncG type="gamma" amplitude="1" exponent="2.4" offset="0"/>
    <feFuncB type="gamma" amplitude="1" exponent="2.4" offset="0"/>
   </feComponentTransfer>
  </filter>
 </defs>
 <g id="Document" fill="none" stroke="black" font-family="Times New Roman" font-size="16" transform="scale(1 -1)">
  <g id="Spread" transform="translate(0 -20.25)">
   <g id="Layer 1">
    <path d="M 10.013,16.732 L 10.095,17.039 C 10.756,17.103 11.321,17.194 11.79,17.313 C 11.677,16.994 11.553,16.577 11.421,16.062 L 10.915,14.141 L 11.544,14.1 C 11.836,14.086 12.154,14.159 12.498,14.319 C 12.842,14.478 13.149,14.759 13.421,15.16 C 13.692,15.561 13.827,15.994 13.827,16.458 C 13.827,16.918 13.662,17.283 13.332,17.552 C 13.001,17.821 12.497,17.955 11.818,17.955 C 11.043,17.955 10.284,17.763 9.541,17.378 C 8.799,16.993 8.226,16.5 7.822,15.901 C 7.419,15.302 7.217,14.711 7.217,14.127 C 7.217,13.84 7.269,13.591 7.374,13.379 C 7.479,13.167 7.666,12.958 7.935,12.753 C 8.158,12.589 8.27,12.43 8.27,12.275 C 8.27,12.174 8.234,12.09 8.161,12.022 C 8.088,11.954 8.001,11.919 7.901,11.919 C 7.632,11.919 7.372,12.104 7.122,12.473 C 6.871,12.842 6.745,13.309 6.745,13.874 C 6.745,14.909 7.142,15.852 7.935,16.704 C 8.974,17.826 10.369,18.386 12.118,18.386 C 12.784,18.386 13.33,18.299 13.756,18.126 C 14.182,17.953 14.501,17.716 14.713,17.415 C 14.924,17.115 15.03,16.789 15.031,16.438 C 15.03,15.991 14.881,15.553 14.583,15.122 C 14.284,14.691 13.845,14.344 13.264,14.079 C 12.683,13.815 12.037,13.683 11.326,13.683 C 11.216,13.683 11.045,13.69 10.813,13.703 L 10.273,11.578 C 10.182,11.217 10.079,10.862 9.965,10.511 C 10.321,10.424 10.63,10.381 10.895,10.381 C 11.228,10.381 11.585,10.445 11.968,10.573 L 11.886,10.19 C 11.531,10.094 11.23,10.046 10.984,10.046 C 10.747,10.046 10.4,10.071 9.945,10.121 C 9.58,10.167 9.284,10.19 9.056,10.19 C 8.614,10.19 8.161,10.137 7.696,10.032 L 7.778,10.395 C 8.252,10.473 8.575,10.584 8.748,10.73 C 8.995,10.935 9.195,11.347 9.35,11.967 L 10.382,16.062 C 10.428,16.253 10.451,16.388 10.451,16.465 C 10.451,16.538 10.421,16.603 10.362,16.66 C 10.302,16.717 10.232,16.745 10.15,16.745 C 10.118,16.745 10.072,16.741 10.013,16.732 Z" fill-rule="nonzero" stroke-linejoin="round" stroke-linecap="round" stroke="none" stroke-width="0.386" fill="#000000" marker-start="none" marker-end="none" stroke-miterlimit="79.8403193612775"/>
    <path d="M 18.059,11.906 L 18.285,11.605 C 17.168,10.543 16.212,10.012 15.414,10.012 C 15.09,10.012 14.843,10.122 14.672,10.34 C 14.501,10.559 14.416,10.91 14.416,11.393 C 14.416,12.368 14.712,13.339 15.305,14.305 C 15.97,15.403 16.765,15.952 17.69,15.952 C 18.014,15.952 18.261,15.872 18.432,15.71 C 18.603,15.548 18.688,15.326 18.688,15.043 C 18.688,14.747 18.586,14.455 18.381,14.168 C 18.175,13.881 17.809,13.583 17.28,13.273 C 17.016,13.122 16.451,12.851 15.585,12.459 C 15.544,12.213 15.523,11.979 15.523,11.755 C 15.523,11.432 15.575,11.206 15.677,11.078 C 15.78,10.951 15.929,10.887 16.125,10.887 C 16.312,10.887 16.517,10.94 16.74,11.044 C 17.041,11.186 17.481,11.473 18.059,11.906 Z M 15.667,12.897 C 16.401,13.225 16.952,13.578 17.321,13.956 C 17.572,14.221 17.697,14.483 17.697,14.742 C 17.697,14.938 17.646,15.094 17.543,15.211 C 17.441,15.327 17.307,15.385 17.143,15.385 C 16.975,15.385 16.811,15.321 16.651,15.194 C 16.437,15.025 16.257,14.77 16.111,14.428 C 15.902,13.927 15.754,13.416 15.667,12.897 Z" fill-rule="nonzero" stroke-linejoin="round" stroke-linecap="round" stroke="none" stroke-width="0.386" fill="#000000" marker-start="none" marker-end="none" stroke-miterlimit="79.8403193612775"/>
    <path d="M 20.5,10.19 L 19.482,10.19 L 19.96,12.029 C 20.192,12.931 20.395,13.788 20.568,14.599 C 20.609,14.799 20.63,14.925 20.63,14.975 C 20.63,15.084 20.58,15.139 20.48,15.139 C 20.411,15.139 20.306,15.092 20.165,14.999 C 20.024,14.905 19.769,14.674 19.399,14.305 L 19.188,14.544 C 19.625,15.014 20.061,15.366 20.497,15.6 C 20.932,15.835 21.266,15.952 21.498,15.952 C 21.58,15.952 21.645,15.933 21.693,15.894 C 21.741,15.855 21.765,15.806 21.765,15.747 C 21.765,15.688 21.735,15.531 21.676,15.276 L 21.382,14.052 C 21.842,14.777 22.362,15.397 22.94,15.911 C 23.219,16.158 23.451,16.281 23.638,16.281 C 23.774,16.281 23.888,16.236 23.98,16.147 C 24.071,16.058 24.116,15.955 24.116,15.836 C 24.116,15.713 24.072,15.609 23.983,15.522 C 23.894,15.435 23.672,15.333 23.316,15.214 C 22.979,15.1 22.705,14.964 22.493,14.804 C 22.281,14.644 22.048,14.401 21.795,14.073 C 21.543,13.744 21.366,13.459 21.266,13.215 C 21.165,12.971 21.013,12.404 20.808,11.516 L 20.5,10.19 Z" fill-rule="nonzero" stroke-linejoin="round" stroke-linecap="round" stroke="none" stroke-width="0.386" fill="#000000" marker-start="none" marker-end="none" stroke-miterlimit="79.8403193612775"/>
    <path d="M 26.276,11.837 L 26.509,11.591 C 26.153,11.19 25.733,10.824 25.247,10.494 C 24.762,10.164 24.362,9.998 24.048,9.998 C 23.906,9.998 23.79,10.052 23.699,10.159 C 23.608,10.266 23.562,10.413 23.562,10.6 C 23.562,10.964 23.703,11.721 23.986,12.869 L 24.724,15.87 C 24.993,16.955 25.219,17.682 25.401,18.051 C 25.684,18.612 26.084,19.047 26.601,19.357 C 27.118,19.667 27.664,19.822 28.238,19.822 C 28.434,19.822 28.588,19.775 28.699,19.681 C 28.811,19.588 28.867,19.475 28.867,19.343 C 28.867,19.197 28.812,19.078 28.703,18.984 C 28.593,18.891 28.434,18.844 28.224,18.844 C 28.088,18.844 27.894,18.867 27.643,18.912 C 27.425,18.949 27.222,18.967 27.035,18.967 C 26.848,18.967 26.707,18.928 26.611,18.851 C 26.479,18.742 26.359,18.511 26.252,18.16 C 26.145,17.809 25.971,17.117 25.729,16.082 L 25.052,13.218 C 24.715,11.782 24.547,11.033 24.547,10.969 C 24.547,10.823 24.599,10.75 24.704,10.75 C 24.804,10.75 24.95,10.81 25.141,10.928 C 25.52,11.165 25.898,11.468 26.276,11.837 Z" fill-rule="nonzero" stroke-linejoin="round" stroke-linecap="round" stroke="none" stroke-width="0.386" fill="#000000" marker-start="none" marker-end="none" stroke-miterlimit="79.8403193612775"/>
    <path d="M 30.371,11.906 L 30.597,11.605 C 29.48,10.543 28.524,10.012 27.726,10.012 C 27.402,10.012 27.155,10.122 26.984,10.34 C 26.813,10.559 26.728,10.91 26.728,11.393 C 26.728,12.368 27.024,13.339 27.617,14.305 C 28.282,15.403 29.077,15.952 30.002,15.952 C 30.326,15.952 30.573,15.872 30.744,15.71 C 30.915,15.548 31,15.326 31,15.043 C 31,14.747 30.898,14.455 30.693,14.168 C 30.487,13.881 30.121,13.583 29.592,13.273 C 29.328,13.122 28.763,12.851 27.897,12.459 C 27.856,12.213 27.835,11.979 27.835,11.755 C 27.835,11.432 27.887,11.206 27.989,11.078 C 28.092,10.951 28.241,10.887 28.437,10.887 C 28.624,10.887 28.829,10.94 29.052,11.044 C 29.353,11.186 29.793,11.473 30.371,11.906 Z M 27.979,12.897 C 28.713,13.225 29.264,13.578 29.633,13.956 C 29.884,14.221 30.009,14.483 30.009,14.742 C 30.009,14.938 29.958,15.094 29.855,15.211 C 29.753,15.327 29.619,15.385 29.455,15.385 C 29.287,15.385 29.123,15.321 28.963,15.194 C 28.749,15.025 28.569,14.77 28.423,14.428 C 28.214,13.927 28.066,13.416 27.979,12.897 Z" fill-rule="nonzero" stroke-linejoin="round" stroke-linecap="round" stroke="none" stroke-width="0.386" fill="#000000" marker-start="none" marker-end="none" stroke-miterlimit="79.8403193612775"/>
    <path d="M 39.887,11.605 L 40.078,11.345 C 39.468,10.83 39.014,10.488 38.718,10.32 C 38.308,10.087 37.985,9.971 37.747,9.971 C 37.638,9.971 37.549,10.002 37.481,10.063 C 37.412,10.125 37.378,10.194 37.378,10.272 C 37.378,10.349 37.403,10.477 37.453,10.655 L 37.693,11.489 C 37.146,10.901 36.69,10.502 36.326,10.292 C 35.961,10.083 35.633,9.978 35.341,9.978 C 35.1,9.978 34.897,10.084 34.733,10.296 C 34.569,10.508 34.487,10.819 34.487,11.229 C 34.487,11.876 34.709,12.62 35.153,13.461 C 35.598,14.301 36.092,14.924 36.637,15.327 C 37.181,15.73 37.679,15.932 38.13,15.932 C 38.23,15.932 38.381,15.916 38.581,15.884 C 38.796,16.773 39.001,17.421 39.197,17.829 C 39.393,18.237 39.646,18.589 39.955,18.885 C 40.265,19.181 40.62,19.41 41.018,19.572 C 41.417,19.734 41.79,19.815 42.136,19.815 C 42.318,19.815 42.464,19.767 42.574,19.671 C 42.683,19.576 42.737,19.455 42.738,19.309 C 42.737,19.168 42.687,19.052 42.587,18.964 C 42.487,18.875 42.35,18.83 42.177,18.83 C 42.063,18.83 41.851,18.853 41.541,18.899 C 41.231,18.944 41.02,18.967 40.906,18.967 C 40.746,18.967 40.606,18.918 40.485,18.82 C 40.364,18.722 40.249,18.511 40.14,18.188 C 40.067,17.983 39.901,17.329 39.641,16.226 L 38.67,12.097 C 38.556,11.609 38.499,11.286 38.499,11.126 C 38.499,10.953 38.565,10.866 38.698,10.866 C 38.78,10.866 38.875,10.896 38.985,10.956 C 39.14,11.042 39.44,11.258 39.887,11.605 Z M 38.438,15.132 C 38.073,15.214 37.816,15.255 37.665,15.255 C 37.36,15.255 37.062,15.135 36.77,14.896 C 36.478,14.657 36.197,14.193 35.926,13.505 C 35.654,12.817 35.519,12.218 35.519,11.707 C 35.519,11.475 35.581,11.285 35.707,11.137 C 35.832,10.988 35.975,10.914 36.134,10.914 C 36.326,10.914 36.544,10.999 36.79,11.167 C 37.141,11.418 37.419,11.723 37.624,12.083 C 37.747,12.311 37.914,12.869 38.123,13.758 L 38.438,15.132 Z" fill-rule="nonzero" stroke-linejoin="round" stroke-linecap="round" stroke="none" stroke-width="0.386" fill="#000000" marker-start="none" marker-end="none" stroke-miterlimit="79.8403193612775"/>
    <path d="M 41.278,10.149 C 41.185,10.249 41.138,10.388 41.138,10.566 C 41.138,11.136 41.48,12.528 42.163,14.742 C 42.195,14.847 42.211,14.941 42.211,15.023 C 42.211,15.114 42.17,15.16 42.088,15.16 C 41.997,15.16 41.893,15.123 41.777,15.05 C 41.661,14.977 41.402,14.745 41.001,14.353 L 40.7,14.585 C 41.156,15.086 41.572,15.443 41.948,15.655 C 42.324,15.867 42.644,15.973 42.908,15.973 C 43.054,15.973 43.166,15.941 43.243,15.877 C 43.321,15.813 43.36,15.727 43.36,15.617 C 43.36,15.485 43.211,14.925 42.915,13.936 C 42.432,12.318 42.191,11.343 42.191,11.01 C 42.191,10.946 42.206,10.893 42.238,10.85 C 42.27,10.806 42.304,10.785 42.341,10.785 C 42.487,10.785 42.861,11.067 43.462,11.632 L 43.729,11.372 C 43.104,10.784 42.649,10.409 42.361,10.244 C 42.074,10.081 41.84,9.998 41.657,9.998 C 41.498,9.998 41.372,10.049 41.278,10.149 Z" fill-rule="nonzero" stroke-linejoin="round" stroke-linecap="round" stroke="none" stroke-width="0.386" fill="#000000" marker-start="none" marker-end="none" stroke-miterlimit="79.8403193612775"/>
    <path d="M 53.06,15.734 L 52.705,15.734 C 52.755,16.212 52.78,16.575 52.78,16.821 C 52.78,17.171 52.685,17.448 52.496,17.651 C 52.307,17.854 52.051,17.955 51.727,17.955 C 51.226,17.955 50.788,17.774 50.415,17.412 C 50.041,17.05 49.854,16.643 49.854,16.192 C 49.854,15.95 49.905,15.731 50.008,15.535 C 50.11,15.339 50.337,15.066 50.688,14.715 C 51.331,14.086 51.752,13.594 51.953,13.239 C 52.153,12.883 52.254,12.537 52.253,12.2 C 52.254,11.703 52.102,11.224 51.799,10.764 C 51.496,10.304 51.049,9.924 50.459,9.626 C 49.869,9.327 49.246,9.178 48.59,9.178 C 47.942,9.178 47.397,9.347 46.952,9.684 C 46.508,10.021 46.286,10.377 46.286,10.75 C 46.286,10.951 46.344,11.117 46.46,11.249 C 46.576,11.382 46.71,11.448 46.86,11.448 C 47.015,11.448 47.142,11.386 47.243,11.263 C 47.307,11.19 47.37,11.026 47.434,10.771 C 47.507,10.461 47.596,10.236 47.701,10.097 C 47.806,9.959 47.95,9.845 48.135,9.756 C 48.319,9.667 48.521,9.622 48.74,9.622 C 49.391,9.622 49.961,9.842 50.449,10.282 C 50.936,10.722 51.18,11.208 51.18,11.741 C 51.18,11.924 51.15,12.105 51.088,12.285 C 51.026,12.465 50.914,12.669 50.75,12.897 C 50.636,13.052 50.383,13.325 49.991,13.717 C 49.604,14.1 49.36,14.362 49.259,14.503 C 49.118,14.708 49.013,14.915 48.945,15.122 C 48.876,15.329 48.842,15.536 48.842,15.741 C 48.842,16.155 48.981,16.572 49.259,16.991 C 49.537,17.411 49.898,17.745 50.343,17.993 C 50.787,18.241 51.292,18.366 51.857,18.366 C 52.139,18.366 52.488,18.322 52.903,18.236 C 53.14,18.19 53.345,18.156 53.518,18.133 C 53.418,17.837 53.34,17.558 53.286,17.296 C 53.231,17.034 53.156,16.513 53.06,15.734 Z" fill-rule="nonzero" stroke-linejoin="round" stroke-linecap="round" stroke="none" stroke-width="0.386" fill="#000000" marker-start="none" marker-end="none" stroke-miterlimit="79.8403193612775"/>
    <path d="M 55.568,16.991 L 56.655,17.408 L 56.163,15.494 L 57.578,15.494 L 57.469,15.009 L 56.054,15.009 L 55.452,12.719 C 55.265,12.031 55.172,11.552 55.172,11.284 C 55.172,11.16 55.198,11.072 55.251,11.017 C 55.303,10.962 55.375,10.935 55.466,10.935 C 55.607,10.935 55.824,11.019 56.115,11.188 C 56.498,11.411 56.863,11.664 57.209,11.947 L 57.469,11.632 C 56.471,10.88 55.803,10.42 55.466,10.251 C 55.129,10.083 54.858,9.998 54.652,9.998 C 54.484,9.998 54.35,10.06 54.252,10.183 C 54.154,10.306 54.106,10.507 54.106,10.785 C 54.106,11.113 54.192,11.614 54.365,12.288 L 55.07,15.009 L 53.962,15.009 L 54.085,15.494 L 55.186,15.494 L 55.568,16.991 Z" fill-rule="nonzero" stroke-linejoin="round" stroke-linecap="round" stroke="none" stroke-width="0.386" fill="#000000" marker-start="none" marker-end="none" stroke-miterlimit="79.8403193612775"/>
    <path d="M 61.713,11.906 L 61.939,11.605 C 60.822,10.543 59.866,10.012 59.068,10.012 C 58.744,10.012 58.497,10.122 58.326,10.34 C 58.155,10.559 58.07,10.91 58.07,11.393 C 58.07,12.368 58.366,13.339 58.959,14.305 C 59.624,15.403 60.419,15.952 61.344,15.952 C 61.668,15.952 61.915,15.872 62.086,15.71 C 62.257,15.548 62.342,15.326 62.342,15.043 C 62.342,14.747 62.24,14.455 62.035,14.168 C 61.829,13.881 61.463,13.583 60.934,13.273 C 60.67,13.122 60.105,12.851 59.239,12.459 C 59.198,12.213 59.177,11.979 59.177,11.755 C 59.177,11.432 59.229,11.206 59.331,11.078 C 59.434,10.951 59.583,10.887 59.779,10.887 C 59.966,10.887 60.171,10.94 60.394,11.044 C 60.695,11.186 61.135,11.473 61.713,11.906 Z M 59.321,12.897 C 60.055,13.225 60.606,13.578 60.975,13.956 C 61.226,14.221 61.351,14.483 61.351,14.742 C 61.351,14.938 61.3,15.094 61.197,15.211 C 61.095,15.327 60.961,15.385 60.797,15.385 C 60.629,15.385 60.465,15.321 60.305,15.194 C 60.091,15.025 59.911,14.77 59.765,14.428 C 59.556,13.927 59.408,13.416 59.321,12.897 Z" fill-rule="nonzero" stroke-linejoin="round" stroke-linecap="round" stroke="none" stroke-width="0.386" fill="#000000" marker-start="none" marker-end="none" stroke-miterlimit="79.8403193612775"/>
    <path d="M 65.733,11.837 L 65.966,11.591 C 65.61,11.19 65.19,10.824 64.704,10.494 C 64.219,10.164 63.819,9.998 63.505,9.998 C 63.363,9.998 63.247,10.052 63.156,10.159 C 63.065,10.266 63.019,10.413 63.019,10.6 C 63.019,10.964 63.16,11.721 63.443,12.869 L 64.181,15.87 C 64.45,16.955 64.676,17.682 64.858,18.051 C 65.141,18.612 65.541,19.047 66.058,19.357 C 66.575,19.667 67.121,19.822 67.695,19.822 C 67.891,19.822 68.045,19.775 68.156,19.681 C 68.268,19.588 68.324,19.475 68.324,19.343 C 68.324,19.197 68.269,19.078 68.16,18.984 C 68.05,18.891 67.891,18.844 67.681,18.844 C 67.545,18.844 67.351,18.867 67.1,18.912 C 66.882,18.949 66.679,18.967 66.492,18.967 C 66.305,18.967 66.164,18.928 66.068,18.851 C 65.936,18.742 65.816,18.511 65.709,18.16 C 65.602,17.809 65.428,17.117 65.186,16.082 L 64.509,13.218 C 64.172,11.782 64.004,11.033 64.004,10.969 C 64.004,10.823 64.056,10.75 64.161,10.75 C 64.261,10.75 64.407,10.81 64.598,10.928 C 64.977,11.165 65.355,11.468 65.733,11.837 Z" fill-rule="nonzero" stroke-linejoin="round" stroke-linecap="round" stroke="none" stroke-width="0.386" fill="#000000" marker-start="none" marker-end="none" stroke-miterlimit="79.8403193612775"/>
    <path d="M 69.09,11.837 L 69.323,11.591 C 68.967,11.19 68.547,10.824 68.061,10.494 C 67.576,10.164 67.176,9.998 66.862,9.998 C 66.72,9.998 66.604,10.052 66.513,10.159 C 66.422,10.266 66.376,10.413 66.376,10.6 C 66.376,10.964 66.517,11.721 66.8,12.869 L 67.538,15.87 C 67.807,16.955 68.033,17.682 68.215,18.051 C 68.498,18.612 68.898,19.047 69.415,19.357 C 69.932,19.667 70.478,19.822 71.052,19.822 C 71.248,19.822 71.402,19.775 71.513,19.681 C 71.625,19.588 71.681,19.475 71.681,19.343 C 71.681,19.197 71.626,19.078 71.517,18.984 C 71.407,18.891 71.248,18.844 71.038,18.844 C 70.902,18.844 70.708,18.867 70.457,18.912 C 70.239,18.949 70.036,18.967 69.849,18.967 C 69.662,18.967 69.521,18.928 69.425,18.851 C 69.293,18.742 69.173,18.511 69.066,18.16 C 68.959,17.809 68.785,17.117 68.543,16.082 L 67.866,13.218 C 67.529,11.782 67.361,11.033 67.361,10.969 C 67.361,10.823 67.413,10.75 67.518,10.75 C 67.618,10.75 67.764,10.81 67.955,10.928 C 68.334,11.165 68.712,11.468 69.09,11.837 Z" fill-rule="nonzero" stroke-linejoin="round" stroke-linecap="round" stroke="none" stroke-width="0.386" fill="#000000" marker-start="none" marker-end="none" stroke-miterlimit="79.8403193612775"/>
    <path d="M 73.185,11.906 L 73.411,11.605 C 72.294,10.543 71.338,10.012 70.54,10.012 C 70.216,10.012 69.969,10.122 69.798,10.34 C 69.627,10.559 69.542,10.91 69.542,11.393 C 69.542,12.368 69.838,13.339 70.431,14.305 C 71.096,15.403 71.891,15.952 72.816,15.952 C 73.14,15.952 73.387,15.872 73.558,15.71 C 73.729,15.548 73.814,15.326 73.814,15.043 C 73.814,14.747 73.712,14.455 73.507,14.168 C 73.301,13.881 72.935,13.583 72.406,13.273 C 72.142,13.122 71.577,12.851 70.711,12.459 C 70.67,12.213 70.649,11.979 70.649,11.755 C 70.649,11.432 70.701,11.206 70.803,11.078 C 70.906,10.951 71.055,10.887 71.251,10.887 C 71.438,10.887 71.643,10.94 71.866,11.044 C 72.167,11.186 72.607,11.473 73.185,11.906 Z M 70.793,12.897 C 71.527,13.225 72.078,13.578 72.447,13.956 C 72.698,14.221 72.823,14.483 72.823,14.742 C 72.823,14.938 72.772,15.094 72.669,15.211 C 72.567,15.327 72.433,15.385 72.269,15.385 C 72.101,15.385 71.937,15.321 71.777,15.194 C 71.563,15.025 71.383,14.77 71.237,14.428 C 71.028,13.927 70.88,13.416 70.793,12.897 Z" fill-rule="nonzero" stroke-linejoin="round" stroke-linecap="round" stroke="none" stroke-width="0.386" fill="#000000" marker-start="none" marker-end="none" stroke-miterlimit="79.8403193612775"/>
    <path d="M 1.169,5.077 C 1.38,5.309 1.588,5.479 1.792,5.587 C 1.997,5.695 2.177,5.749 2.333,5.749 C 2.516,5.749 2.661,5.676 2.771,5.531 C 2.88,5.385 2.935,5.165 2.935,4.87 C 2.935,4.443 2.835,4.025 2.634,3.616 C 2.434,3.208 2.186,2.896 1.89,2.683 C 1.594,2.469 1.306,2.362 1.025,2.362 C 0.785,2.362 0.594,2.433 0.45,2.573 C 0.307,2.714 0.236,2.896 0.236,3.12 C 0.236,3.3 0.271,3.55 0.341,3.87 L 0.802,5.937 C 0.914,6.442 1.055,6.827 1.224,7.091 C 1.393,7.355 1.616,7.566 1.892,7.724 C 2.168,7.882 2.43,7.96 2.677,7.96 C 2.826,7.96 2.934,7.935 3.003,7.884 C 3.072,7.833 3.107,7.765 3.107,7.679 C 3.107,7.601 3.076,7.536 3.013,7.484 C 2.951,7.432 2.862,7.406 2.747,7.406 C 2.661,7.406 2.513,7.425 2.302,7.464 C 2.208,7.482 2.125,7.492 2.052,7.492 C 1.922,7.492 1.816,7.421 1.736,7.281 C 1.676,7.171 1.594,6.894 1.49,6.449 L 1.169,5.077 Z M 1.939,5.316 C 1.811,5.316 1.659,5.239 1.484,5.085 C 1.308,4.932 1.142,4.66 0.986,4.271 C 0.829,3.881 0.751,3.499 0.751,3.124 C 0.751,2.984 0.796,2.866 0.886,2.771 C 0.976,2.676 1.081,2.628 1.2,2.628 C 1.489,2.628 1.747,2.857 1.974,3.314 C 2.201,3.771 2.314,4.226 2.314,4.679 C 2.314,4.885 2.271,5.053 2.185,5.183 C 2.125,5.271 2.043,5.316 1.939,5.316 Z" fill-rule="nonzero" stroke-linejoin="round" stroke-linecap="round" stroke="none" stroke-width="0.386" fill="#000000" marker-start="none" marker-end="none" stroke-miterlimit="79.8403193612775"/>
    <path d="M 3.329,4.968 L 3.204,5.152 L 3.493,5.347 C 3.774,5.54 3.972,5.663 4.087,5.718 C 4.152,5.749 4.212,5.765 4.266,5.765 C 4.321,5.765 4.373,5.734 4.423,5.671 C 4.652,5.382 4.845,4.992 5.001,4.501 C 5.157,4.01 5.235,3.534 5.235,3.073 C 5.235,3.014 5.233,2.922 5.227,2.8 C 5.668,3.61 5.888,4.253 5.888,4.73 C 5.888,4.829 5.865,4.96 5.821,5.124 C 5.774,5.307 5.751,5.437 5.751,5.515 C 5.751,5.59 5.775,5.653 5.823,5.702 C 5.871,5.752 5.932,5.777 6.005,5.777 C 6.096,5.777 6.17,5.742 6.226,5.671 C 6.282,5.601 6.31,5.501 6.31,5.37 C 6.31,5.035 6.233,4.616 6.079,4.115 C 5.925,3.613 5.684,3.074 5.354,2.497 C 5.025,1.92 4.724,1.492 4.452,1.212 C 4.18,0.932 3.917,0.732 3.663,0.611 C 3.409,0.489 3.169,0.429 2.942,0.429 C 2.77,0.429 2.641,0.461 2.554,0.525 C 2.466,0.588 2.423,0.665 2.423,0.753 C 2.423,0.831 2.457,0.898 2.524,0.954 C 2.592,1.01 2.683,1.038 2.798,1.038 C 2.886,1.038 3.007,1.021 3.161,0.987 C 3.325,0.951 3.437,0.933 3.497,0.933 C 3.656,0.933 3.824,0.999 4.001,1.132 C 4.243,1.314 4.435,1.532 4.577,1.784 C 4.719,2.037 4.79,2.292 4.79,2.55 C 4.79,2.912 4.737,3.347 4.632,3.855 C 4.526,4.363 4.377,4.751 4.184,5.019 C 4.088,5.157 3.985,5.226 3.876,5.226 C 3.748,5.226 3.566,5.14 3.329,4.968 Z" fill-rule="nonzero" stroke-linejoin="round" stroke-linecap="round" stroke="none" stroke-width="0.386" fill="#000000" marker-start="none" marker-end="none" stroke-miterlimit="79.8403193612775"/>
    <path d="M 11.306,2.312 L 10.993,6.515 C 10.925,5.807 10.8,5.146 10.618,4.533 C 10.436,3.919 10.229,3.445 9.997,3.111 C 9.765,2.776 9.528,2.541 9.286,2.405 C 9.044,2.27 8.804,2.202 8.567,2.202 C 8.424,2.202 8.314,2.232 8.237,2.29 C 8.16,2.349 8.122,2.42 8.122,2.503 C 8.122,2.573 8.15,2.635 8.206,2.687 C 8.262,2.739 8.333,2.765 8.419,2.765 C 8.481,2.765 8.571,2.75 8.688,2.722 C 8.795,2.693 8.884,2.679 8.954,2.679 C 9.076,2.679 9.204,2.725 9.337,2.816 C 9.537,2.951 9.736,3.194 9.932,3.544 C 10.129,3.894 10.305,4.383 10.46,5.009 C 10.615,5.635 10.712,6.247 10.751,6.843 C 10.16,6.843 9.679,6.696 9.309,6.402 C 9.015,6.167 8.868,5.906 8.868,5.617 C 8.868,5.489 8.938,5.335 9.079,5.156 C 9.154,5.059 9.192,4.981 9.192,4.921 C 9.192,4.854 9.171,4.798 9.128,4.753 C 9.085,4.709 9.033,4.687 8.973,4.687 C 8.872,4.687 8.782,4.744 8.704,4.859 C 8.597,5.012 8.544,5.195 8.544,5.406 C 8.544,5.702 8.643,5.987 8.843,6.259 C 9.042,6.531 9.318,6.738 9.671,6.88 C 10.024,7.022 10.437,7.094 10.911,7.097 C 11.166,7.097 11.371,7.12 11.524,7.167 C 11.517,6.933 11.513,6.807 11.513,6.788 C 11.513,6.765 11.517,6.712 11.524,6.628 L 11.755,3.659 C 12.382,4.756 12.996,5.658 13.595,6.367 C 14.019,6.869 14.389,7.209 14.704,7.386 C 14.524,6.891 14.332,6.239 14.126,5.429 L 13.649,3.554 C 13.623,3.45 13.588,3.297 13.544,3.097 L 13.45,2.679 C 13.648,2.632 13.829,2.609 13.993,2.609 C 14.126,2.609 14.268,2.624 14.419,2.655 L 14.368,2.429 C 14.235,2.405 14.132,2.394 14.06,2.394 C 13.953,2.394 13.799,2.405 13.599,2.429 C 13.434,2.45 13.289,2.46 13.161,2.46 C 13.026,2.46 12.872,2.434 12.7,2.382 C 12.843,2.757 12.993,3.261 13.149,3.894 L 13.45,5.089 C 13.578,5.605 13.688,5.959 13.782,6.152 C 13.574,5.915 13.252,5.48 12.817,4.847 C 12.468,4.337 12.078,3.691 11.645,2.909 L 11.306,2.312 Z" fill-rule="nonzero" stroke-linejoin="round" stroke-linecap="round" stroke="none" stroke-width="0.386" fill="#000000" marker-start="none" marker-end="none" stroke-miterlimit="79.8403193612775"/>
    <path d="M 16.954,5.761 C 17.209,5.761 17.422,5.659 17.591,5.456 C 17.76,5.253 17.845,4.971 17.845,4.609 C 17.845,4.031 17.642,3.512 17.236,3.052 C 16.829,2.592 16.399,2.362 15.946,2.362 C 15.668,2.362 15.443,2.454 15.273,2.636 C 15.102,2.818 15.017,3.067 15.017,3.382 C 15.017,3.929 15.173,4.434 15.485,4.898 C 15.879,5.473 16.368,5.761 16.954,5.761 Z M 16.622,5.468 C 16.401,5.468 16.187,5.31 15.98,4.993 C 15.773,4.677 15.669,4.24 15.669,3.683 C 15.669,3.344 15.733,3.077 15.86,2.882 C 15.954,2.739 16.079,2.667 16.235,2.667 C 16.454,2.667 16.653,2.803 16.833,3.073 C 17.062,3.425 17.177,3.861 17.177,4.382 C 17.177,4.773 17.124,5.051 17.019,5.218 C 16.913,5.385 16.781,5.468 16.622,5.468 Z" fill-rule="nonzero" stroke-linejoin="round" stroke-linecap="round" stroke="none" stroke-width="0.386" fill="#000000" marker-start="none" marker-end="none" stroke-miterlimit="79.8403193612775"/>
    <path d="M 18.321,4.863 L 18.204,5.019 C 18.462,5.277 18.707,5.467 18.938,5.589 C 19.17,5.712 19.352,5.773 19.485,5.773 C 19.54,5.773 19.581,5.761 19.608,5.738 C 19.636,5.714 19.649,5.682 19.649,5.64 C 19.649,5.588 19.628,5.488 19.587,5.339 C 19.527,5.12 19.485,4.947 19.462,4.82 C 20.087,5.455 20.565,5.773 20.895,5.773 C 20.981,5.773 21.047,5.749 21.091,5.702 C 21.135,5.656 21.157,5.581 21.157,5.48 C 21.157,5.37 21.118,5.184 21.04,4.921 C 21.337,5.231 21.595,5.451 21.813,5.579 C 22.032,5.708 22.203,5.773 22.325,5.773 C 22.435,5.773 22.519,5.741 22.579,5.679 C 22.639,5.616 22.669,5.52 22.669,5.39 C 22.669,5.312 22.656,5.219 22.63,5.113 C 22.604,5.006 22.509,4.68 22.345,4.136 C 22.139,3.461 22.036,3.059 22.036,2.929 C 22.036,2.84 22.073,2.796 22.145,2.796 C 22.195,2.796 22.243,2.812 22.29,2.843 C 22.444,2.952 22.601,3.088 22.763,3.249 L 22.892,3.109 C 22.837,3.064 22.734,2.973 22.583,2.835 C 22.375,2.648 22.231,2.53 22.153,2.484 C 22.002,2.395 21.875,2.351 21.77,2.351 C 21.692,2.351 21.623,2.389 21.563,2.466 C 21.504,2.543 21.474,2.649 21.474,2.784 C 21.474,2.909 21.492,3.056 21.528,3.224 C 21.565,3.392 21.672,3.769 21.849,4.355 C 21.981,4.795 22.048,5.062 22.048,5.156 C 22.048,5.244 22.009,5.288 21.931,5.288 C 21.866,5.288 21.778,5.256 21.669,5.191 C 21.445,5.055 21.257,4.89 21.106,4.695 C 21.002,4.559 20.911,4.344 20.833,4.05 C 20.659,3.407 20.528,2.882 20.442,2.476 L 19.888,2.476 L 20.47,4.863 C 20.511,5.034 20.532,5.133 20.532,5.159 C 20.532,5.201 20.522,5.233 20.501,5.255 C 20.48,5.277 20.45,5.288 20.411,5.288 C 20.341,5.288 20.231,5.234 20.083,5.124 C 19.825,4.939 19.64,4.76 19.526,4.587 C 19.413,4.414 19.316,4.15 19.235,3.796 L 18.934,2.476 L 18.376,2.476 L 18.817,4.339 C 18.947,4.878 19.013,5.171 19.013,5.218 C 19.013,5.278 18.989,5.308 18.942,5.308 C 18.841,5.308 18.634,5.159 18.321,4.863 Z" fill-rule="nonzero" stroke-linejoin="round" stroke-linecap="round" stroke="none" stroke-width="0.386" fill="#000000" marker-start="none" marker-end="none" stroke-miterlimit="79.8403193612775"/>
    <path d="M 23.165,4.968 L 23.04,5.152 L 23.329,5.347 C 23.61,5.54 23.808,5.663 23.923,5.718 C 23.988,5.749 24.048,5.765 24.102,5.765 C 24.157,5.765 24.209,5.734 24.259,5.671 C 24.488,5.382 24.681,4.992 24.837,4.501 C 24.993,4.01 25.071,3.534 25.071,3.073 C 25.071,3.014 25.069,2.922 25.063,2.8 C 25.504,3.61 25.724,4.253 25.724,4.73 C 25.724,4.829 25.701,4.96 25.657,5.124 C 25.61,5.307 25.587,5.437 25.587,5.515 C 25.587,5.59 25.611,5.653 25.659,5.702 C 25.707,5.752 25.768,5.777 25.841,5.777 C 25.932,5.777 26.006,5.742 26.062,5.671 C 26.118,5.601 26.146,5.501 26.146,5.37 C 26.146,5.035 26.069,4.616 25.915,4.115 C 25.761,3.613 25.52,3.074 25.19,2.497 C 24.861,1.92 24.56,1.492 24.288,1.212 C 24.016,0.932 23.753,0.732 23.499,0.611 C 23.245,0.489 23.005,0.429 22.778,0.429 C 22.606,0.429 22.477,0.461 22.39,0.525 C 22.302,0.588 22.259,0.665 22.259,0.753 C 22.259,0.831 22.293,0.898 22.36,0.954 C 22.428,1.01 22.519,1.038 22.634,1.038 C 22.722,1.038 22.843,1.021 22.997,0.987 C 23.161,0.951 23.273,0.933 23.333,0.933 C 23.492,0.933 23.66,0.999 23.837,1.132 C 24.079,1.314 24.271,1.532 24.413,1.784 C 24.555,2.037 24.626,2.292 24.626,2.55 C 24.626,2.912 24.573,3.347 24.468,3.855 C 24.362,4.363 24.213,4.751 24.02,5.019 C 23.924,5.157 23.821,5.226 23.712,5.226 C 23.584,5.226 23.402,5.14 23.165,4.968 Z" fill-rule="nonzero" stroke-linejoin="round" stroke-linecap="round" stroke="none" stroke-width="0.386" fill="#000000" marker-start="none" marker-end="none" stroke-miterlimit="79.8403193612775"/>
    <path d="M 28.001,3.417 L 28.134,3.277 C 27.93,3.047 27.69,2.838 27.413,2.65 C 27.135,2.461 26.907,2.366 26.727,2.366 C 26.647,2.366 26.58,2.397 26.528,2.458 C 26.476,2.519 26.45,2.603 26.45,2.71 C 26.45,2.918 26.531,3.351 26.692,4.007 L 27.114,5.722 C 27.268,6.342 27.397,6.757 27.501,6.968 C 27.662,7.288 27.891,7.537 28.186,7.714 C 28.482,7.891 28.794,7.98 29.122,7.98 C 29.234,7.98 29.322,7.953 29.386,7.9 C 29.449,7.846 29.481,7.782 29.481,7.706 C 29.481,7.623 29.45,7.555 29.388,7.501 C 29.325,7.448 29.234,7.421 29.114,7.421 C 29.036,7.421 28.925,7.434 28.782,7.46 C 28.657,7.481 28.541,7.492 28.434,7.492 C 28.328,7.492 28.247,7.469 28.192,7.425 C 28.117,7.363 28.048,7.231 27.987,7.031 C 27.926,6.83 27.826,6.434 27.688,5.843 L 27.301,4.206 C 27.109,3.386 27.012,2.958 27.012,2.921 C 27.012,2.838 27.042,2.796 27.102,2.796 C 27.16,2.796 27.243,2.83 27.352,2.898 C 27.568,3.033 27.785,3.206 28.001,3.417 Z" fill-rule="nonzero" stroke-linejoin="round" stroke-linecap="round" stroke="none" stroke-width="0.386" fill="#000000" marker-start="none" marker-end="none" stroke-miterlimit="79.8403193612775"/>
    <path d="M 29.958,7.441 C 30.038,7.441 30.105,7.414 30.157,7.361 C 30.209,7.307 30.235,7.239 30.235,7.156 C 30.235,7.041 30.195,6.94 30.116,6.853 C 30.037,6.766 29.947,6.722 29.848,6.722 C 29.77,6.722 29.705,6.749 29.653,6.804 C 29.601,6.859 29.575,6.93 29.575,7.019 C 29.575,7.136 29.613,7.236 29.688,7.318 C 29.764,7.4 29.854,7.441 29.958,7.441 Z M 28.419,4.855 L 28.247,4.988 C 28.507,5.274 28.745,5.478 28.96,5.599 C 29.175,5.72 29.358,5.781 29.509,5.781 C 29.592,5.781 29.656,5.762 29.7,5.726 C 29.744,5.689 29.766,5.64 29.766,5.577 C 29.766,5.502 29.682,5.182 29.512,4.617 C 29.236,3.692 29.098,3.135 29.098,2.945 C 29.098,2.908 29.107,2.877 29.126,2.853 C 29.144,2.828 29.163,2.816 29.184,2.816 C 29.268,2.816 29.481,2.977 29.825,3.3 L 29.977,3.152 C 29.621,2.816 29.36,2.601 29.196,2.507 C 29.032,2.413 28.898,2.366 28.794,2.366 C 28.703,2.366 28.63,2.395 28.577,2.452 C 28.524,2.51 28.497,2.589 28.497,2.691 C 28.497,3.016 28.692,3.812 29.083,5.077 C 29.101,5.137 29.11,5.191 29.11,5.238 C 29.11,5.29 29.087,5.316 29.04,5.316 C 28.988,5.316 28.928,5.295 28.862,5.253 C 28.796,5.212 28.648,5.079 28.419,4.855 Z" fill-rule="nonzero" stroke-linejoin="round" stroke-linecap="round" stroke="none" stroke-width="0.386" fill="#000000" marker-start="none" marker-end="none" stroke-miterlimit="79.8403193612775"/>
    <path d="M 32.876,5.827 L 33.134,5.882 L 32.841,4.894 C 32.724,4.501 32.613,4.048 32.509,3.534 C 32.451,3.256 32.423,3.076 32.423,2.995 C 32.423,2.915 32.455,2.874 32.52,2.874 C 32.562,2.874 32.629,2.902 32.72,2.956 C 32.881,3.053 33.036,3.172 33.184,3.316 L 33.309,3.163 C 33.013,2.893 32.822,2.728 32.739,2.671 C 32.572,2.557 32.413,2.472 32.262,2.417 C 32.163,2.381 32.067,2.362 31.973,2.362 C 31.906,2.362 31.855,2.378 31.821,2.409 C 31.787,2.441 31.77,2.486 31.77,2.546 C 31.77,2.585 31.781,2.638 31.802,2.706 L 31.958,3.237 C 31.734,2.969 31.467,2.739 31.157,2.546 C 30.967,2.426 30.792,2.366 30.634,2.366 C 30.483,2.366 30.367,2.42 30.286,2.527 C 30.177,2.67 30.122,2.857 30.122,3.089 C 30.122,3.365 30.195,3.672 30.343,4.011 C 30.49,4.35 30.687,4.657 30.934,4.933 C 31.182,5.209 31.442,5.412 31.716,5.542 C 31.927,5.641 32.197,5.691 32.528,5.691 C 32.612,5.691 32.696,5.686 32.782,5.675 L 32.876,5.827 Z M 32.391,5.23 C 32.251,5.258 32.132,5.273 32.036,5.273 C 31.802,5.273 31.597,5.208 31.423,5.079 C 31.248,4.951 31.086,4.719 30.936,4.384 C 30.787,4.05 30.712,3.715 30.712,3.382 C 30.712,3.205 30.742,3.077 30.802,2.999 C 30.861,2.921 30.94,2.882 31.036,2.882 C 31.216,2.882 31.408,2.979 31.614,3.173 C 31.82,3.367 31.971,3.646 32.067,4.011 L 32.391,5.23 Z" fill-rule="nonzero" stroke-linejoin="round" stroke-linecap="round" stroke="none" stroke-width="0.386" fill="#000000" marker-start="none" marker-end="none" stroke-miterlimit="79.8403193612775"/>
    <path d="M 38.337,3.284 L 38.446,3.136 C 38.097,2.842 37.838,2.646 37.669,2.55 C 37.434,2.417 37.249,2.351 37.114,2.351 C 37.051,2.351 37.001,2.368 36.962,2.404 C 36.922,2.439 36.903,2.478 36.903,2.523 C 36.903,2.567 36.917,2.64 36.946,2.741 L 37.083,3.218 C 36.77,2.882 36.51,2.654 36.301,2.534 C 36.093,2.415 35.906,2.355 35.739,2.355 C 35.601,2.355 35.485,2.415 35.391,2.536 C 35.297,2.657 35.251,2.835 35.251,3.07 C 35.251,3.439 35.377,3.864 35.631,4.345 C 35.885,4.825 36.168,5.181 36.479,5.411 C 36.79,5.642 37.075,5.757 37.333,5.757 C 37.39,5.757 37.476,5.748 37.591,5.73 C 37.713,6.238 37.83,6.608 37.942,6.841 C 38.054,7.074 38.199,7.275 38.376,7.445 C 38.553,7.614 38.755,7.745 38.983,7.837 C 39.211,7.93 39.424,7.976 39.622,7.976 C 39.726,7.976 39.809,7.949 39.872,7.894 C 39.934,7.839 39.965,7.77 39.966,7.687 C 39.965,7.606 39.937,7.54 39.88,7.49 C 39.822,7.439 39.744,7.413 39.645,7.413 C 39.58,7.413 39.459,7.426 39.282,7.452 C 39.105,7.479 38.984,7.492 38.919,7.492 C 38.828,7.492 38.747,7.464 38.678,7.408 C 38.609,7.352 38.544,7.231 38.481,7.046 C 38.439,6.929 38.344,6.555 38.196,5.925 L 37.641,3.566 C 37.576,3.287 37.544,3.102 37.544,3.011 C 37.544,2.912 37.581,2.862 37.657,2.862 C 37.704,2.862 37.759,2.879 37.821,2.913 C 37.91,2.963 38.081,3.086 38.337,3.284 Z M 37.508,5.3 C 37.3,5.347 37.153,5.37 37.067,5.37 C 36.893,5.37 36.722,5.302 36.555,5.165 C 36.389,5.029 36.228,4.764 36.073,4.37 C 35.918,3.977 35.84,3.635 35.84,3.343 C 35.84,3.21 35.876,3.101 35.948,3.017 C 36.019,2.932 36.101,2.89 36.192,2.89 C 36.301,2.89 36.426,2.938 36.567,3.034 C 36.768,3.178 36.926,3.352 37.044,3.558 C 37.114,3.688 37.209,4.007 37.329,4.515 L 37.508,5.3 Z" fill-rule="nonzero" stroke-linejoin="round" stroke-linecap="round" stroke="none" stroke-width="0.386" fill="#000000" marker-start="none" marker-end="none" stroke-miterlimit="79.8403193612775"/>
    <path d="M 40.513,7.441 C 40.593,7.441 40.66,7.414 40.712,7.361 C 40.764,7.307 40.79,7.239 40.79,7.156 C 40.79,7.041 40.75,6.94 40.671,6.853 C 40.592,6.766 40.502,6.722 40.403,6.722 C 40.325,6.722 40.26,6.749 40.208,6.804 C 40.156,6.859 40.13,6.93 40.13,7.019 C 40.13,7.136 40.168,7.236 40.243,7.318 C 40.319,7.4 40.409,7.441 40.513,7.441 Z M 38.974,4.855 L 38.802,4.988 C 39.062,5.274 39.3,5.478 39.515,5.599 C 39.73,5.72 39.913,5.781 40.064,5.781 C 40.147,5.781 40.211,5.762 40.255,5.726 C 40.299,5.689 40.321,5.64 40.321,5.577 C 40.321,5.502 40.237,5.182 40.067,4.617 C 39.791,3.692 39.653,3.135 39.653,2.945 C 39.653,2.908 39.662,2.877 39.681,2.853 C 39.699,2.828 39.718,2.816 39.739,2.816 C 39.823,2.816 40.036,2.977 40.38,3.3 L 40.532,3.152 C 40.176,2.816 39.915,2.601 39.751,2.507 C 39.587,2.413 39.453,2.366 39.349,2.366 C 39.258,2.366 39.185,2.395 39.132,2.452 C 39.079,2.51 39.052,2.589 39.052,2.691 C 39.052,3.016 39.247,3.812 39.638,5.077 C 39.656,5.137 39.665,5.191 39.665,5.238 C 39.665,5.29 39.642,5.316 39.595,5.316 C 39.543,5.316 39.483,5.295 39.417,5.253 C 39.351,5.212 39.203,5.079 38.974,4.855 Z" fill-rule="nonzero" stroke-linejoin="round" stroke-linecap="round" stroke="none" stroke-width="0.386" fill="#000000" marker-start="none" marker-end="none" stroke-miterlimit="79.8403193612775"/>
    <path d="M 44.724,4.71 L 44.2,2.636 C 44.325,2.618 44.426,2.609 44.501,2.609 C 44.616,2.609 44.758,2.628 44.927,2.667 L 44.888,2.476 C 44.714,2.439 44.578,2.421 44.482,2.421 C 44.38,2.421 44.23,2.43 44.033,2.448 C 43.858,2.467 43.714,2.476 43.599,2.476 C 43.391,2.476 43.15,2.446 42.876,2.386 L 42.935,2.605 C 43.221,2.678 43.407,2.749 43.493,2.82 C 43.624,2.931 43.724,3.128 43.794,3.409 L 44.341,5.593 C 44.409,5.872 44.443,6.036 44.443,6.085 C 44.443,6.132 44.426,6.167 44.394,6.191 C 44.361,6.214 44.297,6.225 44.2,6.222 L 44.251,6.409 C 44.514,6.412 44.83,6.46 45.197,6.554 C 45.165,6.455 45.125,6.309 45.076,6.117 L 44.783,4.964 C 44.908,4.938 45.013,4.925 45.099,4.925 C 45.425,4.925 45.703,5.039 45.935,5.267 C 46.167,5.495 46.283,5.765 46.283,6.077 C 46.283,6.32 46.19,6.519 46.003,6.675 C 45.817,6.831 45.564,6.91 45.244,6.909 C 44.835,6.91 44.435,6.811 44.044,6.613 C 43.654,6.415 43.361,6.169 43.165,5.876 C 42.97,5.583 42.872,5.277 42.872,4.956 C 42.872,4.714 42.973,4.506 43.173,4.331 C 43.275,4.245 43.337,4.183 43.361,4.144 C 43.384,4.105 43.396,4.063 43.396,4.019 C 43.396,3.964 43.376,3.917 43.335,3.876 C 43.295,3.836 43.246,3.816 43.189,3.816 C 43.048,3.816 42.923,3.898 42.814,4.062 C 42.673,4.275 42.603,4.538 42.603,4.851 C 42.603,5.252 42.714,5.626 42.935,5.972 C 43.156,6.318 43.491,6.605 43.941,6.831 C 44.39,7.058 44.863,7.171 45.361,7.171 C 45.824,7.171 46.206,7.084 46.505,6.909 C 46.805,6.735 46.954,6.477 46.954,6.136 C 46.954,5.816 46.817,5.518 46.542,5.242 C 46.268,4.965 45.889,4.788 45.408,4.71 C 45.527,4.471 45.604,4.309 45.638,4.226 C 45.693,4.085 45.776,3.848 45.888,3.515 C 46.151,2.731 46.423,2.179 46.704,1.859 C 46.913,1.624 47.138,1.507 47.38,1.507 C 47.63,1.507 47.79,1.62 47.861,1.847 C 47.902,1.99 47.941,2.079 47.978,2.112 C 48.027,2.159 48.083,2.183 48.146,2.183 C 48.208,2.183 48.261,2.161 48.304,2.116 C 48.347,2.072 48.369,2.019 48.369,1.956 C 48.369,1.795 48.28,1.641 48.103,1.495 C 47.926,1.35 47.698,1.277 47.419,1.277 C 47.167,1.277 46.925,1.338 46.695,1.46 C 46.464,1.583 46.24,1.783 46.023,2.062 C 45.805,2.34 45.616,2.675 45.454,3.066 C 45.374,3.261 45.255,3.619 45.099,4.14 C 45.005,4.458 44.947,4.648 44.923,4.71 L 44.826,4.718 C 44.802,4.718 44.768,4.715 44.724,4.71 Z" fill-rule="nonzero" stroke-linejoin="round" stroke-linecap="round" stroke="none" stroke-width="0.386" fill="#000000" marker-start="none" marker-end="none" stroke-miterlimit="79.8403193612775"/>
    <path d="M 48.99,7.441 C 49.07,7.441 49.137,7.414 49.189,7.361 C 49.241,7.307 49.267,7.239 49.267,7.156 C 49.267,7.041 49.227,6.94 49.148,6.853 C 49.069,6.766 48.979,6.722 48.88,6.722 C 48.802,6.722 48.737,6.749 48.685,6.804 C 48.633,6.859 48.607,6.93 48.607,7.019 C 48.607,7.136 48.645,7.236 48.72,7.318 C 48.796,7.4 48.886,7.441 48.99,7.441 Z M 47.451,4.855 L 47.279,4.988 C 47.539,5.274 47.777,5.478 47.992,5.599 C 48.207,5.72 48.39,5.781 48.541,5.781 C 48.624,5.781 48.688,5.762 48.732,5.726 C 48.776,5.689 48.798,5.64 48.798,5.577 C 48.798,5.502 48.714,5.182 48.544,4.617 C 48.268,3.692 48.13,3.135 48.13,2.945 C 48.13,2.908 48.139,2.877 48.158,2.853 C 48.176,2.828 48.195,2.816 48.216,2.816 C 48.3,2.816 48.513,2.977 48.857,3.3 L 49.009,3.152 C 48.653,2.816 48.392,2.601 48.228,2.507 C 48.064,2.413 47.93,2.366 47.826,2.366 C 47.735,2.366 47.662,2.395 47.609,2.452 C 47.556,2.51 47.529,2.589 47.529,2.691 C 47.529,3.016 47.724,3.812 48.115,5.077 C 48.133,5.137 48.142,5.191 48.142,5.238 C 48.142,5.29 48.119,5.316 48.072,5.316 C 48.02,5.316 47.96,5.295 47.894,5.253 C 47.828,5.212 47.68,5.079 47.451,4.855 Z" fill-rule="nonzero" stroke-linejoin="round" stroke-linecap="round" stroke="none" stroke-width="0.386" fill="#000000" marker-start="none" marker-end="none" stroke-miterlimit="79.8403193612775"/>
    <path d="M 51.713,5.355 C 51.476,5.29 51.258,5.257 51.06,5.257 C 50.951,5.257 50.83,5.264 50.697,5.277 C 50.512,5.297 50.388,5.308 50.326,5.308 C 50.248,5.308 50.188,5.29 50.146,5.253 C 50.104,5.217 50.084,5.17 50.084,5.113 C 50.084,5.024 50.13,4.976 50.224,4.968 C 50.341,4.955 50.4,4.902 50.4,4.808 C 50.4,4.764 50.382,4.724 50.345,4.689 C 50.309,4.654 50.267,4.636 50.22,4.636 C 50.127,4.636 50.04,4.682 49.96,4.775 C 49.881,4.867 49.841,4.982 49.841,5.12 C 49.841,5.298 49.916,5.45 50.064,5.577 C 50.212,5.705 50.396,5.769 50.615,5.769 C 50.729,5.769 50.884,5.753 51.08,5.722 C 51.395,5.672 51.621,5.648 51.759,5.648 C 51.9,5.648 52.032,5.695 52.154,5.788 C 52.211,5.83 52.258,5.851 52.295,5.851 C 52.326,5.851 52.353,5.841 52.375,5.822 C 52.397,5.802 52.408,5.783 52.408,5.765 C 52.408,5.739 52.394,5.71 52.365,5.679 C 52.276,5.57 52.075,5.364 51.759,5.062 L 50.548,3.902 C 50.194,3.563 49.9,3.29 49.666,3.081 C 49.814,3.097 49.93,3.105 50.013,3.105 C 50.13,3.105 50.237,3.095 50.334,3.075 C 50.43,3.056 50.585,3.011 50.798,2.941 C 51.077,2.844 51.304,2.796 51.478,2.796 C 51.588,2.796 51.672,2.821 51.73,2.872 C 51.789,2.923 51.818,2.988 51.818,3.066 C 51.818,3.11 51.797,3.172 51.756,3.253 C 51.719,3.331 51.701,3.391 51.701,3.433 C 51.701,3.495 51.722,3.549 51.763,3.593 C 51.805,3.637 51.857,3.659 51.92,3.659 C 51.995,3.659 52.058,3.629 52.109,3.568 C 52.16,3.506 52.185,3.428 52.185,3.331 C 52.185,3.185 52.132,3.032 52.025,2.872 C 51.918,2.712 51.784,2.589 51.623,2.503 C 51.461,2.417 51.262,2.374 51.025,2.374 C 50.83,2.374 50.544,2.43 50.169,2.542 C 49.857,2.633 49.628,2.679 49.482,2.679 C 49.393,2.679 49.291,2.632 49.173,2.538 C 49.106,2.481 49.047,2.452 48.998,2.452 C 48.901,2.452 48.853,2.476 48.853,2.523 C 48.853,2.567 48.88,2.62 48.935,2.683 C 49.081,2.855 49.451,3.21 50.044,3.749 C 50.445,4.114 50.797,4.446 51.099,4.745 L 51.713,5.355 Z" fill-rule="nonzero" stroke-linejoin="round" stroke-linecap="round" stroke="none" stroke-width="0.386" fill="#000000" marker-start="none" marker-end="none" stroke-miterlimit="79.8403193612775"/>
    <path d="M 55.233,5.355 C 54.996,5.29 54.778,5.257 54.58,5.257 C 54.471,5.257 54.35,5.264 54.217,5.277 C 54.032,5.297 53.908,5.308 53.846,5.308 C 53.768,5.308 53.708,5.29 53.666,5.253 C 53.624,5.217 53.604,5.17 53.604,5.113 C 53.604,5.024 53.65,4.976 53.744,4.968 C 53.861,4.955 53.92,4.902 53.92,4.808 C 53.92,4.764 53.902,4.724 53.865,4.689 C 53.829,4.654 53.787,4.636 53.74,4.636 C 53.647,4.636 53.56,4.682 53.48,4.775 C 53.401,4.867 53.361,4.982 53.361,5.12 C 53.361,5.298 53.436,5.45 53.584,5.577 C 53.732,5.705 53.916,5.769 54.135,5.769 C 54.249,5.769 54.404,5.753 54.6,5.722 C 54.915,5.672 55.141,5.648 55.279,5.648 C 55.42,5.648 55.552,5.695 55.674,5.788 C 55.731,5.83 55.778,5.851 55.815,5.851 C 55.846,5.851 55.873,5.841 55.895,5.822 C 55.917,5.802 55.928,5.783 55.928,5.765 C 55.928,5.739 55.914,5.71 55.885,5.679 C 55.796,5.57 55.595,5.364 55.279,5.062 L 54.068,3.902 C 53.714,3.563 53.42,3.29 53.186,3.081 C 53.334,3.097 53.45,3.105 53.533,3.105 C 53.65,3.105 53.757,3.095 53.854,3.075 C 53.95,3.056 54.105,3.011 54.318,2.941 C 54.597,2.844 54.824,2.796 54.998,2.796 C 55.108,2.796 55.192,2.821 55.25,2.872 C 55.309,2.923 55.338,2.988 55.338,3.066 C 55.338,3.11 55.317,3.172 55.276,3.253 C 55.239,3.331 55.221,3.391 55.221,3.433 C 55.221,3.495 55.242,3.549 55.283,3.593 C 55.325,3.637 55.377,3.659 55.44,3.659 C 55.515,3.659 55.578,3.629 55.629,3.568 C 55.68,3.506 55.705,3.428 55.705,3.331 C 55.705,3.185 55.652,3.032 55.545,2.872 C 55.438,2.712 55.304,2.589 55.143,2.503 C 54.981,2.417 54.782,2.374 54.545,2.374 C 54.35,2.374 54.064,2.43 53.689,2.542 C 53.377,2.633 53.148,2.679 53.002,2.679 C 52.913,2.679 52.811,2.632 52.693,2.538 C 52.626,2.481 52.567,2.452 52.518,2.452 C 52.421,2.452 52.373,2.476 52.373,2.523 C 52.373,2.567 52.4,2.62 52.455,2.683 C 52.601,2.855 52.971,3.21 53.564,3.749 C 53.965,4.114 54.317,4.446 54.619,4.745 L 55.233,5.355 Z" fill-rule="nonzero" stroke-linejoin="round" stroke-linecap="round" stroke="none" stroke-width="0.386" fill="#000000" marker-start="none" marker-end="none" stroke-miterlimit="79.8403193612775"/>
    <path d="M 58.221,5.761 C 58.476,5.761 58.689,5.659 58.858,5.456 C 59.027,5.253 59.112,4.971 59.112,4.609 C 59.112,4.031 58.909,3.512 58.503,3.052 C 58.096,2.592 57.666,2.362 57.213,2.362 C 56.935,2.362 56.71,2.454 56.54,2.636 C 56.369,2.818 56.284,3.067 56.284,3.382 C 56.284,3.929 56.44,4.434 56.752,4.898 C 57.146,5.473 57.635,5.761 58.221,5.761 Z M 57.889,5.468 C 57.668,5.468 57.454,5.31 57.247,4.993 C 57.04,4.677 56.936,4.24 56.936,3.683 C 56.936,3.344 57,3.077 57.127,2.882 C 57.221,2.739 57.346,2.667 57.502,2.667 C 57.721,2.667 57.92,2.803 58.1,3.073 C 58.329,3.425 58.444,3.861 58.444,4.382 C 58.444,4.773 58.391,5.051 58.286,5.218 C 58.18,5.385 58.048,5.468 57.889,5.468 Z" fill-rule="nonzero" stroke-linejoin="round" stroke-linecap="round" stroke="none" stroke-width="0.386" fill="#000000" marker-start="none" marker-end="none" stroke-miterlimit="79.8403193612775"/>
    <path d="M 65.686,6.222 L 65.479,6.222 C 65.5,6.355 65.51,6.46 65.51,6.538 C 65.51,6.643 65.467,6.711 65.379,6.743 C 65.292,6.776 64.963,6.792 64.393,6.792 L 63.823,6.788 L 63.389,5.062 L 64.198,5.062 C 64.453,5.062 64.61,5.081 64.669,5.118 C 64.727,5.156 64.769,5.251 64.795,5.402 L 65.018,5.402 C 64.935,5.087 64.861,4.74 64.795,4.363 L 64.596,4.363 C 64.609,4.485 64.616,4.58 64.616,4.648 C 64.616,4.676 64.598,4.712 64.561,4.753 C 64.543,4.774 64.509,4.788 64.46,4.796 C 64.389,4.809 64.28,4.816 64.131,4.816 L 63.331,4.816 C 63.099,3.93 62.858,3.236 62.608,2.734 C 62.85,2.809 63.065,2.847 63.252,2.847 C 63.565,2.847 63.948,2.797 64.401,2.698 C 64.641,2.644 64.803,2.616 64.889,2.616 C 65.004,2.616 65.096,2.645 65.167,2.702 C 65.237,2.76 65.272,2.825 65.272,2.898 C 65.272,2.939 65.255,3.007 65.221,3.101 C 65.2,3.166 65.19,3.227 65.19,3.284 C 65.19,3.344 65.214,3.398 65.262,3.445 C 65.311,3.491 65.368,3.515 65.436,3.515 C 65.517,3.515 65.584,3.484 65.637,3.421 C 65.691,3.359 65.717,3.275 65.717,3.171 C 65.717,2.95 65.62,2.756 65.426,2.589 C 65.232,2.422 64.976,2.339 64.659,2.339 C 64.492,2.339 64.281,2.353 64.026,2.382 C 63.466,2.445 63.039,2.476 62.745,2.476 C 62.359,2.476 61.909,2.445 61.393,2.382 L 61.456,2.597 C 61.763,2.683 61.944,2.746 61.999,2.786 C 62.053,2.827 62.099,2.886 62.135,2.964 C 62.26,3.211 62.422,3.708 62.622,4.452 C 62.821,5.197 63.023,5.984 63.229,6.812 C 62.916,6.812 62.621,6.738 62.342,6.589 C 62.064,6.441 61.846,6.247 61.69,6.009 C 61.534,5.771 61.456,5.52 61.456,5.257 C 61.456,5.145 61.467,5.048 61.489,4.964 C 61.511,4.881 61.561,4.764 61.639,4.613 C 61.689,4.521 61.713,4.447 61.713,4.39 C 61.713,4.333 61.689,4.282 61.641,4.238 C 61.593,4.193 61.534,4.171 61.463,4.171 C 61.362,4.171 61.281,4.222 61.221,4.324 C 61.133,4.472 61.088,4.674 61.088,4.929 C 61.088,5.476 61.295,5.967 61.709,6.402 C 62.123,6.837 62.726,7.054 63.518,7.054 L 64.858,7.054 C 65.322,7.054 65.664,7.084 65.885,7.144 C 65.781,6.712 65.715,6.404 65.686,6.222 Z" fill-rule="nonzero" stroke-linejoin="round" stroke-linecap="round" stroke="none" stroke-width="0.386" fill="#000000" marker-start="none" marker-end="none" stroke-miterlimit="79.8403193612775"/>
    <path d="M 66.307,4.863 L 66.19,5.019 C 66.448,5.277 66.693,5.467 66.924,5.589 C 67.156,5.712 67.338,5.773 67.471,5.773 C 67.526,5.773 67.567,5.761 67.594,5.738 C 67.622,5.714 67.635,5.682 67.635,5.64 C 67.635,5.588 67.614,5.488 67.573,5.339 C 67.513,5.12 67.471,4.947 67.448,4.82 C 68.073,5.455 68.551,5.773 68.881,5.773 C 68.967,5.773 69.033,5.749 69.077,5.702 C 69.121,5.656 69.143,5.581 69.143,5.48 C 69.143,5.37 69.104,5.184 69.026,4.921 C 69.323,5.231 69.581,5.451 69.799,5.579 C 70.018,5.708 70.189,5.773 70.311,5.773 C 70.421,5.773 70.505,5.741 70.565,5.679 C 70.625,5.616 70.655,5.52 70.655,5.39 C 70.655,5.312 70.642,5.219 70.616,5.113 C 70.59,5.006 70.495,4.68 70.331,4.136 C 70.125,3.461 70.022,3.059 70.022,2.929 C 70.022,2.84 70.059,2.796 70.131,2.796 C 70.181,2.796 70.229,2.812 70.276,2.843 C 70.43,2.952 70.587,3.088 70.749,3.249 L 70.878,3.109 C 70.823,3.064 70.72,2.973 70.569,2.835 C 70.361,2.648 70.217,2.53 70.139,2.484 C 69.988,2.395 69.861,2.351 69.756,2.351 C 69.678,2.351 69.609,2.389 69.549,2.466 C 69.49,2.543 69.46,2.649 69.46,2.784 C 69.46,2.909 69.478,3.056 69.514,3.224 C 69.551,3.392 69.658,3.769 69.835,4.355 C 69.967,4.795 70.034,5.062 70.034,5.156 C 70.034,5.244 69.995,5.288 69.917,5.288 C 69.852,5.288 69.764,5.256 69.655,5.191 C 69.431,5.055 69.243,4.89 69.092,4.695 C 68.988,4.559 68.897,4.344 68.819,4.05 C 68.645,3.407 68.514,2.882 68.428,2.476 L 67.874,2.476 L 68.456,4.863 C 68.497,5.034 68.518,5.133 68.518,5.159 C 68.518,5.201 68.508,5.233 68.487,5.255 C 68.466,5.277 68.436,5.288 68.397,5.288 C 68.327,5.288 68.217,5.234 68.069,5.124 C 67.811,4.939 67.626,4.76 67.512,4.587 C 67.399,4.414 67.302,4.15 67.221,3.796 L 66.92,2.476 L 66.362,2.476 L 66.803,4.339 C 66.933,4.878 66.999,5.171 66.999,5.218 C 66.999,5.278 66.975,5.308 66.928,5.308 C 66.827,5.308 66.62,5.159 66.307,4.863 Z" fill-rule="nonzero" stroke-linejoin="round" stroke-linecap="round" stroke="none" stroke-width="0.386" fill="#000000" marker-start="none" marker-end="none" stroke-miterlimit="79.8403193612775"/>
    <path d="M 72.827,7.441 C 72.907,7.441 72.974,7.414 73.026,7.361 C 73.078,7.307 73.104,7.239 73.104,7.156 C 73.104,7.041 73.064,6.94 72.985,6.853 C 72.906,6.766 72.816,6.722 72.717,6.722 C 72.639,6.722 72.574,6.749 72.522,6.804 C 72.47,6.859 72.444,6.93 72.444,7.019 C 72.444,7.136 72.482,7.236 72.557,7.318 C 72.633,7.4 72.723,7.441 72.827,7.441 Z M 71.288,4.855 L 71.116,4.988 C 71.376,5.274 71.614,5.478 71.829,5.599 C 72.044,5.72 72.227,5.781 72.378,5.781 C 72.461,5.781 72.525,5.762 72.569,5.726 C 72.613,5.689 72.635,5.64 72.635,5.577 C 72.635,5.502 72.551,5.182 72.381,4.617 C 72.105,3.692 71.967,3.135 71.967,2.945 C 71.967,2.908 71.976,2.877 71.995,2.853 C 72.013,2.828 72.032,2.816 72.053,2.816 C 72.137,2.816 72.35,2.977 72.694,3.3 L 72.846,3.152 C 72.49,2.816 72.229,2.601 72.065,2.507 C 71.901,2.413 71.767,2.366 71.663,2.366 C 71.572,2.366 71.499,2.395 71.446,2.452 C 71.393,2.51 71.366,2.589 71.366,2.691 C 71.366,3.016 71.561,3.812 71.952,5.077 C 71.97,5.137 71.979,5.191 71.979,5.238 C 71.979,5.29 71.956,5.316 71.909,5.316 C 71.857,5.316 71.797,5.295 71.731,5.253 C 71.665,5.212 71.517,5.079 71.288,4.855 Z" fill-rule="nonzero" stroke-linejoin="round" stroke-linecap="round" stroke="none" stroke-width="0.386" fill="#000000" marker-start="none" marker-end="none" stroke-miterlimit="79.8403193612775"/>
    <path d="M 74.706,3.417 L 74.839,3.277 C 74.635,3.047 74.395,2.838 74.118,2.65 C 73.84,2.461 73.612,2.366 73.432,2.366 C 73.352,2.366 73.285,2.397 73.233,2.458 C 73.181,2.519 73.155,2.603 73.155,2.71 C 73.155,2.918 73.236,3.351 73.397,4.007 L 73.819,5.722 C 73.973,6.342 74.102,6.757 74.206,6.968 C 74.367,7.288 74.596,7.537 74.891,7.714 C 75.187,7.891 75.499,7.98 75.827,7.98 C 75.939,7.98 76.027,7.953 76.091,7.9 C 76.154,7.846 76.186,7.782 76.186,7.706 C 76.186,7.623 76.155,7.555 76.093,7.501 C 76.03,7.448 75.939,7.421 75.819,7.421 C 75.741,7.421 75.63,7.434 75.487,7.46 C 75.362,7.481 75.246,7.492 75.139,7.492 C 75.033,7.492 74.952,7.469 74.897,7.425 C 74.822,7.363 74.753,7.231 74.692,7.031 C 74.631,6.83 74.531,6.434 74.393,5.843 L 74.006,4.206 C 73.814,3.386 73.717,2.958 73.717,2.921 C 73.717,2.838 73.747,2.796 73.807,2.796 C 73.865,2.796 73.948,2.83 74.057,2.898 C 74.273,3.033 74.49,3.206 74.706,3.417 Z" fill-rule="nonzero" stroke-linejoin="round" stroke-linecap="round" stroke="none" stroke-width="0.386" fill="#000000" marker-start="none" marker-end="none" stroke-miterlimit="79.8403193612775"/>
    <path d="M 76.663,7.441 C 76.743,7.441 76.81,7.414 76.862,7.361 C 76.914,7.307 76.94,7.239 76.94,7.156 C 76.94,7.041 76.9,6.94 76.821,6.853 C 76.742,6.766 76.652,6.722 76.553,6.722 C 76.475,6.722 76.41,6.749 76.358,6.804 C 76.306,6.859 76.28,6.93 76.28,7.019 C 76.28,7.136 76.318,7.236 76.393,7.318 C 76.469,7.4 76.559,7.441 76.663,7.441 Z M 75.124,4.855 L 74.952,4.988 C 75.212,5.274 75.45,5.478 75.665,5.599 C 75.88,5.72 76.063,5.781 76.214,5.781 C 76.297,5.781 76.361,5.762 76.405,5.726 C 76.449,5.689 76.471,5.64 76.471,5.577 C 76.471,5.502 76.387,5.182 76.217,4.617 C 75.941,3.692 75.803,3.135 75.803,2.945 C 75.803,2.908 75.812,2.877 75.831,2.853 C 75.849,2.828 75.868,2.816 75.889,2.816 C 75.973,2.816 76.186,2.977 76.53,3.3 L 76.682,3.152 C 76.326,2.816 76.065,2.601 75.901,2.507 C 75.737,2.413 75.603,2.366 75.499,2.366 C 75.408,2.366 75.335,2.395 75.282,2.452 C 75.229,2.51 75.202,2.589 75.202,2.691 C 75.202,3.016 75.397,3.812 75.788,5.077 C 75.806,5.137 75.815,5.191 75.815,5.238 C 75.815,5.29 75.792,5.316 75.745,5.316 C 75.693,5.316 75.633,5.295 75.567,5.253 C 75.501,5.212 75.353,5.079 75.124,4.855 Z" fill-rule="nonzero" stroke-linejoin="round" stroke-linecap="round" stroke="none" stroke-width="0.386" fill="#000000" marker-start="none" marker-end="none" stroke-miterlimit="79.8403193612775"/>
    <path d="M 79.581,5.827 L 79.839,5.882 L 79.546,4.894 C 79.429,4.501 79.318,4.048 79.214,3.534 C 79.156,3.256 79.128,3.076 79.128,2.995 C 79.128,2.915 79.16,2.874 79.225,2.874 C 79.267,2.874 79.334,2.902 79.425,2.956 C 79.586,3.053 79.741,3.172 79.889,3.316 L 80.014,3.163 C 79.718,2.893 79.527,2.728 79.444,2.671 C 79.277,2.557 79.118,2.472 78.967,2.417 C 78.868,2.381 78.772,2.362 78.678,2.362 C 78.611,2.362 78.56,2.378 78.526,2.409 C 78.492,2.441 78.475,2.486 78.475,2.546 C 78.475,2.585 78.486,2.638 78.507,2.706 L 78.663,3.237 C 78.439,2.969 78.172,2.739 77.862,2.546 C 77.672,2.426 77.497,2.366 77.339,2.366 C 77.188,2.366 77.072,2.42 76.991,2.527 C 76.882,2.67 76.827,2.857 76.827,3.089 C 76.827,3.365 76.9,3.672 77.048,4.011 C 77.195,4.35 77.392,4.657 77.639,4.933 C 77.887,5.209 78.147,5.412 78.421,5.542 C 78.632,5.641 78.902,5.691 79.233,5.691 C 79.317,5.691 79.401,5.686 79.487,5.675 L 79.581,5.827 Z M 79.096,5.23 C 78.956,5.258 78.837,5.273 78.741,5.273 C 78.507,5.273 78.302,5.208 78.128,5.079 C 77.953,4.951 77.791,4.719 77.641,4.384 C 77.492,4.05 77.417,3.715 77.417,3.382 C 77.417,3.205 77.447,3.077 77.507,2.999 C 77.566,2.921 77.645,2.882 77.741,2.882 C 77.921,2.882 78.113,2.979 78.319,3.173 C 78.525,3.367 78.676,3.646 78.772,4.011 L 79.096,5.23 Z" fill-rule="nonzero" stroke-linejoin="round" stroke-linecap="round" stroke="none" stroke-width="0.386" fill="#000000" marker-start="none" marker-end="none" stroke-miterlimit="79.8403193612775"/>
    <path d="M 77.444,19.334 C 77.794,19.334 78.135,19.244 78.467,19.065 C 78.799,18.886 79.058,18.629 79.244,18.295 C 79.431,17.961 79.524,17.612 79.524,17.249 C 79.524,16.889 79.432,16.543 79.249,16.212 C 79.065,15.88 78.808,15.623 78.478,15.44 C 78.148,15.256 77.804,15.165 77.444,15.165 C 77.085,15.165 76.741,15.256 76.412,15.44 C 76.082,15.623 75.826,15.88 75.642,16.212 C 75.459,16.543 75.367,16.889 75.367,17.249 C 75.367,17.612 75.46,17.961 75.647,18.295 C 75.833,18.629 76.093,18.886 76.425,19.065 C 76.757,19.244 77.097,19.334 77.444,19.334 Z M 77.444,19.155 C 77.126,19.155 76.815,19.072 76.513,18.908 C 76.21,18.743 75.974,18.508 75.804,18.204 C 75.634,17.899 75.549,17.581 75.549,17.249 C 75.549,16.92 75.632,16.605 75.799,16.303 C 75.966,16.001 76.2,15.766 76.501,15.597 C 76.802,15.428 77.116,15.344 77.444,15.344 C 77.772,15.344 78.087,15.428 78.389,15.597 C 78.691,15.766 78.925,16.001 79.092,16.303 C 79.259,16.605 79.342,16.92 79.342,17.249 C 79.342,17.581 79.258,17.899 79.088,18.204 C 78.918,18.508 78.681,18.743 78.379,18.908 C 78.076,19.072 77.764,19.155 77.444,19.155 Z M 76.296,18.531 L 77.427,18.531 C 77.71,18.531 77.926,18.467 78.074,18.339 C 78.222,18.21 78.297,18.055 78.297,17.873 C 78.297,17.724 78.246,17.593 78.146,17.48 C 78.045,17.368 77.879,17.281 77.646,17.22 L 78.259,16.344 C 78.333,16.24 78.399,16.168 78.458,16.129 C 78.495,16.106 78.547,16.091 78.613,16.085 L 78.613,15.988 L 78.074,15.988 L 77.213,17.179 L 76.99,17.179 L 76.99,16.27 C 77.002,16.206 77.03,16.159 77.074,16.129 C 77.118,16.1 77.205,16.085 77.336,16.085 L 77.336,15.988 L 76.261,15.988 L 76.261,16.085 C 76.354,16.085 76.421,16.096 76.46,16.119 C 76.499,16.141 76.527,16.174 76.545,16.217 C 76.558,16.249 76.565,16.34 76.565,16.491 L 76.565,18.029 C 76.565,18.174 76.562,18.259 76.556,18.284 C 76.543,18.33 76.518,18.364 76.482,18.389 C 76.446,18.413 76.384,18.426 76.296,18.426 L 76.296,18.531 Z M 76.99,17.305 C 77.221,17.305 77.389,17.328 77.495,17.373 C 77.602,17.418 77.683,17.481 77.74,17.563 C 77.797,17.644 77.825,17.737 77.825,17.84 C 77.825,17.999 77.77,18.133 77.66,18.24 C 77.549,18.348 77.408,18.402 77.236,18.402 C 77.162,18.402 77.08,18.386 76.99,18.355 L 76.99,17.305 Z" stroke-linejoin="round" stroke-linecap="round" stroke="none" fill-rule="nonzero" stroke-width="0.118" fill="#000000" marker-start="none" marker-end="none" stroke-miterlimit="79.8403193612775"/>
    <path d="M 10.23,16.702 L 10.589,16.475 C 10.707,16.4 10.851,16.236 10.911,16.109 L 11.093,15.72 C 11.153,15.592 11.261,15.586 11.334,15.706 L 11.557,16.072 C 11.63,16.192 11.791,16.339 11.916,16.4 L 12.298,16.586 C 12.423,16.647 12.428,16.757 12.311,16.831 L 11.951,17.058 C 11.834,17.133 11.69,17.297 11.63,17.424 L 11.448,17.813 C 11.388,17.941 11.28,17.947 11.207,17.827 L 10.984,17.461 C 10.911,17.341 10.75,17.194 10.625,17.133 L 10.243,16.947 C 10.118,16.886 10.112,16.776 10.23,16.702 Z" stroke-width="0.188" stroke-linecap="round" stroke="#000000" stroke-linejoin="miter" fill="#eeeeee" marker-start="none" marker-end="none" stroke-miterlimit="79.8403193612775"/>
    <path d="M 42.404,17.826 L 42.763,17.599 C 42.881,17.524 43.025,17.36 43.085,17.233 L 43.267,16.844 C 43.327,16.716 43.435,16.71 43.508,16.83 L 43.731,17.196 C 43.804,17.316 43.965,17.463 44.09,17.524 L 44.472,17.71 C 44.597,17.771 44.602,17.881 44.485,17.955 L 44.125,18.182 C 44.008,18.257 43.864,18.421 43.804,18.548 L 43.622,18.937 C 43.562,19.065 43.454,19.071 43.381,18.951 L 43.158,18.585 C 43.085,18.465 42.924,18.318 42.799,18.257 L 42.417,18.071 C 42.292,18.01 42.286,17.9 42.404,17.826 Z" stroke-width="0.188" stroke-linecap="round" stroke="#000000" stroke-linejoin="miter" fill="#eeeeee" marker-start="none" marker-end="none" stroke-miterlimit="79.8403193612775"/>
    <path d="M 1.755,12.051 L 2.114,11.824 C 2.232,11.749 2.376,11.585 2.436,11.458 L 2.618,11.069 C 2.678,10.941 2.786,10.935 2.859,11.055 L 3.082,11.421 C 3.155,11.541 3.316,11.688 3.441,11.749 L 3.823,11.935 C 3.948,11.996 3.953,12.106 3.836,12.18 L 3.476,12.407 C 3.359,12.482 3.215,12.646 3.155,12.773 L 2.973,13.162 C 2.913,13.29 2.805,13.296 2.732,13.176 L 2.509,12.81 C 2.436,12.69 2.275,12.543 2.15,12.482 L 1.768,12.296 C 1.643,12.235 1.637,12.125 1.755,12.051 Z" stroke-width="0.188" stroke-linecap="round" stroke="#000000" stroke-linejoin="miter" fill="#eeeeee" marker-start="none" marker-end="none" stroke-miterlimit="79.8403193612775"/>
   </g>
  </g>
 </g>
</svg>
