<?xml version="1.0" standalone="no"?>
<!DOCTYPE svg PUBLIC "-//W3C//DTD SVG 1.1//EN" "http://www.w3.org/Graphics/SVG/1.1/DTD/svg11.dtd">
<!--Generator: Xara Designer (www.xara.com), SVG filter version: 5.0.0.2-->
<svg stroke-width="0.501" stroke-linejoin="bevel" fill-rule="evenodd" xmlns:xlink="http://www.w3.org/1999/xlink" xmlns="http://www.w3.org/2000/svg" version="1.1" overflow="visible" width="75pt" height="22.5pt" viewBox="0 0 75 22.5">
 <defs>
  <marker id="DefaultArrow2" markerUnits="strokeWidth" viewBox="0 0 1 1" markerWidth="1" markerHeight="1" overflow="visible" orient="auto">
   <!-- REF_ARROW_STRAIGHT (-2) -->
   <g transform="scale(0.0092592592)">
    <!-- 1/108 -->
    <path d="M -9 54 L -9 -54 L 117 0 z"/>
   </g>
  </marker>
  <marker id="DefaultArrow3" markerUnits="strokeWidth" viewBox="0 0 1 1" markerWidth="1" markerHeight="1" overflow="visible" orient="auto">
   <!-- REF_ARROW_ANGLED -->
   <g transform="scale(0.0092592592)">
    <path d="M -27 54 L -9 0 L -27 -54 L 135 0 z"/>
   </g>
  </marker>
  <marker id="DefaultArrow4" markerUnits="strokeWidth" viewBox="0 0 1 1" markerWidth="1" markerHeight="1" overflow="visible" orient="auto">
   <!-- REF_ARROW_ROUNDED -->
   <g transform="scale(0.0092592592)">
    <path d="M -9,0 L -9,-45 C -9,-51.708 2.808,-56.580 9,-54 L 117,-9 C 120.916,-7.369 126.000,-4.242 126,0 C 126,4.242 120.916,7.369 117,9 L 9,54 C 2.808,56.580 -9,51.708 -9,45 z"/>
   </g>
  </marker>
  <marker id="DefaultArrow5" markerUnits="strokeWidth" viewBox="0 0 1 1" markerWidth="1" markerHeight="1" overflow="visible" orient="auto">
   <!-- REF_ARROW_SPOT -->
   <g transform="scale(0.0092592592)">
    <path d="M -54, 0 C -54,29.807 -29.807,54 0,54 C 29.807,54 54,29.807 54,0 C 54,-29.807 29.807,-54 0,-54 C -29.807,-54 -54,-29.807 -54,0 z"/>
   </g>
  </marker>
  <marker id="DefaultArrow6" markerUnits="strokeWidth" viewBox="0 0 1 1" markerWidth="1" markerHeight="1" overflow="visible" orient="auto">
   <!-- REF_ARROW_DIAMOND -->
   <g transform="scale(0.0092592592)">
    <path d="M -63,0 L 0,63 L 63,0 L 0,-63 z"/>
   </g>
  </marker>
  <marker id="DefaultArrow7" markerUnits="strokeWidth" viewBox="0 0 1 1" markerWidth="1" markerHeight="1" overflow="visible" orient="auto">
   <!-- REF_ARROW_FEATHER -->
   <g transform="scale(0.0092592592)">
    <path d="M 18,-54 L 108,-54 L 63,0 L 108,54 L 18, 54 L -36,0 z"/>
   </g>
  </marker>
  <marker id="DefaultArrow8" markerUnits="strokeWidth" viewBox="0 0 1 1" markerWidth="1" markerHeight="1" overflow="visible" orient="auto">
   <!-- REF_ARROW_FEATHER2 -->
   <g transform="scale(0.0092592592)">
    <path d="M -36,0 L 18,-54 L 54,-54 L 18,-18 L 27,-18 L 63,-54 L 99,-54 L 63,-18 L 72,-18 L 108,-54 L 144,-54 L 90,0 L 144,54 L 108,54 L 72,18 L 63,18 L 99,54 L 63,54 L 27,18 L 18,18 L 54,54 L 18,54 z"/>
   </g>
  </marker>
  <marker id="DefaultArrow9" markerUnits="strokeWidth" viewBox="0 0 1 1" markerWidth="1" markerHeight="1" overflow="visible" orient="auto">
   <!-- REF_ARROW_HOLLOWDIAMOND -->
   <g transform="scale(0.0092592592)">
    <path d="M 0,45 L -45,0 L 0, -45 L 45, 0 z M 0, 63 L-63, 0 L 0, -63 L 63, 0 z"/>
   </g>
  </marker>
  <filter id="StainedFilter">
   <feBlend mode="multiply" in2="BackgroundImage" in="SourceGraphic" result="blend"/>
   <feComposite in="blend" in2="SourceAlpha" operator="in" result="comp"/>
  </filter>
  <filter id="BleachFilter">
   <feBlend mode="screen" in2="BackgroundImage" in="SourceGraphic" result="blend"/>
   <feComposite in="blend" in2="SourceAlpha" operator="in" result="comp"/>
  </filter>
  <filter id="InvertTransparencyBitmapFilter">
   <feComponentTransfer>
    <feFuncR type="gamma" amplitude="1.055" exponent=".416666666" offset="-0.055"/>
    <feFuncG type="gamma" amplitude="1.055" exponent=".416666666" offset="-0.055"/>
    <feFuncB type="gamma" amplitude="1.055" exponent=".416666666" offset="-0.055"/>
   </feComponentTransfer>
   <feComponentTransfer>
    <feFuncR type="linear" slope="-1" intercept="1"/>
    <feFuncG type="linear" slope="-1" intercept="1"/>
    <feFuncB type="linear" slope="-1" intercept="1"/>
    <feFuncA type="linear" slope="1" intercept="0"/>
   </feComponentTransfer>
   <feComponentTransfer>
    <feFuncR type="gamma" amplitude="1" exponent="2.4" offset="0"/>
    <feFuncG type="gamma" amplitude="1" exponent="2.4" offset="0"/>
    <feFuncB type="gamma" amplitude="1" exponent="2.4" offset="0"/>
   </feComponentTransfer>
  </filter>
 </defs>
 <g id="Document" fill="none" stroke="black" font-family="Times New Roman" font-size="16" transform="scale(1 -1)">
  <g id="Spread" transform="translate(0 -22.5)">
   <g id="Layer 1">
    <path d="M 3.875,18.22 L 3.957,18.528 C 4.618,18.591 5.183,18.683 5.653,18.801 C 5.539,18.482 5.415,18.065 5.283,17.55 L 4.778,15.629 L 5.406,15.588 C 5.698,15.574 6.016,15.647 6.36,15.807 C 6.704,15.966 7.011,16.247 7.283,16.648 C 7.554,17.049 7.689,17.482 7.689,17.946 C 7.689,18.407 7.524,18.771 7.194,19.04 C 6.863,19.309 6.359,19.444 5.68,19.444 C 4.905,19.444 4.146,19.251 3.403,18.866 C 2.661,18.481 2.088,17.989 1.684,17.389 C 1.281,16.79 1.079,16.199 1.079,15.615 C 1.079,15.328 1.132,15.079 1.237,14.867 C 1.341,14.655 1.528,14.447 1.797,14.242 C 2.02,14.077 2.132,13.918 2.132,13.763 C 2.132,13.663 2.096,13.578 2.023,13.51 C 1.95,13.442 1.863,13.408 1.763,13.408 C 1.494,13.408 1.234,13.592 0.984,13.961 C 0.733,14.33 0.607,14.797 0.607,15.362 C 0.607,16.397 1.004,17.34 1.797,18.193 C 2.836,19.314 4.231,19.874 5.981,19.874 C 6.646,19.874 7.192,19.788 7.618,19.614 C 8.044,19.441 8.363,19.204 8.575,18.903 C 8.787,18.603 8.893,18.277 8.893,17.926 C 8.893,17.479 8.743,17.041 8.445,16.61 C 8.146,16.179 7.707,15.832 7.126,15.568 C 6.545,15.303 5.899,15.171 5.188,15.171 C 5.078,15.171 4.907,15.178 4.675,15.192 L 4.135,13.066 C 4.044,12.706 3.941,12.35 3.827,11.999 C 4.183,11.913 4.492,11.869 4.757,11.869 C 5.09,11.869 5.447,11.933 5.83,12.061 L 5.748,11.678 C 5.393,11.582 5.092,11.535 4.846,11.535 C 4.609,11.535 4.262,11.56 3.807,11.61 C 3.442,11.655 3.146,11.678 2.918,11.678 C 2.476,11.678 2.023,11.626 1.558,11.521 L 1.64,11.883 C 2.114,11.961 2.437,12.072 2.61,12.218 C 2.857,12.423 3.057,12.836 3.212,13.455 L 4.244,17.55 C 4.29,17.741 4.313,17.876 4.313,17.953 C 4.313,18.026 4.283,18.091 4.224,18.148 C 4.164,18.205 4.094,18.234 4.012,18.234 C 3.98,18.234 3.934,18.229 3.875,18.22 Z" fill-rule="nonzero" stroke-linejoin="round" stroke-linecap="round" stroke="none" stroke-width="0.25" fill="#000000" marker-start="none" marker-end="none" stroke-miterlimit="79.8403193612775"/>
    <path d="M 11.921,13.394 L 12.147,13.093 C 11.03,12.031 10.074,11.5 9.276,11.5 C 8.952,11.5 8.705,11.61 8.534,11.828 C 8.363,12.047 8.278,12.398 8.278,12.881 C 8.278,13.857 8.574,14.827 9.167,15.793 C 9.832,16.892 10.627,17.441 11.552,17.441 C 11.876,17.441 12.123,17.36 12.294,17.198 C 12.465,17.036 12.55,16.814 12.55,16.531 C 12.55,16.235 12.448,15.943 12.243,15.656 C 12.038,15.369 11.671,15.071 11.142,14.761 C 10.878,14.611 10.313,14.34 9.447,13.948 C 9.406,13.702 9.385,13.467 9.385,13.243 C 9.385,12.92 9.437,12.694 9.539,12.567 C 9.642,12.439 9.791,12.375 9.987,12.375 C 10.174,12.375 10.379,12.428 10.602,12.533 C 10.903,12.674 11.343,12.961 11.921,13.394 Z M 9.529,14.385 C 10.263,14.713 10.814,15.066 11.183,15.445 C 11.434,15.709 11.559,15.971 11.559,16.231 C 11.559,16.427 11.508,16.583 11.405,16.699 C 11.303,16.815 11.17,16.873 11.005,16.873 C 10.837,16.873 10.673,16.81 10.513,16.682 C 10.299,16.513 10.119,16.258 9.973,15.916 C 9.764,15.415 9.616,14.905 9.529,14.385 Z" fill-rule="nonzero" stroke-linejoin="round" stroke-linecap="round" stroke="none" stroke-width="0.25" fill="#000000" marker-start="none" marker-end="none" stroke-miterlimit="79.8403193612775"/>
    <path d="M 14.362,11.678 L 13.344,11.678 L 13.822,13.517 C 14.054,14.419 14.257,15.276 14.431,16.087 C 14.471,16.288 14.492,16.413 14.492,16.463 C 14.492,16.573 14.442,16.627 14.342,16.627 C 14.273,16.627 14.168,16.58 14.027,16.487 C 13.886,16.394 13.631,16.162 13.262,15.793 L 13.05,16.033 C 13.487,16.502 13.923,16.854 14.359,17.089 C 14.794,17.323 15.128,17.441 15.36,17.441 C 15.442,17.441 15.507,17.421 15.555,17.383 C 15.603,17.344 15.627,17.295 15.627,17.236 C 15.627,17.176 15.597,17.019 15.538,16.764 L 15.244,15.54 C 15.704,16.265 16.224,16.885 16.803,17.4 C 17.081,17.646 17.313,17.769 17.5,17.769 C 17.636,17.769 17.75,17.724 17.842,17.636 C 17.933,17.547 17.978,17.443 17.978,17.324 C 17.978,17.202 17.934,17.097 17.845,17.01 C 17.756,16.923 17.534,16.821 17.178,16.702 C 16.841,16.588 16.567,16.452 16.355,16.292 C 16.143,16.133 15.91,15.889 15.657,15.561 C 15.405,15.233 15.228,14.947 15.128,14.703 C 15.027,14.459 14.875,13.893 14.67,13.004 L 14.362,11.678 Z" fill-rule="nonzero" stroke-linejoin="round" stroke-linecap="round" stroke="none" stroke-width="0.25" fill="#000000" marker-start="none" marker-end="none" stroke-miterlimit="79.8403193612775"/>
    <path d="M 20.138,13.326 L 20.371,13.079 C 20.015,12.678 19.595,12.312 19.109,11.982 C 18.624,11.652 18.224,11.487 17.91,11.487 C 17.768,11.487 17.652,11.54 17.561,11.647 C 17.47,11.754 17.424,11.901 17.424,12.088 C 17.424,12.453 17.565,13.209 17.848,14.358 L 18.586,17.359 C 18.855,18.443 19.081,19.17 19.263,19.539 C 19.546,20.1 19.946,20.535 20.463,20.845 C 20.98,21.155 21.526,21.31 22.1,21.31 C 22.296,21.31 22.45,21.263 22.561,21.17 C 22.673,21.076 22.729,20.963 22.729,20.831 C 22.729,20.685 22.674,20.566 22.565,20.472 C 22.456,20.379 22.296,20.332 22.086,20.332 C 21.95,20.332 21.756,20.355 21.505,20.401 C 21.287,20.437 21.084,20.455 20.897,20.455 C 20.71,20.455 20.569,20.417 20.473,20.339 C 20.341,20.23 20.221,20 20.114,19.649 C 20.007,19.298 19.833,18.605 19.591,17.571 L 18.915,14.706 C 18.577,13.271 18.409,12.521 18.409,12.457 C 18.409,12.311 18.461,12.239 18.566,12.239 C 18.666,12.239 18.812,12.298 19.003,12.416 C 19.382,12.653 19.76,12.956 20.138,13.326 Z" fill-rule="nonzero" stroke-linejoin="round" stroke-linecap="round" stroke="none" stroke-width="0.25" fill="#000000" marker-start="none" marker-end="none" stroke-miterlimit="79.8403193612775"/>
    <path d="M 24.233,13.394 L 24.459,13.093 C 23.342,12.031 22.386,11.5 21.588,11.5 C 21.264,11.5 21.017,11.61 20.846,11.828 C 20.675,12.047 20.59,12.398 20.59,12.881 C 20.59,13.857 20.886,14.827 21.479,15.793 C 22.144,16.892 22.939,17.441 23.864,17.441 C 24.188,17.441 24.435,17.36 24.606,17.198 C 24.777,17.036 24.862,16.814 24.862,16.531 C 24.862,16.235 24.76,15.943 24.555,15.656 C 24.35,15.369 23.983,15.071 23.454,14.761 C 23.19,14.611 22.625,14.34 21.759,13.948 C 21.718,13.702 21.697,13.467 21.697,13.243 C 21.697,12.92 21.749,12.694 21.851,12.567 C 21.954,12.439 22.103,12.375 22.299,12.375 C 22.486,12.375 22.691,12.428 22.914,12.533 C 23.215,12.674 23.655,12.961 24.233,13.394 Z M 21.841,14.385 C 22.575,14.713 23.126,15.066 23.495,15.445 C 23.746,15.709 23.871,15.971 23.871,16.231 C 23.871,16.427 23.82,16.583 23.717,16.699 C 23.615,16.815 23.482,16.873 23.317,16.873 C 23.149,16.873 22.985,16.81 22.825,16.682 C 22.611,16.513 22.431,16.258 22.285,15.916 C 22.076,15.415 21.928,14.905 21.841,14.385 Z" fill-rule="nonzero" stroke-linejoin="round" stroke-linecap="round" stroke="none" stroke-width="0.25" fill="#000000" marker-start="none" marker-end="none" stroke-miterlimit="79.8403193612775"/>
    <path d="M 33.749,13.093 L 33.94,12.833 C 33.33,12.318 32.877,11.977 32.58,11.808 C 32.17,11.576 31.847,11.459 31.61,11.459 C 31.5,11.459 31.411,11.49 31.343,11.552 C 31.274,11.613 31.24,11.683 31.24,11.76 C 31.24,11.838 31.265,11.965 31.316,12.143 L 31.555,12.977 C 31.008,12.389 30.552,11.99 30.188,11.78 C 29.823,11.571 29.495,11.466 29.203,11.466 C 28.962,11.466 28.759,11.572 28.595,11.784 C 28.431,11.996 28.349,12.307 28.349,12.717 C 28.349,13.364 28.571,14.108 29.015,14.949 C 29.46,15.79 29.954,16.412 30.499,16.815 C 31.043,17.219 31.541,17.42 31.992,17.42 C 32.093,17.42 32.243,17.404 32.443,17.372 C 32.658,18.261 32.863,18.909 33.059,19.317 C 33.255,19.725 33.508,20.077 33.817,20.373 C 34.127,20.669 34.482,20.898 34.88,21.06 C 35.279,21.222 35.652,21.303 35.998,21.303 C 36.18,21.303 36.326,21.255 36.436,21.159 C 36.545,21.064 36.6,20.943 36.6,20.797 C 36.6,20.656 36.549,20.541 36.449,20.452 C 36.349,20.363 36.212,20.319 36.039,20.319 C 35.925,20.319 35.713,20.341 35.403,20.387 C 35.093,20.433 34.882,20.455 34.768,20.455 C 34.608,20.455 34.468,20.406 34.347,20.308 C 34.227,20.21 34.111,20 34.002,19.676 C 33.929,19.471 33.763,18.817 33.503,17.714 L 32.532,13.585 C 32.418,13.098 32.361,12.774 32.361,12.614 C 32.361,12.441 32.427,12.355 32.56,12.355 C 32.642,12.355 32.737,12.384 32.847,12.444 C 33.002,12.53 33.303,12.747 33.749,13.093 Z M 32.3,16.62 C 31.935,16.702 31.678,16.743 31.527,16.743 C 31.222,16.743 30.924,16.624 30.632,16.384 C 30.34,16.145 30.059,15.682 29.788,14.993 C 29.516,14.305 29.381,13.706 29.381,13.196 C 29.381,12.963 29.443,12.773 29.569,12.625 C 29.694,12.477 29.837,12.402 29.996,12.403 C 30.188,12.402 30.406,12.487 30.652,12.655 C 31.003,12.906 31.281,13.212 31.486,13.571 C 31.61,13.799 31.776,14.358 31.985,15.246 L 32.3,16.62 Z" fill-rule="nonzero" stroke-linejoin="round" stroke-linecap="round" stroke="none" stroke-width="0.25" fill="#000000" marker-start="none" marker-end="none" stroke-miterlimit="79.8403193612775"/>
    <path d="M 37.557,20.366 C 37.698,20.366 37.814,20.32 37.905,20.226 C 37.996,20.133 38.042,20.013 38.042,19.867 C 38.042,19.667 37.972,19.49 37.833,19.338 C 37.694,19.185 37.538,19.109 37.365,19.109 C 37.228,19.109 37.114,19.156 37.023,19.252 C 36.932,19.348 36.887,19.473 36.887,19.628 C 36.887,19.833 36.953,20.008 37.085,20.151 C 37.217,20.295 37.374,20.366 37.557,20.366 Z M 34.863,15.841 L 34.562,16.073 C 35.018,16.575 35.434,16.931 35.81,17.143 C 36.186,17.355 36.506,17.461 36.77,17.461 C 36.916,17.461 37.028,17.429 37.105,17.365 C 37.183,17.302 37.222,17.215 37.222,17.106 C 37.222,16.974 37.073,16.413 36.777,15.424 C 36.294,13.806 36.053,12.831 36.053,12.498 C 36.053,12.434 36.069,12.381 36.1,12.338 C 36.132,12.294 36.167,12.273 36.203,12.273 C 36.349,12.273 36.723,12.555 37.324,13.12 L 37.591,12.861 C 36.966,12.273 36.511,11.897 36.223,11.733 C 35.936,11.569 35.702,11.487 35.519,11.487 C 35.36,11.487 35.234,11.537 35.14,11.637 C 35.047,11.737 35,11.876 35,12.054 C 35,12.624 35.342,14.016 36.025,16.231 C 36.057,16.335 36.073,16.429 36.073,16.511 C 36.073,16.602 36.032,16.648 35.95,16.648 C 35.859,16.648 35.755,16.611 35.639,16.538 C 35.523,16.465 35.264,16.233 34.863,15.841 Z" fill-rule="nonzero" stroke-linejoin="round" stroke-linecap="round" stroke="none" stroke-width="0.25" fill="#000000" marker-start="none" marker-end="none" stroke-miterlimit="79.8403193612775"/>
    <path d="M 46.922,17.222 L 46.567,17.222 C 46.617,17.7 46.642,18.063 46.642,18.309 C 46.642,18.66 46.547,18.937 46.358,19.139 C 46.169,19.342 45.913,19.444 45.589,19.444 C 45.088,19.444 44.65,19.262 44.277,18.9 C 43.903,18.538 43.716,18.131 43.716,17.68 C 43.716,17.438 43.767,17.22 43.87,17.024 C 43.972,16.828 44.199,16.554 44.55,16.203 C 45.193,15.574 45.614,15.082 45.815,14.727 C 46.015,14.371 46.116,14.025 46.115,13.688 C 46.116,13.191 45.964,12.712 45.661,12.252 C 45.358,11.792 44.911,11.413 44.321,11.114 C 43.731,10.815 43.108,10.666 42.452,10.666 C 41.804,10.666 41.259,10.835 40.814,11.172 C 40.37,11.509 40.148,11.865 40.148,12.239 C 40.148,12.439 40.206,12.605 40.322,12.738 C 40.438,12.87 40.572,12.936 40.722,12.936 C 40.877,12.936 41.004,12.874 41.105,12.751 C 41.169,12.678 41.232,12.514 41.296,12.259 C 41.369,11.949 41.458,11.725 41.563,11.586 C 41.668,11.447 41.812,11.333 41.997,11.244 C 42.181,11.155 42.383,11.111 42.602,11.111 C 43.253,11.111 43.823,11.331 44.311,11.77 C 44.798,12.21 45.042,12.696 45.042,13.23 C 45.042,13.412 45.012,13.593 44.95,13.773 C 44.888,13.953 44.776,14.157 44.612,14.385 C 44.498,14.54 44.245,14.813 43.853,15.205 C 43.466,15.588 43.222,15.85 43.121,15.992 C 42.98,16.197 42.875,16.403 42.807,16.61 C 42.739,16.818 42.704,17.024 42.704,17.229 C 42.704,17.644 42.843,18.06 43.121,18.48 C 43.399,18.899 43.761,19.233 44.205,19.481 C 44.649,19.729 45.154,19.854 45.719,19.854 C 46.001,19.854 46.35,19.81 46.765,19.724 C 47.002,19.678 47.207,19.644 47.38,19.621 C 47.28,19.325 47.202,19.046 47.148,18.784 C 47.093,18.522 47.018,18.001 46.922,17.222 Z" fill-rule="nonzero" stroke-linejoin="round" stroke-linecap="round" stroke="none" stroke-width="0.25" fill="#000000" marker-start="none" marker-end="none" stroke-miterlimit="79.8403193612775"/>
    <path d="M 49.431,18.48 L 50.517,18.897 L 50.025,16.983 L 51.44,16.983 L 51.331,16.497 L 49.916,16.497 L 49.314,14.207 C 49.127,13.519 49.034,13.041 49.034,12.772 C 49.034,12.649 49.06,12.56 49.113,12.505 C 49.165,12.451 49.237,12.423 49.328,12.423 C 49.469,12.423 49.686,12.507 49.977,12.676 C 50.36,12.899 50.725,13.152 51.071,13.435 L 51.331,13.12 C 50.333,12.368 49.665,11.908 49.328,11.739 C 48.991,11.571 48.72,11.487 48.514,11.487 C 48.346,11.487 48.213,11.548 48.115,11.671 C 48.017,11.794 47.968,11.995 47.968,12.273 C 47.968,12.601 48.054,13.102 48.227,13.777 L 48.932,16.497 L 47.824,16.497 L 47.947,16.983 L 49.048,16.983 L 49.431,18.48 Z" fill-rule="nonzero" stroke-linejoin="round" stroke-linecap="round" stroke="none" stroke-width="0.25" fill="#000000" marker-start="none" marker-end="none" stroke-miterlimit="79.8403193612775"/>
    <path d="M 55.575,13.394 L 55.801,13.093 C 54.684,12.031 53.728,11.5 52.93,11.5 C 52.606,11.5 52.359,11.61 52.188,11.828 C 52.017,12.047 51.932,12.398 51.932,12.881 C 51.932,13.857 52.228,14.827 52.821,15.793 C 53.486,16.892 54.281,17.441 55.206,17.441 C 55.53,17.441 55.777,17.36 55.948,17.198 C 56.119,17.036 56.204,16.814 56.204,16.531 C 56.204,16.235 56.102,15.943 55.897,15.656 C 55.692,15.369 55.325,15.071 54.796,14.761 C 54.532,14.611 53.967,14.34 53.101,13.948 C 53.06,13.702 53.039,13.467 53.039,13.243 C 53.039,12.92 53.091,12.694 53.193,12.567 C 53.296,12.439 53.445,12.375 53.641,12.375 C 53.828,12.375 54.033,12.428 54.256,12.533 C 54.557,12.674 54.997,12.961 55.575,13.394 Z M 53.183,14.385 C 53.917,14.713 54.468,15.066 54.837,15.445 C 55.088,15.709 55.213,15.971 55.213,16.231 C 55.213,16.427 55.162,16.583 55.059,16.699 C 54.957,16.815 54.824,16.873 54.659,16.873 C 54.491,16.873 54.327,16.81 54.167,16.682 C 53.953,16.513 53.773,16.258 53.627,15.916 C 53.418,15.415 53.27,14.905 53.183,14.385 Z" fill-rule="nonzero" stroke-linejoin="round" stroke-linecap="round" stroke="none" stroke-width="0.25" fill="#000000" marker-start="none" marker-end="none" stroke-miterlimit="79.8403193612775"/>
    <path d="M 59.595,13.326 L 59.828,13.079 C 59.472,12.678 59.052,12.312 58.566,11.982 C 58.081,11.652 57.681,11.487 57.367,11.487 C 57.225,11.487 57.109,11.54 57.018,11.647 C 56.927,11.754 56.881,11.901 56.881,12.088 C 56.881,12.453 57.022,13.209 57.305,14.358 L 58.043,17.359 C 58.312,18.443 58.538,19.17 58.72,19.539 C 59.003,20.1 59.403,20.535 59.92,20.845 C 60.437,21.155 60.983,21.31 61.557,21.31 C 61.753,21.31 61.907,21.263 62.018,21.17 C 62.13,21.076 62.186,20.963 62.186,20.831 C 62.186,20.685 62.131,20.566 62.022,20.472 C 61.913,20.379 61.753,20.332 61.543,20.332 C 61.407,20.332 61.213,20.355 60.962,20.401 C 60.744,20.437 60.541,20.455 60.354,20.455 C 60.167,20.455 60.026,20.417 59.93,20.339 C 59.798,20.23 59.678,20 59.571,19.649 C 59.464,19.298 59.29,18.605 59.048,17.571 L 58.372,14.706 C 58.034,13.271 57.866,12.521 57.866,12.457 C 57.866,12.311 57.918,12.239 58.023,12.239 C 58.123,12.239 58.269,12.298 58.46,12.416 C 58.839,12.653 59.217,12.956 59.595,13.326 Z" fill-rule="nonzero" stroke-linejoin="round" stroke-linecap="round" stroke="none" stroke-width="0.25" fill="#000000" marker-start="none" marker-end="none" stroke-miterlimit="79.8403193612775"/>
    <path d="M 62.952,13.326 L 63.185,13.079 C 62.829,12.678 62.409,12.312 61.923,11.982 C 61.438,11.652 61.038,11.487 60.724,11.487 C 60.582,11.487 60.466,11.54 60.375,11.647 C 60.284,11.754 60.238,11.901 60.238,12.088 C 60.238,12.453 60.379,13.209 60.662,14.358 L 61.4,17.359 C 61.669,18.443 61.895,19.17 62.077,19.539 C 62.36,20.1 62.76,20.535 63.277,20.845 C 63.794,21.155 64.34,21.31 64.914,21.31 C 65.11,21.31 65.264,21.263 65.375,21.17 C 65.487,21.076 65.543,20.963 65.543,20.831 C 65.543,20.685 65.488,20.566 65.379,20.472 C 65.27,20.379 65.11,20.332 64.9,20.332 C 64.764,20.332 64.57,20.355 64.319,20.401 C 64.101,20.437 63.898,20.455 63.711,20.455 C 63.524,20.455 63.383,20.417 63.287,20.339 C 63.155,20.23 63.035,20 62.928,19.649 C 62.821,19.298 62.647,18.605 62.405,17.571 L 61.729,14.706 C 61.391,13.271 61.223,12.521 61.223,12.457 C 61.223,12.311 61.275,12.239 61.38,12.239 C 61.48,12.239 61.626,12.298 61.817,12.416 C 62.196,12.653 62.574,12.956 62.952,13.326 Z" fill-rule="nonzero" stroke-linejoin="round" stroke-linecap="round" stroke="none" stroke-width="0.25" fill="#000000" marker-start="none" marker-end="none" stroke-miterlimit="79.8403193612775"/>
    <path d="M 67.047,13.394 L 67.273,13.093 C 66.156,12.031 65.2,11.5 64.402,11.5 C 64.078,11.5 63.831,11.61 63.66,11.828 C 63.489,12.047 63.404,12.398 63.404,12.881 C 63.404,13.857 63.7,14.827 64.293,15.793 C 64.958,16.892 65.753,17.441 66.678,17.441 C 67.002,17.441 67.249,17.36 67.42,17.198 C 67.591,17.036 67.676,16.814 67.676,16.531 C 67.676,16.235 67.574,15.943 67.369,15.656 C 67.164,15.369 66.797,15.071 66.268,14.761 C 66.004,14.611 65.439,14.34 64.573,13.948 C 64.532,13.702 64.511,13.467 64.511,13.243 C 64.511,12.92 64.563,12.694 64.665,12.567 C 64.768,12.439 64.917,12.375 65.113,12.375 C 65.3,12.375 65.505,12.428 65.728,12.533 C 66.029,12.674 66.469,12.961 67.047,13.394 Z M 64.655,14.385 C 65.389,14.713 65.94,15.066 66.309,15.445 C 66.56,15.709 66.685,15.971 66.685,16.231 C 66.685,16.427 66.634,16.583 66.531,16.699 C 66.429,16.815 66.296,16.873 66.131,16.873 C 65.963,16.873 65.799,16.81 65.639,16.682 C 65.425,16.513 65.245,16.258 65.099,15.916 C 64.89,15.415 64.742,14.905 64.655,14.385 Z" fill-rule="nonzero" stroke-linejoin="round" stroke-linecap="round" stroke="none" stroke-width="0.25" fill="#000000" marker-start="none" marker-end="none" stroke-miterlimit="79.8403193612775"/>
    <path d="M 19.884,6.405 C 20.095,6.636 20.303,6.806 20.507,6.914 C 20.712,7.023 20.892,7.077 21.048,7.077 C 21.231,7.077 21.376,7.004 21.486,6.858 C 21.595,6.712 21.65,6.492 21.65,6.198 C 21.65,5.771 21.55,5.352 21.349,4.944 C 21.149,4.535 20.901,4.224 20.605,4.01 C 20.309,3.796 20.021,3.69 19.74,3.69 C 19.5,3.69 19.309,3.76 19.165,3.901 C 19.022,4.041 18.951,4.224 18.951,4.448 C 18.951,4.627 18.986,4.877 19.056,5.198 L 19.517,7.264 C 19.629,7.769 19.77,8.154 19.939,8.418 C 20.108,8.683 20.331,8.894 20.607,9.051 C 20.883,9.209 21.145,9.288 21.392,9.288 C 21.541,9.288 21.649,9.262 21.718,9.211 C 21.787,9.161 21.822,9.092 21.822,9.006 C 21.822,8.928 21.791,8.863 21.728,8.811 C 21.666,8.759 21.577,8.733 21.462,8.733 C 21.376,8.733 21.228,8.752 21.017,8.791 C 20.923,8.81 20.84,8.819 20.767,8.819 C 20.637,8.819 20.531,8.748 20.451,8.608 C 20.391,8.498 20.309,8.221 20.205,7.776 L 19.884,6.405 Z M 20.654,6.643 C 20.526,6.643 20.375,6.566 20.199,6.412 C 20.023,6.259 19.857,5.987 19.701,5.598 C 19.544,5.209 19.466,4.826 19.466,4.451 C 19.466,4.311 19.511,4.193 19.601,4.098 C 19.691,4.003 19.796,3.955 19.916,3.955 C 20.205,3.955 20.462,4.184 20.689,4.641 C 20.916,5.098 21.029,5.553 21.029,6.006 C 21.029,6.212 20.986,6.38 20.9,6.51 C 20.84,6.599 20.758,6.643 20.654,6.643 Z" fill-rule="nonzero" stroke-linejoin="round" stroke-linecap="round" stroke="none" stroke-width="0.25" fill="#000000" marker-start="none" marker-end="none" stroke-miterlimit="79.8403193612775"/>
    <path d="M 22.044,6.295 L 21.919,6.479 L 22.208,6.674 C 22.489,6.867 22.687,6.991 22.802,7.045 C 22.867,7.077 22.927,7.092 22.981,7.092 C 23.036,7.092 23.088,7.061 23.138,6.998 C 23.367,6.709 23.56,6.319 23.716,5.829 C 23.872,5.337 23.95,4.862 23.95,4.401 C 23.95,4.341 23.948,4.25 23.943,4.127 C 24.383,4.937 24.603,5.58 24.603,6.057 C 24.603,6.156 24.58,6.287 24.536,6.452 C 24.489,6.634 24.466,6.764 24.466,6.842 C 24.466,6.918 24.49,6.98 24.538,7.03 C 24.586,7.079 24.647,7.104 24.72,7.104 C 24.811,7.104 24.885,7.069 24.941,6.998 C 24.997,6.928 25.025,6.828 25.025,6.698 C 25.025,6.362 24.948,5.943 24.794,5.442 C 24.64,4.94 24.399,4.401 24.069,3.824 C 23.74,3.248 23.439,2.819 23.167,2.539 C 22.895,2.259 22.632,2.059 22.378,1.938 C 22.124,1.817 21.884,1.756 21.657,1.756 C 21.485,1.756 21.356,1.788 21.269,1.852 C 21.181,1.915 21.138,1.992 21.138,2.08 C 21.138,2.158 21.172,2.226 21.239,2.282 C 21.307,2.338 21.398,2.365 21.513,2.365 C 21.601,2.365 21.722,2.349 21.876,2.315 C 22.04,2.278 22.152,2.26 22.212,2.26 C 22.371,2.26 22.539,2.326 22.716,2.459 C 22.958,2.642 23.15,2.859 23.292,3.112 C 23.434,3.364 23.505,3.619 23.505,3.877 C 23.505,4.239 23.452,4.674 23.347,5.182 C 23.241,5.69 23.092,6.078 22.899,6.346 C 22.803,6.484 22.7,6.553 22.591,6.553 C 22.463,6.553 22.281,6.467 22.044,6.295 Z" fill-rule="nonzero" stroke-linejoin="round" stroke-linecap="round" stroke="none" stroke-width="0.25" fill="#000000" marker-start="none" marker-end="none" stroke-miterlimit="79.8403193612775"/>
    <path d="M 30.021,3.639 L 29.708,7.842 C 29.64,7.134 29.515,6.473 29.333,5.86 C 29.151,5.246 28.944,4.772 28.712,4.438 C 28.48,4.103 28.243,3.868 28.001,3.733 C 27.759,3.597 27.519,3.53 27.282,3.53 C 27.139,3.53 27.029,3.559 26.952,3.617 C 26.875,3.676 26.837,3.747 26.837,3.83 C 26.837,3.901 26.865,3.962 26.921,4.014 C 26.977,4.066 27.048,4.092 27.134,4.092 C 27.196,4.092 27.286,4.078 27.403,4.049 C 27.51,4.02 27.599,4.006 27.669,4.006 C 27.791,4.006 27.919,4.052 28.052,4.143 C 28.252,4.278 28.451,4.521 28.648,4.871 C 28.844,5.222 29.02,5.71 29.175,6.336 C 29.33,6.963 29.427,7.574 29.466,8.17 C 28.875,8.17 28.394,8.023 28.024,7.729 C 27.73,7.494 27.583,7.233 27.583,6.944 C 27.583,6.816 27.653,6.662 27.794,6.483 C 27.869,6.386 27.907,6.308 27.907,6.248 C 27.907,6.181 27.886,6.125 27.843,6.08 C 27.8,6.036 27.748,6.014 27.688,6.014 C 27.587,6.014 27.497,6.071 27.419,6.186 C 27.312,6.34 27.259,6.522 27.259,6.733 C 27.259,7.03 27.358,7.314 27.558,7.586 C 27.757,7.858 28.033,8.065 28.386,8.207 C 28.739,8.349 29.152,8.422 29.626,8.424 C 29.881,8.424 30.086,8.448 30.239,8.495 C 30.232,8.26 30.228,8.134 30.228,8.116 C 30.228,8.092 30.232,8.039 30.239,7.955 L 30.47,4.987 C 31.097,6.083 31.711,6.985 32.31,7.694 C 32.734,8.196 33.104,8.536 33.419,8.713 C 33.239,8.218 33.047,7.566 32.841,6.756 L 32.364,4.881 C 32.338,4.777 32.303,4.625 32.259,4.424 L 32.165,4.006 C 32.363,3.959 32.544,3.936 32.708,3.936 C 32.841,3.936 32.983,3.951 33.134,3.983 L 33.083,3.756 C 32.95,3.733 32.848,3.721 32.775,3.721 C 32.668,3.721 32.514,3.733 32.314,3.756 C 32.15,3.777 32.004,3.787 31.876,3.787 C 31.741,3.787 31.587,3.761 31.415,3.709 C 31.558,4.084 31.708,4.588 31.864,5.221 L 32.165,6.416 C 32.293,6.932 32.404,7.286 32.497,7.479 C 32.289,7.242 31.967,6.807 31.532,6.174 C 31.183,5.664 30.793,5.018 30.36,4.237 L 30.021,3.639 Z" fill-rule="nonzero" stroke-linejoin="round" stroke-linecap="round" stroke="none" stroke-width="0.25" fill="#000000" marker-start="none" marker-end="none" stroke-miterlimit="79.8403193612775"/>
    <path d="M 35.669,7.088 C 35.925,7.088 36.137,6.987 36.306,6.784 C 36.475,6.58 36.56,6.298 36.56,5.936 C 36.56,5.358 36.357,4.839 35.951,4.379 C 35.544,3.92 35.115,3.69 34.661,3.69 C 34.383,3.69 34.158,3.781 33.988,3.963 C 33.817,4.145 33.732,4.394 33.732,4.709 C 33.732,5.256 33.888,5.761 34.2,6.225 C 34.594,6.801 35.083,7.088 35.669,7.088 Z M 35.337,6.795 C 35.116,6.795 34.902,6.637 34.695,6.321 C 34.488,6.004 34.384,5.567 34.384,5.01 C 34.384,4.671 34.448,4.405 34.575,4.209 C 34.669,4.066 34.794,3.994 34.951,3.994 C 35.169,3.994 35.368,4.13 35.548,4.401 C 35.777,4.752 35.892,5.188 35.892,5.709 C 35.892,6.1 35.839,6.379 35.734,6.545 C 35.628,6.712 35.496,6.795 35.337,6.795 Z" fill-rule="nonzero" stroke-linejoin="round" stroke-linecap="round" stroke="none" stroke-width="0.25" fill="#000000" marker-start="none" marker-end="none" stroke-miterlimit="79.8403193612775"/>
    <path d="M 37.036,6.19 L 36.919,6.346 C 37.177,6.604 37.422,6.794 37.653,6.916 C 37.885,7.039 38.067,7.1 38.2,7.1 C 38.255,7.1 38.296,7.088 38.323,7.065 C 38.351,7.041 38.364,7.009 38.364,6.967 C 38.364,6.915 38.344,6.815 38.302,6.666 C 38.242,6.448 38.2,6.274 38.177,6.147 C 38.802,6.782 39.28,7.1 39.61,7.1 C 39.696,7.1 39.762,7.077 39.806,7.03 C 39.85,6.983 39.872,6.909 39.872,6.807 C 39.872,6.698 39.833,6.511 39.755,6.248 C 40.052,6.558 40.31,6.778 40.528,6.907 C 40.747,7.036 40.918,7.1 41.04,7.1 C 41.15,7.1 41.234,7.069 41.294,7.006 C 41.354,6.944 41.384,6.847 41.384,6.717 C 41.384,6.639 41.371,6.547 41.345,6.44 C 41.319,6.333 41.224,6.007 41.06,5.463 C 40.854,4.789 40.751,4.386 40.751,4.256 C 40.751,4.168 40.788,4.123 40.86,4.123 C 40.91,4.123 40.958,4.139 41.005,4.17 C 41.159,4.28 41.316,4.415 41.478,4.576 L 41.607,4.436 C 41.552,4.391 41.449,4.3 41.298,4.162 C 41.09,3.975 40.946,3.858 40.868,3.811 C 40.717,3.722 40.59,3.678 40.485,3.678 C 40.407,3.678 40.338,3.716 40.278,3.793 C 40.219,3.87 40.189,3.976 40.189,4.112 C 40.189,4.237 40.207,4.383 40.243,4.551 C 40.28,4.719 40.387,5.096 40.564,5.682 C 40.696,6.122 40.763,6.389 40.763,6.483 C 40.763,6.571 40.724,6.616 40.646,6.616 C 40.581,6.616 40.493,6.583 40.384,6.518 C 40.16,6.383 39.972,6.217 39.821,6.022 C 39.717,5.886 39.626,5.672 39.548,5.377 C 39.374,4.734 39.243,4.209 39.157,3.803 L 38.603,3.803 L 39.185,6.19 C 39.226,6.362 39.247,6.461 39.247,6.487 C 39.247,6.528 39.237,6.56 39.216,6.582 C 39.195,6.605 39.165,6.616 39.126,6.616 C 39.056,6.616 38.946,6.561 38.798,6.452 C 38.54,6.267 38.355,6.088 38.241,5.914 C 38.128,5.741 38.031,5.477 37.95,5.123 L 37.649,3.803 L 37.091,3.803 L 37.532,5.666 C 37.662,6.205 37.728,6.498 37.728,6.545 C 37.728,6.605 37.704,6.635 37.657,6.635 C 37.556,6.635 37.349,6.487 37.036,6.19 Z" fill-rule="nonzero" stroke-linejoin="round" stroke-linecap="round" stroke="none" stroke-width="0.25" fill="#000000" marker-start="none" marker-end="none" stroke-miterlimit="79.8403193612775"/>
    <path d="M 41.88,6.295 L 41.755,6.479 L 42.044,6.674 C 42.325,6.867 42.523,6.991 42.638,7.045 C 42.703,7.077 42.763,7.092 42.817,7.092 C 42.872,7.092 42.924,7.061 42.974,6.998 C 43.203,6.709 43.396,6.319 43.552,5.829 C 43.708,5.337 43.786,4.862 43.786,4.401 C 43.786,4.341 43.784,4.25 43.779,4.127 C 44.219,4.937 44.439,5.58 44.439,6.057 C 44.439,6.156 44.416,6.287 44.372,6.452 C 44.325,6.634 44.302,6.764 44.302,6.842 C 44.302,6.918 44.326,6.98 44.374,7.03 C 44.422,7.079 44.483,7.104 44.556,7.104 C 44.647,7.104 44.721,7.069 44.777,6.998 C 44.833,6.928 44.861,6.828 44.861,6.698 C 44.861,6.362 44.784,5.943 44.63,5.442 C 44.476,4.94 44.235,4.401 43.905,3.824 C 43.576,3.248 43.275,2.819 43.003,2.539 C 42.731,2.259 42.468,2.059 42.214,1.938 C 41.96,1.817 41.72,1.756 41.493,1.756 C 41.321,1.756 41.192,1.788 41.105,1.852 C 41.017,1.915 40.974,1.992 40.974,2.08 C 40.974,2.158 41.008,2.226 41.075,2.282 C 41.143,2.338 41.234,2.365 41.349,2.365 C 41.437,2.365 41.558,2.349 41.712,2.315 C 41.876,2.278 41.988,2.26 42.048,2.26 C 42.207,2.26 42.375,2.326 42.552,2.459 C 42.794,2.642 42.986,2.859 43.128,3.112 C 43.27,3.364 43.341,3.619 43.341,3.877 C 43.341,4.239 43.288,4.674 43.183,5.182 C 43.077,5.69 42.928,6.078 42.735,6.346 C 42.639,6.484 42.536,6.553 42.427,6.553 C 42.299,6.553 42.117,6.467 41.88,6.295 Z" fill-rule="nonzero" stroke-linejoin="round" stroke-linecap="round" stroke="none" stroke-width="0.25" fill="#000000" marker-start="none" marker-end="none" stroke-miterlimit="79.8403193612775"/>
    <path d="M 46.716,4.744 L 46.849,4.604 C 46.646,4.375 46.405,4.166 46.128,3.977 C 45.85,3.788 45.622,3.694 45.442,3.694 C 45.362,3.694 45.295,3.724 45.243,3.785 C 45.191,3.847 45.165,3.931 45.165,4.037 C 45.165,4.246 45.246,4.678 45.407,5.334 L 45.829,7.049 C 45.983,7.669 46.112,8.084 46.216,8.295 C 46.377,8.616 46.606,8.864 46.901,9.041 C 47.197,9.218 47.509,9.307 47.837,9.307 C 47.949,9.307 48.037,9.28 48.101,9.227 C 48.164,9.174 48.196,9.109 48.196,9.034 C 48.196,8.95 48.165,8.882 48.103,8.829 C 48.04,8.775 47.949,8.748 47.829,8.748 C 47.751,8.748 47.64,8.761 47.497,8.787 C 47.372,8.808 47.256,8.819 47.149,8.819 C 47.043,8.819 46.962,8.797 46.907,8.752 C 46.832,8.69 46.763,8.558 46.702,8.358 C 46.641,8.157 46.541,7.761 46.403,7.17 L 46.016,5.533 C 45.824,4.713 45.727,4.285 45.727,4.248 C 45.727,4.165 45.757,4.123 45.817,4.123 C 45.875,4.123 45.958,4.157 46.067,4.225 C 46.284,4.36 46.5,4.533 46.716,4.744 Z" fill-rule="nonzero" stroke-linejoin="round" stroke-linecap="round" stroke="none" stroke-width="0.25" fill="#000000" marker-start="none" marker-end="none" stroke-miterlimit="79.8403193612775"/>
    <path d="M 48.673,8.768 C 48.754,8.768 48.82,8.741 48.872,8.688 C 48.924,8.634 48.95,8.566 48.95,8.483 C 48.95,8.368 48.911,8.267 48.831,8.18 C 48.752,8.093 48.662,8.049 48.563,8.049 C 48.485,8.049 48.42,8.077 48.368,8.131 C 48.316,8.186 48.29,8.258 48.29,8.346 C 48.29,8.463 48.328,8.563 48.403,8.645 C 48.479,8.727 48.569,8.768 48.673,8.768 Z M 47.134,6.182 L 46.962,6.315 C 47.222,6.601 47.46,6.805 47.675,6.926 C 47.89,7.047 48.073,7.108 48.224,7.108 C 48.307,7.108 48.371,7.09 48.415,7.053 C 48.459,7.017 48.481,6.967 48.481,6.905 C 48.481,6.829 48.397,6.509 48.228,5.944 C 47.951,5.019 47.813,4.462 47.813,4.272 C 47.813,4.235 47.822,4.205 47.841,4.18 C 47.859,4.155 47.878,4.143 47.899,4.143 C 47.983,4.143 48.196,4.304 48.54,4.627 L 48.692,4.479 C 48.336,4.143 48.075,3.928 47.911,3.834 C 47.747,3.741 47.613,3.694 47.509,3.694 C 47.418,3.694 47.345,3.722 47.292,3.78 C 47.239,3.837 47.212,3.916 47.212,4.018 C 47.212,4.343 47.407,5.139 47.798,6.405 C 47.816,6.465 47.825,6.518 47.825,6.565 C 47.825,6.617 47.802,6.643 47.755,6.643 C 47.703,6.643 47.643,6.622 47.577,6.58 C 47.511,6.539 47.363,6.406 47.134,6.182 Z" fill-rule="nonzero" stroke-linejoin="round" stroke-linecap="round" stroke="none" stroke-width="0.25" fill="#000000" marker-start="none" marker-end="none" stroke-miterlimit="79.8403193612775"/>
    <path d="M 51.591,7.155 L 51.849,7.209 L 51.556,6.221 C 51.439,5.828 51.328,5.375 51.224,4.862 C 51.166,4.583 51.138,4.403 51.138,4.323 C 51.138,4.242 51.17,4.201 51.235,4.201 C 51.277,4.201 51.344,4.229 51.435,4.283 C 51.596,4.38 51.751,4.5 51.899,4.643 L 52.024,4.491 C 51.728,4.22 51.537,4.056 51.454,3.998 C 51.287,3.884 51.129,3.799 50.978,3.744 C 50.879,3.708 50.782,3.69 50.689,3.69 C 50.621,3.69 50.57,3.705 50.536,3.737 C 50.502,3.768 50.485,3.813 50.485,3.873 C 50.485,3.912 50.496,3.966 50.517,4.033 L 50.673,4.565 C 50.449,4.296 50.182,4.066 49.872,3.873 C 49.682,3.754 49.507,3.694 49.349,3.694 C 49.198,3.694 49.082,3.747 49.001,3.854 C 48.892,3.997 48.837,4.185 48.837,4.416 C 48.837,4.692 48.91,5 49.058,5.338 C 49.205,5.677 49.402,5.984 49.649,6.26 C 49.897,6.536 50.157,6.739 50.431,6.87 C 50.642,6.968 50.912,7.018 51.243,7.018 C 51.327,7.018 51.411,7.013 51.497,7.002 L 51.591,7.155 Z M 51.106,6.557 C 50.966,6.586 50.847,6.6 50.751,6.6 C 50.517,6.6 50.312,6.536 50.138,6.407 C 49.963,6.278 49.801,6.046 49.651,5.711 C 49.502,5.377 49.427,5.043 49.427,4.709 C 49.427,4.532 49.457,4.405 49.517,4.326 C 49.576,4.248 49.655,4.209 49.751,4.209 C 49.931,4.209 50.123,4.306 50.329,4.5 C 50.535,4.694 50.686,4.974 50.782,5.338 L 51.106,6.557 Z" fill-rule="nonzero" stroke-linejoin="round" stroke-linecap="round" stroke="none" stroke-width="0.25" fill="#000000" marker-start="none" marker-end="none" stroke-miterlimit="79.8403193612775"/>
    <path d="M 71.524,20.826 C 71.874,20.826 72.215,20.736 72.547,20.557 C 72.879,20.378 73.138,20.121 73.324,19.787 C 73.511,19.453 73.604,19.104 73.604,18.741 C 73.604,18.381 73.512,18.035 73.329,17.704 C 73.145,17.372 72.888,17.115 72.558,16.932 C 72.228,16.748 71.884,16.657 71.524,16.657 C 71.165,16.657 70.821,16.748 70.492,16.932 C 70.162,17.115 69.906,17.372 69.722,17.704 C 69.539,18.035 69.447,18.381 69.447,18.741 C 69.447,19.104 69.54,19.453 69.727,19.787 C 69.913,20.121 70.173,20.378 70.505,20.557 C 70.837,20.736 71.177,20.826 71.524,20.826 Z M 71.524,20.647 C 71.206,20.647 70.895,20.564 70.593,20.4 C 70.29,20.235 70.054,20 69.884,19.696 C 69.714,19.391 69.629,19.073 69.629,18.741 C 69.629,18.412 69.712,18.097 69.879,17.795 C 70.046,17.493 70.28,17.258 70.581,17.089 C 70.882,16.92 71.196,16.836 71.524,16.836 C 71.852,16.836 72.167,16.92 72.469,17.089 C 72.771,17.258 73.005,17.493 73.172,17.795 C 73.339,18.097 73.422,18.412 73.422,18.741 C 73.422,19.073 73.338,19.391 73.168,19.696 C 72.998,20 72.761,20.235 72.459,20.4 C 72.156,20.564 71.844,20.647 71.524,20.647 Z M 70.376,20.023 L 71.507,20.023 C 71.79,20.023 72.006,19.959 72.154,19.831 C 72.302,19.702 72.377,19.547 72.377,19.365 C 72.377,19.216 72.326,19.085 72.226,18.972 C 72.125,18.86 71.959,18.773 71.726,18.712 L 72.339,17.836 C 72.413,17.732 72.479,17.66 72.538,17.621 C 72.575,17.598 72.627,17.583 72.693,17.577 L 72.693,17.48 L 72.154,17.48 L 71.293,18.671 L 71.07,18.671 L 71.07,17.762 C 71.082,17.698 71.11,17.651 71.154,17.621 C 71.198,17.592 71.285,17.577 71.416,17.577 L 71.416,17.48 L 70.341,17.48 L 70.341,17.577 C 70.434,17.577 70.501,17.588 70.54,17.611 C 70.579,17.633 70.607,17.666 70.625,17.709 C 70.638,17.741 70.645,17.832 70.645,17.983 L 70.645,19.521 C 70.645,19.666 70.642,19.751 70.636,19.776 C 70.623,19.822 70.598,19.856 70.562,19.881 C 70.526,19.905 70.464,19.918 70.376,19.918 L 70.376,20.023 Z M 71.07,18.797 C 71.301,18.797 71.469,18.82 71.575,18.865 C 71.682,18.91 71.763,18.973 71.82,19.055 C 71.877,19.136 71.905,19.229 71.905,19.332 C 71.905,19.491 71.85,19.625 71.74,19.732 C 71.629,19.84 71.488,19.894 71.316,19.894 C 71.242,19.894 71.16,19.878 71.07,19.847 L 71.07,18.797 Z" fill-rule="nonzero" stroke-linejoin="round" stroke-linecap="round" stroke="none" stroke-width="0.118" fill="#000000" marker-start="none" marker-end="none" stroke-miterlimit="79.8403193612775"/>
   </g>
  </g>
 </g>
</svg>
